<?xml version="1.0" encoding="utf-8" standalone="no"?>
<!DOCTYPE svg PUBLIC "-//W3C//DTD SVG 1.1//EN"
  "http://www.w3.org/Graphics/SVG/1.1/DTD/svg11.dtd">
<!-- Created with matplotlib (https://matplotlib.org/) -->
<svg height="288pt" version="1.1" viewBox="0 0 432 288" width="432pt" xmlns="http://www.w3.org/2000/svg" xmlns:xlink="http://www.w3.org/1999/xlink">
 <metadata>
  <rdf:RDF xmlns:cc="http://creativecommons.org/ns#" xmlns:dc="http://purl.org/dc/elements/1.1/" xmlns:rdf="http://www.w3.org/1999/02/22-rdf-syntax-ns#">
   <cc:Work>
    <dc:type rdf:resource="http://purl.org/dc/dcmitype/StillImage"/>
    <dc:date>2021-05-26T09:57:54.349828</dc:date>
    <dc:format>image/svg+xml</dc:format>
    <dc:creator>
     <cc:Agent>
      <dc:title>Matplotlib v3.3.4, https://matplotlib.org/</dc:title>
     </cc:Agent>
    </dc:creator>
   </cc:Work>
  </rdf:RDF>
 </metadata>
 <defs>
  <style type="text/css">*{stroke-linecap:butt;stroke-linejoin:round;}</style>
 </defs>
 <g id="figure_1">
  <g id="patch_1">
   <path d="M 0 288 
L 432 288 
L 432 0 
L 0 0 
z
" style="fill:none;"/>
  </g>
  <g id="axes_1">
   <g id="patch_2">
    <path d="M 54 252 
L 388.8 252 
L 388.8 34.56 
L 54 34.56 
z
" style="fill:#ffffff;"/>
   </g>
   <g id="matplotlib.axis_1">
    <g id="xtick_1">
     <g id="line2d_1">
      <defs>
       <path d="M 0 0 
L 0 3.5 
" id="mdb2c5a7a5b" style="stroke:#000000;stroke-width:0.8;"/>
      </defs>
      <g>
       <use style="stroke:#000000;stroke-width:0.8;" x="69.218182" xlink:href="#mdb2c5a7a5b" y="252"/>
      </g>
     </g>
     <g id="text_1">
      <!-- 0 -->
      <g transform="translate(66.218182 266.94625)scale(0.12 -0.12)">
       <defs>
        <path d="M 46.34375 33.109375 
Q 46.34375 23.1875 43.5625 14.59375 
Q 41.890625 9.328125 39.078125 5.953125 
Q 36.28125 2.59375 32.71875 0.609375 
Q 29.15625 -1.375 24.953125 -1.375 
Q 20.171875 -1.375 16.3125 1.0625 
Q 12.453125 3.515625 9.46875 8.0625 
Q 7.328125 11.375 5.71875 16.890625 
Q 3.609375 24.359375 3.609375 32.328125 
Q 3.609375 43.109375 6.640625 52.15625 
Q 9.125 59.625 14.203125 63.59375 
Q 19.28125 67.578125 24.953125 67.578125 
Q 30.71875 67.578125 35.71875 63.640625 
Q 40.71875 59.71875 43.0625 53.078125 
Q 46.34375 43.953125 46.34375 33.109375 
z
M 31.296875 33.203125 
Q 31.296875 50.59375 31.109375 53.46875 
Q 30.609375 60.25 28.765625 62.640625 
Q 27.546875 64.203125 24.8125 64.203125 
Q 22.703125 64.203125 21.484375 63.03125 
Q 19.671875 61.328125 19.03125 57 
Q 18.40625 52.6875 18.40625 26.859375 
Q 18.40625 12.796875 19.390625 8.015625 
Q 20.125 4.546875 21.484375 3.375 
Q 22.859375 2.203125 25.09375 2.203125 
Q 27.546875 2.203125 28.765625 3.765625 
Q 30.8125 6.5 31.109375 12.203125 
z
" id="TimesNewRomanPS-BoldMT-48"/>
       </defs>
       <use xlink:href="#TimesNewRomanPS-BoldMT-48"/>
      </g>
     </g>
    </g>
    <g id="xtick_2">
     <g id="line2d_2">
      <g>
       <use style="stroke:#000000;stroke-width:0.8;" x="107.263636" xlink:href="#mdb2c5a7a5b" y="252"/>
      </g>
     </g>
     <g id="text_2">
      <!-- 25 -->
      <g transform="translate(101.263636 266.94625)scale(0.12 -0.12)">
       <defs>
        <path d="M 41.40625 0 
L 2.4375 0 
L 2.4375 1.078125 
Q 20.359375 22.40625 24.1875 29.78125 
Q 28.03125 37.15625 28.03125 44.1875 
Q 28.03125 49.3125 24.859375 52.703125 
Q 21.6875 56.109375 17.09375 56.109375 
Q 9.578125 56.109375 5.421875 48.578125 
L 3.609375 49.21875 
Q 6.25 58.59375 11.625 63.078125 
Q 17 67.578125 24.03125 67.578125 
Q 29.046875 67.578125 33.203125 65.234375 
Q 37.359375 62.890625 39.703125 58.8125 
Q 42.046875 54.734375 42.046875 51.171875 
Q 42.046875 44.671875 38.421875 37.984375 
Q 33.5 28.953125 16.890625 12.796875 
L 31.203125 12.796875 
Q 36.46875 12.796875 38.0625 13.234375 
Q 39.65625 13.671875 40.671875 14.71875 
Q 41.703125 15.765625 43.359375 19.140625 
L 45.125 19.140625 
z
" id="TimesNewRomanPS-BoldMT-50"/>
        <path d="M 15.234375 66.21875 
L 46.234375 66.21875 
L 41.3125 53.609375 
L 15.234375 53.609375 
L 12.75 47.015625 
Q 29.59375 46.390625 38.671875 38.625 
Q 46.140625 32.234375 46.140625 22.703125 
Q 46.140625 16.609375 42.671875 10.765625 
Q 39.203125 4.9375 32.90625 1.78125 
Q 26.609375 -1.375 19.09375 -1.375 
Q 10.984375 -1.375 6.640625 1.65625 
Q 3.609375 3.8125 3.609375 6.546875 
Q 3.609375 8.640625 5.1875 10.25 
Q 6.78125 11.859375 8.890625 11.859375 
Q 10.796875 11.859375 12.75 11.078125 
Q 14.703125 10.296875 19.4375 6.984375 
Q 22.40625 4.9375 24.5625 4.15625 
Q 26.078125 3.5625 27.984375 3.5625 
Q 31.984375 3.5625 34.78125 6.484375 
Q 37.59375 9.421875 37.59375 13.53125 
Q 37.59375 22.125 29 27.484375 
Q 20.40625 32.859375 7.328125 32.859375 
Q 6 32.859375 3.375 32.8125 
z
" id="TimesNewRomanPS-BoldMT-53"/>
       </defs>
       <use xlink:href="#TimesNewRomanPS-BoldMT-50"/>
       <use x="50" xlink:href="#TimesNewRomanPS-BoldMT-53"/>
      </g>
     </g>
    </g>
    <g id="xtick_3">
     <g id="line2d_3">
      <g>
       <use style="stroke:#000000;stroke-width:0.8;" x="145.309091" xlink:href="#mdb2c5a7a5b" y="252"/>
      </g>
     </g>
     <g id="text_3">
      <!-- 50 -->
      <g transform="translate(139.309091 266.94625)scale(0.12 -0.12)">
       <use xlink:href="#TimesNewRomanPS-BoldMT-53"/>
       <use x="50" xlink:href="#TimesNewRomanPS-BoldMT-48"/>
      </g>
     </g>
    </g>
    <g id="xtick_4">
     <g id="line2d_4">
      <g>
       <use style="stroke:#000000;stroke-width:0.8;" x="183.354545" xlink:href="#mdb2c5a7a5b" y="252"/>
      </g>
     </g>
     <g id="text_4">
      <!-- 75 -->
      <g transform="translate(177.354545 266.94625)scale(0.12 -0.12)">
       <defs>
        <path d="M 17.71875 -1.375 
L 35.75 53.265625 
L 22.015625 53.265625 
Q 13.96875 53.265625 9.90625 51.171875 
Q 7.078125 49.703125 5.21875 45.65625 
L 3.375 45.65625 
L 8.15625 66.21875 
L 47.609375 66.21875 
L 25.390625 -1.375 
z
" id="TimesNewRomanPS-BoldMT-55"/>
       </defs>
       <use xlink:href="#TimesNewRomanPS-BoldMT-55"/>
       <use x="50" xlink:href="#TimesNewRomanPS-BoldMT-53"/>
      </g>
     </g>
    </g>
    <g id="xtick_5">
     <g id="line2d_5">
      <g>
       <use style="stroke:#000000;stroke-width:0.8;" x="221.4" xlink:href="#mdb2c5a7a5b" y="252"/>
      </g>
     </g>
     <g id="text_5">
      <!-- 100 -->
      <g transform="translate(212.4 266.94625)scale(0.12 -0.12)">
       <defs>
        <path d="M 32.5625 67.578125 
L 32.5625 13.421875 
Q 32.5625 7.328125 33.09375 5.640625 
Q 33.640625 3.953125 35.34375 2.875 
Q 37.0625 1.8125 40.828125 1.8125 
L 42.328125 1.8125 
L 42.328125 0 
L 7.46875 0 
L 7.46875 1.8125 
L 9.234375 1.8125 
Q 13.484375 1.8125 15.28125 2.78125 
Q 17.09375 3.765625 17.71875 5.46875 
Q 18.359375 7.171875 18.359375 13.421875 
L 18.359375 47.75 
Q 18.359375 52.34375 17.921875 53.484375 
Q 17.484375 54.640625 16.28125 55.4375 
Q 15.09375 56.25 13.53125 56.25 
Q 11.03125 56.25 7.46875 54.6875 
L 6.59375 56.453125 
L 30.953125 67.578125 
z
" id="TimesNewRomanPS-BoldMT-49"/>
       </defs>
       <use xlink:href="#TimesNewRomanPS-BoldMT-49"/>
       <use x="50" xlink:href="#TimesNewRomanPS-BoldMT-48"/>
       <use x="100" xlink:href="#TimesNewRomanPS-BoldMT-48"/>
      </g>
     </g>
    </g>
    <g id="xtick_6">
     <g id="line2d_6">
      <g>
       <use style="stroke:#000000;stroke-width:0.8;" x="259.445455" xlink:href="#mdb2c5a7a5b" y="252"/>
      </g>
     </g>
     <g id="text_6">
      <!-- 125 -->
      <g transform="translate(250.445455 266.94625)scale(0.12 -0.12)">
       <use xlink:href="#TimesNewRomanPS-BoldMT-49"/>
       <use x="50" xlink:href="#TimesNewRomanPS-BoldMT-50"/>
       <use x="100" xlink:href="#TimesNewRomanPS-BoldMT-53"/>
      </g>
     </g>
    </g>
    <g id="xtick_7">
     <g id="line2d_7">
      <g>
       <use style="stroke:#000000;stroke-width:0.8;" x="297.490909" xlink:href="#mdb2c5a7a5b" y="252"/>
      </g>
     </g>
     <g id="text_7">
      <!-- 150 -->
      <g transform="translate(288.490909 266.94625)scale(0.12 -0.12)">
       <use xlink:href="#TimesNewRomanPS-BoldMT-49"/>
       <use x="50" xlink:href="#TimesNewRomanPS-BoldMT-53"/>
       <use x="100" xlink:href="#TimesNewRomanPS-BoldMT-48"/>
      </g>
     </g>
    </g>
    <g id="xtick_8">
     <g id="line2d_8">
      <g>
       <use style="stroke:#000000;stroke-width:0.8;" x="335.536364" xlink:href="#mdb2c5a7a5b" y="252"/>
      </g>
     </g>
     <g id="text_8">
      <!-- 175 -->
      <g transform="translate(326.536364 266.94625)scale(0.12 -0.12)">
       <use xlink:href="#TimesNewRomanPS-BoldMT-49"/>
       <use x="50" xlink:href="#TimesNewRomanPS-BoldMT-55"/>
       <use x="100" xlink:href="#TimesNewRomanPS-BoldMT-53"/>
      </g>
     </g>
    </g>
    <g id="xtick_9">
     <g id="line2d_9">
      <g>
       <use style="stroke:#000000;stroke-width:0.8;" x="373.581818" xlink:href="#mdb2c5a7a5b" y="252"/>
      </g>
     </g>
     <g id="text_9">
      <!-- 200 -->
      <g transform="translate(364.581818 266.94625)scale(0.12 -0.12)">
       <use xlink:href="#TimesNewRomanPS-BoldMT-50"/>
       <use x="50" xlink:href="#TimesNewRomanPS-BoldMT-48"/>
       <use x="100" xlink:href="#TimesNewRomanPS-BoldMT-48"/>
      </g>
     </g>
    </g>
    <g id="text_10">
     <!-- Training times -->
     <g transform="translate(186.450938 281.845625)scale(0.12 -0.12)">
      <defs>
       <path d="M 57.859375 66.21875 
L 58.59375 50.6875 
L 56.734375 50.6875 
Q 56.203125 54.78125 55.28125 56.546875 
Q 53.765625 59.375 51.25 60.71875 
Q 48.734375 62.0625 44.625 62.0625 
L 35.296875 62.0625 
L 35.296875 11.46875 
Q 35.296875 5.375 36.625 3.859375 
Q 38.484375 1.8125 42.328125 1.8125 
L 44.625 1.8125 
L 44.625 0 
L 16.546875 0 
L 16.546875 1.8125 
L 18.890625 1.8125 
Q 23.09375 1.8125 24.859375 4.34375 
Q 25.921875 5.90625 25.921875 11.46875 
L 25.921875 62.0625 
L 17.96875 62.0625 
Q 13.328125 62.0625 11.375 61.375 
Q 8.84375 60.453125 7.03125 57.8125 
Q 5.21875 55.171875 4.890625 50.6875 
L 3.03125 50.6875 
L 3.8125 66.21875 
z
" id="TimesNewRomanPSMT-84"/>
       <path d="M 16.21875 46.046875 
L 16.21875 35.984375 
Q 21.828125 46.046875 27.734375 46.046875 
Q 30.421875 46.046875 32.171875 44.40625 
Q 33.9375 42.78125 33.9375 40.625 
Q 33.9375 38.71875 32.65625 37.390625 
Q 31.390625 36.078125 29.640625 36.078125 
Q 27.9375 36.078125 25.8125 37.765625 
Q 23.6875 39.453125 22.65625 39.453125 
Q 21.78125 39.453125 20.75 38.484375 
Q 18.5625 36.46875 16.21875 31.890625 
L 16.21875 10.453125 
Q 16.21875 6.734375 17.140625 4.828125 
Q 17.78125 3.515625 19.390625 2.640625 
Q 21 1.765625 24.03125 1.765625 
L 24.03125 0 
L 1.125 0 
L 1.125 1.765625 
Q 4.546875 1.765625 6.203125 2.828125 
Q 7.421875 3.609375 7.90625 5.328125 
Q 8.15625 6.15625 8.15625 10.0625 
L 8.15625 27.390625 
Q 8.15625 35.203125 7.828125 36.6875 
Q 7.515625 38.1875 6.65625 38.859375 
Q 5.8125 39.546875 4.546875 39.546875 
Q 3.03125 39.546875 1.125 38.8125 
L 0.640625 40.578125 
L 14.15625 46.046875 
z
" id="TimesNewRomanPSMT-114"/>
       <path d="M 28.46875 6.453125 
Q 21.578125 1.125 19.828125 0.296875 
Q 17.1875 -0.921875 14.203125 -0.921875 
Q 9.578125 -0.921875 6.5625 2.25 
Q 3.5625 5.421875 3.5625 10.59375 
Q 3.5625 13.875 5.03125 16.265625 
Q 7.03125 19.578125 11.984375 22.5 
Q 16.9375 25.4375 28.46875 29.640625 
L 28.46875 31.390625 
Q 28.46875 38.09375 26.34375 40.578125 
Q 24.21875 43.0625 20.171875 43.0625 
Q 17.09375 43.0625 15.28125 41.40625 
Q 13.421875 39.75 13.421875 37.59375 
L 13.53125 34.765625 
Q 13.53125 32.515625 12.375 31.296875 
Q 11.234375 30.078125 9.375 30.078125 
Q 7.5625 30.078125 6.421875 31.34375 
Q 5.28125 32.625 5.28125 34.8125 
Q 5.28125 39.015625 9.578125 42.53125 
Q 13.875 46.046875 21.625 46.046875 
Q 27.59375 46.046875 31.390625 44.046875 
Q 34.28125 42.53125 35.640625 39.3125 
Q 36.53125 37.203125 36.53125 30.71875 
L 36.53125 15.53125 
Q 36.53125 9.125 36.765625 7.6875 
Q 37.015625 6.25 37.578125 5.765625 
Q 38.140625 5.28125 38.875 5.28125 
Q 39.65625 5.28125 40.234375 5.609375 
Q 41.265625 6.25 44.1875 9.1875 
L 44.1875 6.453125 
Q 38.71875 -0.875 33.734375 -0.875 
Q 31.34375 -0.875 29.921875 0.78125 
Q 28.515625 2.4375 28.46875 6.453125 
z
M 28.46875 9.625 
L 28.46875 26.65625 
Q 21.09375 23.734375 18.953125 22.515625 
Q 15.09375 20.359375 13.421875 18.015625 
Q 11.765625 15.671875 11.765625 12.890625 
Q 11.765625 9.375 13.859375 7.046875 
Q 15.96875 4.734375 18.703125 4.734375 
Q 22.40625 4.734375 28.46875 9.625 
z
" id="TimesNewRomanPSMT-97"/>
       <path d="M 14.5 69.4375 
Q 16.546875 69.4375 17.984375 67.984375 
Q 19.4375 66.546875 19.4375 64.5 
Q 19.4375 62.453125 17.984375 60.984375 
Q 16.546875 59.515625 14.5 59.515625 
Q 12.453125 59.515625 10.984375 60.984375 
Q 9.515625 62.453125 9.515625 64.5 
Q 9.515625 66.546875 10.953125 67.984375 
Q 12.40625 69.4375 14.5 69.4375 
z
M 18.5625 46.046875 
L 18.5625 10.109375 
Q 18.5625 5.90625 19.171875 4.515625 
Q 19.78125 3.125 20.96875 2.4375 
Q 22.171875 1.765625 25.34375 1.765625 
L 25.34375 0 
L 3.609375 0 
L 3.609375 1.765625 
Q 6.890625 1.765625 8 2.390625 
Q 9.125 3.03125 9.78125 4.484375 
Q 10.453125 5.953125 10.453125 10.109375 
L 10.453125 27.34375 
Q 10.453125 34.625 10.015625 36.765625 
Q 9.671875 38.328125 8.9375 38.9375 
Q 8.203125 39.546875 6.9375 39.546875 
Q 5.5625 39.546875 3.609375 38.8125 
L 2.9375 40.578125 
L 16.40625 46.046875 
z
" id="TimesNewRomanPSMT-105"/>
       <path d="M 16.15625 36.578125 
Q 24.03125 46.046875 31.15625 46.046875 
Q 34.8125 46.046875 37.453125 44.21875 
Q 40.09375 42.390625 41.65625 38.1875 
Q 42.71875 35.25 42.71875 29.203125 
L 42.71875 10.109375 
Q 42.71875 5.859375 43.40625 4.34375 
Q 43.953125 3.125 45.140625 2.4375 
Q 46.34375 1.765625 49.5625 1.765625 
L 49.5625 0 
L 27.4375 0 
L 27.4375 1.765625 
L 28.375 1.765625 
Q 31.5 1.765625 32.734375 2.703125 
Q 33.984375 3.65625 34.46875 5.515625 
Q 34.671875 6.25 34.671875 10.109375 
L 34.671875 28.421875 
Q 34.671875 34.515625 33.078125 37.28125 
Q 31.5 40.046875 27.734375 40.046875 
Q 21.921875 40.046875 16.15625 33.6875 
L 16.15625 10.109375 
Q 16.15625 5.5625 16.703125 4.5 
Q 17.390625 3.078125 18.578125 2.421875 
Q 19.78125 1.765625 23.4375 1.765625 
L 23.4375 0 
L 1.3125 0 
L 1.3125 1.765625 
L 2.296875 1.765625 
Q 5.71875 1.765625 6.90625 3.484375 
Q 8.109375 5.21875 8.109375 10.109375 
L 8.109375 26.703125 
Q 8.109375 34.765625 7.734375 36.515625 
Q 7.375 38.28125 6.609375 38.90625 
Q 5.859375 39.546875 4.59375 39.546875 
Q 3.21875 39.546875 1.3125 38.8125 
L 0.59375 40.578125 
L 14.0625 46.046875 
L 16.15625 46.046875 
z
" id="TimesNewRomanPSMT-110"/>
       <path d="M 15.09375 16.3125 
Q 10.984375 18.3125 8.78125 21.890625 
Q 6.59375 25.484375 6.59375 29.828125 
Q 6.59375 36.46875 11.59375 41.25 
Q 16.609375 46.046875 24.421875 46.046875 
Q 30.8125 46.046875 35.5 42.921875 
L 44.96875 42.921875 
Q 47.078125 42.921875 47.40625 42.796875 
Q 47.75 42.671875 47.90625 42.390625 
Q 48.1875 41.9375 48.1875 40.828125 
Q 48.1875 39.546875 47.953125 39.0625 
Q 47.796875 38.8125 47.4375 38.671875 
Q 47.078125 38.53125 44.96875 38.53125 
L 39.15625 38.53125 
Q 41.890625 35.015625 41.890625 29.546875 
Q 41.890625 23.296875 37.109375 18.84375 
Q 32.328125 14.40625 24.265625 14.40625 
Q 20.953125 14.40625 17.484375 15.375 
Q 15.328125 13.53125 14.5625 12.140625 
Q 13.8125 10.75 13.8125 9.765625 
Q 13.8125 8.9375 14.625 8.15625 
Q 15.4375 7.375 17.78125 7.03125 
Q 19.140625 6.84375 24.609375 6.6875 
Q 34.671875 6.453125 37.640625 6 
Q 42.1875 5.375 44.890625 2.640625 
Q 47.609375 -0.09375 47.609375 -4.109375 
Q 47.609375 -9.625 42.4375 -14.453125 
Q 34.8125 -21.578125 22.5625 -21.578125 
Q 13.140625 -21.578125 6.640625 -17.328125 
Q 2.984375 -14.890625 2.984375 -12.25 
Q 2.984375 -11.078125 3.515625 -9.90625 
Q 4.34375 -8.109375 6.9375 -4.890625 
Q 7.28125 -4.4375 11.921875 0.390625 
Q 9.375 1.90625 8.328125 3.09375 
Q 7.28125 4.296875 7.28125 5.8125 
Q 7.28125 7.515625 8.671875 9.8125 
Q 10.0625 12.109375 15.09375 16.3125 
z
M 23.578125 43.703125 
Q 19.96875 43.703125 17.53125 40.8125 
Q 15.09375 37.9375 15.09375 31.984375 
Q 15.09375 24.265625 18.40625 20.015625 
Q 20.953125 16.796875 24.859375 16.796875 
Q 28.5625 16.796875 30.953125 19.578125 
Q 33.34375 22.359375 33.34375 28.328125 
Q 33.34375 36.078125 29.984375 40.484375 
Q 27.484375 43.703125 23.578125 43.703125 
z
M 14.59375 0 
Q 12.3125 -2.484375 11.140625 -4.625 
Q 9.96875 -6.78125 9.96875 -8.59375 
Q 9.96875 -10.9375 12.796875 -12.703125 
Q 17.671875 -15.71875 26.90625 -15.71875 
Q 35.6875 -15.71875 39.859375 -12.609375 
Q 44.046875 -9.515625 44.046875 -6 
Q 44.046875 -3.46875 41.546875 -2.390625 
Q 39.015625 -1.3125 31.5 -1.125 
Q 20.515625 -0.828125 14.59375 0 
z
" id="TimesNewRomanPSMT-103"/>
       <path id="TimesNewRomanPSMT-32"/>
       <path d="M 16.109375 59.421875 
L 16.109375 44.734375 
L 26.5625 44.734375 
L 26.5625 41.3125 
L 16.109375 41.3125 
L 16.109375 12.3125 
Q 16.109375 7.953125 17.359375 6.4375 
Q 18.609375 4.9375 20.5625 4.9375 
Q 22.171875 4.9375 23.6875 5.9375 
Q 25.203125 6.9375 26.03125 8.890625 
L 27.9375 8.890625 
Q 26.21875 4.109375 23.09375 1.6875 
Q 19.96875 -0.734375 16.65625 -0.734375 
Q 14.40625 -0.734375 12.25 0.515625 
Q 10.109375 1.765625 9.078125 4.078125 
Q 8.0625 6.390625 8.0625 11.234375 
L 8.0625 41.3125 
L 0.984375 41.3125 
L 0.984375 42.921875 
Q 3.65625 44 6.46875 46.5625 
Q 9.28125 49.125 11.46875 52.640625 
Q 12.59375 54.5 14.59375 59.421875 
z
" id="TimesNewRomanPSMT-116"/>
       <path d="M 16.40625 36.53125 
Q 21.296875 41.40625 22.171875 42.140625 
Q 24.359375 44 26.890625 45.015625 
Q 29.4375 46.046875 31.9375 46.046875 
Q 36.140625 46.046875 39.15625 43.59375 
Q 42.1875 41.15625 43.21875 36.53125 
Q 48.25 42.390625 51.703125 44.21875 
Q 55.171875 46.046875 58.84375 46.046875 
Q 62.40625 46.046875 65.15625 44.21875 
Q 67.921875 42.390625 69.53125 38.234375 
Q 70.609375 35.40625 70.609375 29.34375 
L 70.609375 10.109375 
Q 70.609375 5.90625 71.234375 4.34375 
Q 71.734375 3.265625 73.046875 2.515625 
Q 74.359375 1.765625 77.34375 1.765625 
L 77.34375 0 
L 55.28125 0 
L 55.28125 1.765625 
L 56.203125 1.765625 
Q 59.078125 1.765625 60.6875 2.875 
Q 61.8125 3.65625 62.3125 5.375 
Q 62.5 6.203125 62.5 10.109375 
L 62.5 29.34375 
Q 62.5 34.8125 61.1875 37.0625 
Q 59.28125 40.1875 55.078125 40.1875 
Q 52.484375 40.1875 49.875 38.890625 
Q 47.265625 37.59375 43.5625 34.078125 
L 43.453125 33.546875 
L 43.5625 31.453125 
L 43.5625 10.109375 
Q 43.5625 5.515625 44.0625 4.390625 
Q 44.578125 3.265625 45.984375 2.515625 
Q 47.40625 1.765625 50.828125 1.765625 
L 50.828125 0 
L 28.21875 0 
L 28.21875 1.765625 
Q 31.9375 1.765625 33.328125 2.640625 
Q 34.71875 3.515625 35.25 5.28125 
Q 35.5 6.109375 35.5 10.109375 
L 35.5 29.34375 
Q 35.5 34.8125 33.890625 37.203125 
Q 31.734375 40.328125 27.875 40.328125 
Q 25.25 40.328125 22.65625 38.921875 
Q 18.609375 36.765625 16.40625 34.078125 
L 16.40625 10.109375 
Q 16.40625 5.71875 17.015625 4.390625 
Q 17.625 3.078125 18.8125 2.421875 
Q 20.015625 1.765625 23.6875 1.765625 
L 23.6875 0 
L 1.5625 0 
L 1.5625 1.765625 
Q 4.640625 1.765625 5.859375 2.421875 
Q 7.078125 3.078125 7.703125 4.515625 
Q 8.34375 5.953125 8.34375 10.109375 
L 8.34375 27.203125 
Q 8.34375 34.578125 7.90625 36.71875 
Q 7.5625 38.328125 6.828125 38.9375 
Q 6.109375 39.546875 4.828125 39.546875 
Q 3.46875 39.546875 1.5625 38.8125 
L 0.828125 40.578125 
L 14.3125 46.046875 
L 16.40625 46.046875 
z
" id="TimesNewRomanPSMT-109"/>
       <path d="M 10.640625 27.875 
Q 10.59375 17.921875 15.484375 12.25 
Q 20.359375 6.59375 26.953125 6.59375 
Q 31.34375 6.59375 34.59375 9 
Q 37.84375 11.421875 40.046875 17.28125 
L 41.546875 16.3125 
Q 40.53125 9.625 35.59375 4.125 
Q 30.671875 -1.375 23.25 -1.375 
Q 15.1875 -1.375 9.453125 4.90625 
Q 3.71875 11.1875 3.71875 21.78125 
Q 3.71875 33.25 9.59375 39.671875 
Q 15.484375 46.09375 24.359375 46.09375 
Q 31.890625 46.09375 36.71875 41.140625 
Q 41.546875 36.1875 41.546875 27.875 
z
M 10.640625 30.71875 
L 31.34375 30.71875 
Q 31.109375 35.015625 30.328125 36.765625 
Q 29.109375 39.5 26.6875 41.0625 
Q 24.265625 42.625 21.625 42.625 
Q 17.578125 42.625 14.375 39.46875 
Q 11.1875 36.328125 10.640625 30.71875 
z
" id="TimesNewRomanPSMT-101"/>
       <path d="M 32.03125 46.046875 
L 32.03125 30.8125 
L 30.421875 30.8125 
Q 28.5625 37.984375 25.65625 40.578125 
Q 22.75 43.171875 18.265625 43.171875 
Q 14.84375 43.171875 12.734375 41.359375 
Q 10.640625 39.546875 10.640625 37.359375 
Q 10.640625 34.625 12.203125 32.671875 
Q 13.71875 30.671875 18.359375 28.421875 
L 25.484375 24.953125 
Q 35.40625 20.125 35.40625 12.203125 
Q 35.40625 6.109375 30.78125 2.359375 
Q 26.171875 -1.375 20.453125 -1.375 
Q 16.359375 -1.375 11.078125 0.09375 
Q 9.46875 0.59375 8.453125 0.59375 
Q 7.328125 0.59375 6.6875 -0.6875 
L 5.078125 -0.6875 
L 5.078125 15.28125 
L 6.6875 15.28125 
Q 8.0625 8.453125 11.90625 4.984375 
Q 15.765625 1.515625 20.5625 1.515625 
Q 23.921875 1.515625 26.046875 3.484375 
Q 28.171875 5.46875 28.171875 8.25 
Q 28.171875 11.625 25.796875 13.921875 
Q 23.4375 16.21875 16.359375 19.734375 
Q 9.28125 23.25 7.078125 26.078125 
Q 4.890625 28.859375 4.890625 33.109375 
Q 4.890625 38.625 8.671875 42.328125 
Q 12.453125 46.046875 18.453125 46.046875 
Q 21.09375 46.046875 24.859375 44.921875 
Q 27.34375 44.1875 28.171875 44.1875 
Q 28.953125 44.1875 29.390625 44.53125 
Q 29.828125 44.875 30.421875 46.046875 
z
" id="TimesNewRomanPSMT-115"/>
      </defs>
      <use xlink:href="#TimesNewRomanPSMT-84"/>
      <use x="57.583984" xlink:href="#TimesNewRomanPSMT-114"/>
      <use x="90.884766" xlink:href="#TimesNewRomanPSMT-97"/>
      <use x="135.269531" xlink:href="#TimesNewRomanPSMT-105"/>
      <use x="163.052734" xlink:href="#TimesNewRomanPSMT-110"/>
      <use x="213.052734" xlink:href="#TimesNewRomanPSMT-105"/>
      <use x="240.835938" xlink:href="#TimesNewRomanPSMT-110"/>
      <use x="290.835938" xlink:href="#TimesNewRomanPSMT-103"/>
      <use x="340.835938" xlink:href="#TimesNewRomanPSMT-32"/>
      <use x="365.835938" xlink:href="#TimesNewRomanPSMT-116"/>
      <use x="393.619141" xlink:href="#TimesNewRomanPSMT-105"/>
      <use x="421.402344" xlink:href="#TimesNewRomanPSMT-109"/>
      <use x="499.185547" xlink:href="#TimesNewRomanPSMT-101"/>
      <use x="543.570312" xlink:href="#TimesNewRomanPSMT-115"/>
     </g>
    </g>
   </g>
   <g id="matplotlib.axis_2">
    <g id="ytick_1">
     <g id="line2d_10">
      <defs>
       <path d="M 0 0 
L -3.5 0 
" id="ma95b1606d9" style="stroke:#000000;stroke-width:0.8;"/>
      </defs>
      <g>
       <use style="stroke:#000000;stroke-width:0.8;" x="54" xlink:href="#ma95b1606d9" y="244.410016"/>
      </g>
     </g>
     <g id="text_11">
      <!-- 0 -->
      <g transform="translate(41 248.383141)scale(0.12 -0.12)">
       <use xlink:href="#TimesNewRomanPS-BoldMT-48"/>
      </g>
     </g>
    </g>
    <g id="ytick_2">
     <g id="line2d_11">
      <g>
       <use style="stroke:#000000;stroke-width:0.8;" x="54" xlink:href="#ma95b1606d9" y="198.725072"/>
      </g>
     </g>
     <g id="text_12">
      <!-- 2 -->
      <g transform="translate(41 202.698197)scale(0.12 -0.12)">
       <use xlink:href="#TimesNewRomanPS-BoldMT-50"/>
      </g>
     </g>
    </g>
    <g id="ytick_3">
     <g id="line2d_12">
      <g>
       <use style="stroke:#000000;stroke-width:0.8;" x="54" xlink:href="#ma95b1606d9" y="153.040128"/>
      </g>
     </g>
     <g id="text_13">
      <!-- 4 -->
      <g transform="translate(41 157.013253)scale(0.12 -0.12)">
       <defs>
        <path d="M 2.484375 24.953125 
L 33.9375 67.578125 
L 39.890625 67.578125 
L 39.890625 24.953125 
L 45.953125 24.953125 
L 45.953125 14.84375 
L 39.890625 14.84375 
L 39.890625 0 
L 26.46875 0 
L 26.46875 14.84375 
L 2.484375 14.84375 
z
M 7.234375 24.953125 
L 26.46875 24.953125 
L 26.46875 51.078125 
z
" id="TimesNewRomanPS-BoldMT-52"/>
       </defs>
       <use xlink:href="#TimesNewRomanPS-BoldMT-52"/>
      </g>
     </g>
    </g>
    <g id="ytick_4">
     <g id="line2d_13">
      <g>
       <use style="stroke:#000000;stroke-width:0.8;" x="54" xlink:href="#ma95b1606d9" y="107.355184"/>
      </g>
     </g>
     <g id="text_14">
      <!-- 6 -->
      <g transform="translate(41 111.328309)scale(0.12 -0.12)">
       <defs>
        <path d="M 46.96875 67.578125 
L 46.96875 66.21875 
Q 38.140625 63.96875 32.78125 60.421875 
Q 27.4375 56.890625 24.328125 51.828125 
Q 21.234375 46.78125 19.53125 39.3125 
Q 21.6875 40.765625 23.09375 41.21875 
Q 26.265625 42.1875 29.5 42.1875 
Q 36.921875 42.1875 41.875 36.78125 
Q 46.828125 31.390625 46.828125 22.078125 
Q 46.828125 15.53125 44.140625 10.0625 
Q 41.453125 4.59375 36.515625 1.609375 
Q 31.59375 -1.375 25.984375 -1.375 
Q 19.875 -1.375 14.6875 1.96875 
Q 9.515625 5.328125 6.609375 11.765625 
Q 3.71875 18.21875 3.71875 25.78125 
Q 3.71875 36.921875 9.0625 46.515625 
Q 14.40625 56.109375 24.234375 61.796875 
Q 34.078125 67.484375 46.96875 67.578125 
z
M 18.890625 35.359375 
Q 18.5 28.609375 18.5 25.484375 
Q 18.5 18.75 19.796875 12.453125 
Q 21.09375 6.15625 23.34375 3.609375 
Q 24.953125 1.8125 27.15625 1.8125 
Q 29.390625 1.8125 31.140625 4.421875 
Q 32.90625 7.03125 32.90625 15.046875 
Q 32.90625 28.515625 29.640625 33.640625 
Q 27.546875 36.96875 23.96875 36.96875 
Q 22.015625 36.96875 18.890625 35.359375 
z
" id="TimesNewRomanPS-BoldMT-54"/>
       </defs>
       <use xlink:href="#TimesNewRomanPS-BoldMT-54"/>
      </g>
     </g>
    </g>
    <g id="ytick_5">
     <g id="line2d_14">
      <g>
       <use style="stroke:#000000;stroke-width:0.8;" x="54" xlink:href="#ma95b1606d9" y="61.67024"/>
      </g>
     </g>
     <g id="text_15">
      <!-- 8 -->
      <g transform="translate(41 65.643365)scale(0.12 -0.12)">
       <defs>
        <path d="M 34.078125 37.40625 
Q 41.0625 32.28125 43.765625 27.859375 
Q 46.484375 23.4375 46.484375 17.71875 
Q 46.484375 9.71875 40.453125 4.171875 
Q 34.421875 -1.375 24.078125 -1.375 
Q 14.265625 -1.375 8.890625 3.453125 
Q 3.515625 8.296875 3.515625 15.28125 
Q 3.515625 20.609375 6.609375 24.609375 
Q 9.71875 28.609375 16.9375 31.9375 
Q 9.078125 37.9375 6.859375 41.75 
Q 4.640625 45.5625 4.640625 50.59375 
Q 4.640625 57.234375 10.28125 62.28125 
Q 15.921875 67.328125 25.734375 67.328125 
Q 35.203125 67.328125 40.296875 62.859375 
Q 45.40625 58.40625 45.40625 52.15625 
Q 45.40625 47.46875 42.640625 43.875 
Q 39.890625 40.28125 34.078125 37.40625 
z
M 30.375 39.890625 
Q 32.171875 42.328125 33.046875 45.359375 
Q 33.9375 48.390625 33.9375 52 
Q 33.9375 58.34375 31.203125 61.71875 
Q 29.15625 64.3125 25.53125 64.3125 
Q 22.265625 64.3125 19.96875 61.9375 
Q 17.671875 59.578125 17.671875 56.0625 
Q 17.671875 52.484375 20.234375 48.65625 
Q 22.796875 44.828125 30.375 39.890625 
z
M 20.609375 29.59375 
Q 19.09375 28.21875 18.453125 27.09375 
Q 17.484375 25.390625 16.703125 22.109375 
Q 15.921875 18.84375 15.921875 15.28125 
Q 15.921875 10.6875 17.09375 7.59375 
Q 18.265625 4.5 20.4375 3.125 
Q 22.609375 1.765625 24.90625 1.765625 
Q 28.46875 1.765625 30.90625 4.375 
Q 33.34375 6.984375 33.34375 11.53125 
Q 33.34375 21 20.609375 29.59375 
z
" id="TimesNewRomanPS-BoldMT-56"/>
       </defs>
       <use xlink:href="#TimesNewRomanPS-BoldMT-56"/>
      </g>
     </g>
    </g>
    <g id="text_16">
     <!-- MSE loss -->
     <g transform="translate(34.433125 166.454062)rotate(-90)scale(0.12 -0.12)">
      <defs>
       <path d="M 40.921875 0 
L 15.328125 55.71875 
L 15.328125 11.46875 
Q 15.328125 5.375 16.65625 3.859375 
Q 18.453125 1.8125 22.359375 1.8125 
L 24.703125 1.8125 
L 24.703125 0 
L 1.65625 0 
L 1.65625 1.8125 
L 4 1.8125 
Q 8.203125 1.8125 9.96875 4.34375 
Q 11.03125 5.90625 11.03125 11.46875 
L 11.03125 54.734375 
Q 11.03125 59.125 10.0625 61.078125 
Q 9.375 62.5 7.546875 63.453125 
Q 5.71875 64.40625 1.65625 64.40625 
L 1.65625 66.21875 
L 20.40625 66.21875 
L 44.4375 14.40625 
L 68.0625 66.21875 
L 86.8125 66.21875 
L 86.8125 64.40625 
L 84.515625 64.40625 
Q 80.28125 64.40625 78.515625 61.859375 
Q 77.4375 60.296875 77.4375 54.734375 
L 77.4375 11.46875 
Q 77.4375 5.375 78.8125 3.859375 
Q 80.609375 1.8125 84.515625 1.8125 
L 86.8125 1.8125 
L 86.8125 0 
L 58.6875 0 
L 58.6875 1.8125 
L 61.03125 1.8125 
Q 65.28125 1.8125 67 4.34375 
Q 68.0625 5.90625 68.0625 11.46875 
L 68.0625 55.71875 
L 42.53125 0 
z
" id="TimesNewRomanPSMT-77"/>
       <path d="M 45.84375 67.71875 
L 45.84375 44.828125 
L 44.046875 44.828125 
Q 43.171875 51.421875 40.890625 55.328125 
Q 38.625 59.234375 34.421875 61.515625 
Q 30.21875 63.8125 25.734375 63.8125 
Q 20.65625 63.8125 17.328125 60.71875 
Q 14.015625 57.625 14.015625 53.65625 
Q 14.015625 50.640625 16.109375 48.140625 
Q 19.140625 44.484375 30.515625 38.375 
Q 39.796875 33.40625 43.1875 30.734375 
Q 46.578125 28.078125 48.40625 24.453125 
Q 50.25 20.84375 50.25 16.890625 
Q 50.25 9.375 44.40625 3.921875 
Q 38.578125 -1.515625 29.390625 -1.515625 
Q 26.515625 -1.515625 23.96875 -1.078125 
Q 22.46875 -0.828125 17.703125 0.703125 
Q 12.9375 2.25 11.671875 2.25 
Q 10.453125 2.25 9.734375 1.515625 
Q 9.03125 0.78125 8.6875 -1.515625 
L 6.890625 -1.515625 
L 6.890625 21.1875 
L 8.6875 21.1875 
Q 9.96875 14.0625 12.109375 10.515625 
Q 14.265625 6.984375 18.671875 4.640625 
Q 23.09375 2.296875 28.375 2.296875 
Q 34.46875 2.296875 38 5.515625 
Q 41.546875 8.734375 41.546875 13.140625 
Q 41.546875 15.578125 40.203125 18.0625 
Q 38.875 20.5625 36.03125 22.703125 
Q 34.125 24.171875 25.625 28.921875 
Q 17.140625 33.6875 13.546875 36.515625 
Q 9.96875 39.359375 8.109375 42.765625 
Q 6.25 46.1875 6.25 50.296875 
Q 6.25 57.421875 11.71875 62.5625 
Q 17.1875 67.71875 25.640625 67.71875 
Q 30.90625 67.71875 36.8125 65.140625 
Q 39.546875 63.921875 40.671875 63.921875 
Q 41.9375 63.921875 42.75 64.671875 
Q 43.5625 65.4375 44.046875 67.71875 
z
" id="TimesNewRomanPSMT-83"/>
       <path d="M 20.90625 62.59375 
L 20.90625 36.421875 
L 35.453125 36.421875 
Q 41.109375 36.421875 43.015625 38.140625 
Q 45.5625 40.375 45.84375 46.046875 
L 47.65625 46.046875 
L 47.65625 23 
L 45.84375 23 
Q 45.171875 27.828125 44.484375 29.203125 
Q 43.609375 30.90625 41.59375 31.875 
Q 39.59375 32.859375 35.453125 32.859375 
L 20.90625 32.859375 
L 20.90625 11.03125 
Q 20.90625 6.640625 21.296875 5.6875 
Q 21.6875 4.734375 22.65625 4.171875 
Q 23.640625 3.609375 26.375 3.609375 
L 37.59375 3.609375 
Q 43.21875 3.609375 45.75 4.390625 
Q 48.296875 5.171875 50.640625 7.46875 
Q 53.65625 10.5 56.84375 16.609375 
L 58.796875 16.609375 
L 53.078125 0 
L 2.046875 0 
L 2.046875 1.8125 
L 4.390625 1.8125 
Q 6.734375 1.8125 8.84375 2.9375 
Q 10.40625 3.71875 10.96875 5.28125 
Q 11.53125 6.84375 11.53125 11.671875 
L 11.53125 54.6875 
Q 11.53125 60.984375 10.25 62.453125 
Q 8.5 64.40625 4.390625 64.40625 
L 2.046875 64.40625 
L 2.046875 66.21875 
L 53.078125 66.21875 
L 53.8125 51.703125 
L 51.90625 51.703125 
Q 50.875 56.9375 49.625 58.890625 
Q 48.390625 60.84375 45.953125 61.859375 
Q 44 62.59375 39.0625 62.59375 
z
" id="TimesNewRomanPSMT-69"/>
       <path d="M 18.5 69.4375 
L 18.5 10.109375 
Q 18.5 5.90625 19.109375 4.53125 
Q 19.734375 3.171875 21 2.46875 
Q 22.265625 1.765625 25.734375 1.765625 
L 25.734375 0 
L 3.8125 0 
L 3.8125 1.765625 
Q 6.890625 1.765625 8 2.390625 
Q 9.125 3.03125 9.765625 4.484375 
Q 10.40625 5.953125 10.40625 10.109375 
L 10.40625 50.734375 
Q 10.40625 58.296875 10.0625 60.03125 
Q 9.71875 61.765625 8.953125 62.390625 
Q 8.203125 63.03125 7.03125 63.03125 
Q 5.765625 63.03125 3.8125 62.25 
L 2.984375 63.96875 
L 16.3125 69.4375 
z
" id="TimesNewRomanPSMT-108"/>
       <path d="M 25 46.046875 
Q 35.15625 46.046875 41.3125 38.328125 
Q 46.53125 31.734375 46.53125 23.1875 
Q 46.53125 17.1875 43.640625 11.03125 
Q 40.765625 4.890625 35.71875 1.75 
Q 30.671875 -1.375 24.46875 -1.375 
Q 14.359375 -1.375 8.40625 6.6875 
Q 3.375 13.484375 3.375 21.921875 
Q 3.375 28.078125 6.421875 34.15625 
Q 9.46875 40.234375 14.453125 43.140625 
Q 19.4375 46.046875 25 46.046875 
z
M 23.484375 42.875 
Q 20.90625 42.875 18.28125 41.328125 
Q 15.671875 39.796875 14.0625 35.9375 
Q 12.453125 32.078125 12.453125 26.03125 
Q 12.453125 16.265625 16.328125 9.171875 
Q 20.21875 2.09375 26.5625 2.09375 
Q 31.296875 2.09375 34.375 6 
Q 37.453125 9.90625 37.453125 19.4375 
Q 37.453125 31.34375 32.328125 38.1875 
Q 28.859375 42.875 23.484375 42.875 
z
" id="TimesNewRomanPSMT-111"/>
      </defs>
      <use xlink:href="#TimesNewRomanPSMT-77"/>
      <use x="88.916016" xlink:href="#TimesNewRomanPSMT-83"/>
      <use x="144.53125" xlink:href="#TimesNewRomanPSMT-69"/>
      <use x="205.615234" xlink:href="#TimesNewRomanPSMT-32"/>
      <use x="230.615234" xlink:href="#TimesNewRomanPSMT-108"/>
      <use x="258.398438" xlink:href="#TimesNewRomanPSMT-111"/>
      <use x="308.398438" xlink:href="#TimesNewRomanPSMT-115"/>
      <use x="347.314453" xlink:href="#TimesNewRomanPSMT-115"/>
     </g>
    </g>
   </g>
   <g id="line2d_15">
    <path clip-path="url(#pc73f0ae684)" d="M 69.218182 44.443636 
L 70.747647 79.751789 
L 72.277113 106.247683 
L 73.806578 124.289058 
L 75.336044 137.854559 
L 76.865509 148.6064 
L 78.394975 157.72404 
L 79.92444 165.488414 
L 81.453906 172.127133 
L 82.983371 178.008342 
L 86.042302 188.475741 
L 89.101233 196.918471 
L 90.630699 200.005372 
L 92.160164 202.618557 
L 93.68963 204.225628 
L 95.219095 206.714187 
L 98.278026 210.945705 
L 99.807492 213.241082 
L 101.336958 214.941183 
L 104.395889 217.420066 
L 107.45482 220.591301 
L 115.102147 226.473351 
L 116.631613 227.085281 
L 118.161078 228.172332 
L 119.690544 229.668989 
L 121.220009 230.843593 
L 124.27894 231.81282 
L 125.808406 232.473542 
L 127.337871 232.8637 
L 128.867337 233.096976 
L 130.396802 233.493639 
L 131.926268 234.014034 
L 136.514664 235.026789 
L 138.04413 235.122647 
L 141.103061 236.231408 
L 142.632526 236.428236 
L 144.161992 236.289825 
L 145.691457 237.003482 
L 148.750388 237.695553 
L 150.279854 237.271592 
L 151.809319 237.831595 
L 153.338785 237.764366 
L 156.397716 238.086018 
L 159.456647 237.856284 
L 160.986112 238.427154 
L 162.515578 238.595474 
L 164.045043 238.169097 
L 165.574509 238.785478 
L 167.103974 238.958123 
L 168.63344 238.592829 
L 170.162905 238.718785 
L 171.692371 238.988619 
L 173.221836 239.01972 
L 176.280767 239.417112 
L 177.810233 239.318615 
L 179.339698 238.317668 
L 180.869164 239.442498 
L 182.39863 239.512362 
L 183.928095 239.440801 
L 185.457561 238.999268 
L 190.045957 240.222209 
L 191.575423 240.464859 
L 193.104888 239.889311 
L 194.634354 240.393552 
L 197.693285 240.431537 
L 200.752216 240.738534 
L 202.281681 240.642736 
L 205.340612 240.143376 
L 206.870078 240.434662 
L 208.399543 240.54365 
L 209.929009 240.416621 
L 211.458474 240.419439 
L 212.98794 240.256143 
L 214.517405 240.733238 
L 216.046871 241.016296 
L 220.635267 241.274413 
L 222.164733 240.963268 
L 223.694198 239.921092 
L 226.753129 240.995265 
L 228.282595 241.331916 
L 229.81206 241.462069 
L 232.870991 241.117244 
L 234.400457 241.386144 
L 235.929922 241.136552 
L 237.459388 241.452862 
L 238.988853 241.546366 
L 240.518319 241.486268 
L 243.57725 240.981129 
L 245.106715 241.483332 
L 246.636181 241.606517 
L 248.165646 241.463618 
L 249.695112 241.177355 
L 251.224577 241.473958 
L 255.812974 241.716284 
L 257.342439 241.675883 
L 260.40137 241.225198 
L 261.930836 240.03329 
L 263.460302 241.648175 
L 264.989767 241.877213 
L 266.519233 241.508616 
L 268.048698 241.685286 
L 269.578164 241.696842 
L 271.107629 241.401916 
L 272.637095 241.770794 
L 274.16656 241.374696 
L 275.696026 241.692679 
L 277.225491 240.614727 
L 280.284422 241.663761 
L 281.813888 241.872212 
L 283.343353 241.962521 
L 284.872819 241.707404 
L 286.402284 241.888724 
L 287.93175 240.930972 
L 289.461215 241.490978 
L 290.990681 241.773367 
L 292.520146 241.544566 
L 295.579077 241.838831 
L 297.108543 241.811404 
L 298.638008 241.21752 
L 300.167474 241.219565 
L 301.696939 241.911354 
L 303.226405 241.99227 
L 306.285336 241.896966 
L 307.814801 241.928942 
L 313.932663 241.420098 
L 315.462129 241.033614 
L 316.991594 241.743719 
L 318.52106 241.732118 
L 320.050525 242.002781 
L 321.579991 242.054173 
L 326.168387 241.414159 
L 327.697853 241.468905 
L 329.227318 241.747854 
L 330.756784 241.882642 
L 333.815715 241.835273 
L 335.34518 241.737664 
L 336.874646 241.812261 
L 339.933577 241.755158 
L 341.463042 241.44587 
L 344.521974 241.884427 
L 347.580905 241.923848 
L 349.11037 241.651969 
L 353.698767 242.029781 
L 355.228232 241.970881 
L 356.757698 241.38776 
L 358.287163 241.882536 
L 359.816629 241.123787 
L 361.346094 241.972659 
L 362.87556 241.835919 
L 364.405025 241.888273 
L 367.463956 242.116364 
L 368.993422 241.932349 
L 370.522887 242.114285 
L 372.052353 241.991784 
L 373.581818 242.017876 
L 373.581818 242.017876 
" style="fill:none;stroke:#1f77b4;stroke-linecap:square;stroke-width:1.5;"/>
   </g>
   <g id="line2d_16">
    <path clip-path="url(#pc73f0ae684)" d="M 69.218182 152.279221 
L 70.747647 169.001484 
L 72.277113 178.402788 
L 73.806578 183.908321 
L 75.336044 188.465137 
L 76.865509 192.544754 
L 78.394975 195.746189 
L 79.92444 198.257148 
L 81.453906 200.18748 
L 82.983371 202.595615 
L 84.512837 204.436544 
L 87.571768 207.093324 
L 89.101233 208.185318 
L 90.630699 209.507519 
L 92.160164 210.365642 
L 93.68963 212.051213 
L 95.219095 211.853029 
L 96.748561 213.390735 
L 98.278026 215.43026 
L 99.807492 215.389506 
L 104.395889 216.60114 
L 105.925354 216.313283 
L 107.45482 216.481486 
L 108.984285 218.738579 
L 110.513751 220.538415 
L 112.043216 218.635387 
L 113.572682 219.907566 
L 115.102147 221.737918 
L 116.631613 221.595275 
L 118.161078 221.960716 
L 119.690544 220.601069 
L 121.220009 219.834013 
L 122.749475 220.999695 
L 124.27894 223.971829 
L 125.808406 223.675147 
L 127.337871 224.927061 
L 128.867337 224.387366 
L 130.396802 224.377152 
L 131.926268 226.152008 
L 133.455733 227.272196 
L 134.985199 226.474539 
L 136.514664 224.955813 
L 138.04413 226.199966 
L 139.573595 228.064648 
L 141.103061 227.246914 
L 142.632526 225.229695 
L 144.161992 227.448707 
L 145.691457 226.780674 
L 147.220923 228.495654 
L 148.750388 226.635145 
L 150.279854 229.136101 
L 151.809319 229.243611 
L 153.338785 226.996268 
L 154.86825 226.992485 
L 156.397716 230.399802 
L 157.927181 227.008435 
L 159.456647 229.897692 
L 160.986112 229.372767 
L 162.515578 229.802902 
L 165.574509 229.589786 
L 167.103974 229.807695 
L 168.63344 230.274951 
L 170.162905 229.928145 
L 171.692371 229.269036 
L 173.221836 229.758312 
L 174.751302 229.82792 
L 176.280767 229.688109 
L 177.810233 230.599863 
L 179.339698 230.575592 
L 180.869164 230.689152 
L 182.39863 231.556062 
L 183.928095 230.397726 
L 185.457561 230.265474 
L 186.987026 230.283081 
L 188.516492 230.942971 
L 190.045957 232.004681 
L 191.575423 231.382377 
L 193.104888 231.561242 
L 196.163819 232.28612 
L 197.693285 232.089494 
L 199.22275 232.860018 
L 202.281681 232.384926 
L 203.811147 231.712074 
L 205.340612 231.864457 
L 206.870078 231.64161 
L 208.399543 231.624282 
L 209.929009 230.763298 
L 211.458474 232.054795 
L 212.98794 230.230199 
L 214.517405 232.277041 
L 217.576336 232.686175 
L 219.105802 232.624846 
L 220.635267 233.128021 
L 222.164733 230.765367 
L 223.694198 232.073494 
L 225.223664 230.92207 
L 226.753129 233.491184 
L 228.282595 233.251264 
L 229.81206 232.504201 
L 231.341526 232.499712 
L 232.870991 232.637503 
L 234.400457 232.14387 
L 235.929922 232.553207 
L 237.459388 232.817712 
L 238.988853 232.263583 
L 240.518319 233.369854 
L 242.047784 229.137907 
L 243.57725 232.652595 
L 245.106715 233.985506 
L 246.636181 232.737414 
L 248.165646 232.655054 
L 249.695112 230.189323 
L 251.224577 232.960859 
L 252.754043 233.118371 
L 254.283508 233.583081 
L 255.812974 233.590966 
L 257.342439 231.728808 
L 258.871905 233.784513 
L 260.40137 232.968303 
L 261.930836 232.949761 
L 263.460302 233.826595 
L 264.989767 234.3911 
L 266.519233 234.098847 
L 268.048698 234.418614 
L 269.578164 233.527046 
L 272.637095 233.909084 
L 274.16656 234.325647 
L 275.696026 233.034141 
L 277.225491 232.388352 
L 278.754957 234.330259 
L 280.284422 234.45267 
L 281.813888 235.027904 
L 283.343353 233.894017 
L 284.872819 235.008214 
L 286.402284 234.909061 
L 287.93175 234.157611 
L 289.461215 234.691294 
L 290.990681 234.407281 
L 292.520146 233.914156 
L 294.049612 234.725072 
L 295.579077 234.997633 
L 297.108543 233.733517 
L 298.638008 233.831547 
L 300.167474 233.098983 
L 301.696939 234.287111 
L 304.75587 234.531099 
L 306.285336 234.411877 
L 307.814801 233.672165 
L 309.344267 234.927808 
L 310.873732 234.372453 
L 313.932663 233.818553 
L 315.462129 232.88146 
L 316.991594 234.131947 
L 318.52106 233.615727 
L 320.050525 235.025728 
L 321.579991 235.558475 
L 323.109456 234.319368 
L 324.638922 233.577084 
L 326.168387 232.124827 
L 327.697853 233.474144 
L 329.227318 235.152353 
L 330.756784 235.796463 
L 332.286249 234.595854 
L 333.815715 235.020926 
L 335.34518 233.060331 
L 336.874646 234.29841 
L 338.404111 235.020167 
L 339.933577 233.176502 
L 341.463042 233.679078 
L 342.992508 235.390968 
L 344.521974 234.702546 
L 346.051439 234.54589 
L 347.580905 234.913461 
L 349.11037 234.009456 
L 350.639836 235.211484 
L 352.169301 235.236864 
L 353.698767 235.825035 
L 355.228232 234.789205 
L 356.757698 234.043689 
L 358.287163 232.830542 
L 359.816629 233.686162 
L 361.346094 234.131497 
L 362.87556 235.330503 
L 364.405025 233.140018 
L 365.934491 235.770214 
L 367.463956 236.026637 
L 368.993422 235.288772 
L 370.522887 235.002122 
L 372.052353 234.383405 
L 373.581818 234.960239 
L 373.581818 234.960239 
" style="fill:none;stroke:#ff7f0e;stroke-linecap:square;stroke-width:1.5;"/>
   </g>
   <g id="patch_3">
    <path d="M 54 252 
L 54 34.56 
" style="fill:none;stroke:#000000;stroke-linecap:square;stroke-linejoin:miter;stroke-width:0.8;"/>
   </g>
   <g id="patch_4">
    <path d="M 388.8 252 
L 388.8 34.56 
" style="fill:none;stroke:#000000;stroke-linecap:square;stroke-linejoin:miter;stroke-width:0.8;"/>
   </g>
   <g id="patch_5">
    <path d="M 54 252 
L 388.8 252 
" style="fill:none;stroke:#000000;stroke-linecap:square;stroke-linejoin:miter;stroke-width:0.8;"/>
   </g>
   <g id="patch_6">
    <path d="M 54 34.56 
L 388.8 34.56 
" style="fill:none;stroke:#000000;stroke-linecap:square;stroke-linejoin:miter;stroke-width:0.8;"/>
   </g>
   <g id="legend_1">
    <g id="patch_7">
     <path d="M 297.995625 78.09375 
L 380.4 78.09375 
Q 382.8 78.09375 382.8 75.69375 
L 382.8 42.96 
Q 382.8 40.56 380.4 40.56 
L 297.995625 40.56 
Q 295.595625 40.56 295.595625 42.96 
L 295.595625 75.69375 
Q 295.595625 78.09375 297.995625 78.09375 
z
" style="fill:#ffffff;opacity:0.8;stroke:#cccccc;stroke-linejoin:miter;"/>
    </g>
    <g id="line2d_17">
     <path d="M 300.395625 49.56 
L 324.395625 49.56 
" style="fill:none;stroke:#1f77b4;stroke-linecap:square;stroke-width:1.5;"/>
    </g>
    <g id="line2d_18"/>
    <g id="text_17">
     <!-- trainloss -->
     <g transform="translate(333.995625 53.76)scale(0.12 -0.12)">
      <defs>
       <path d="M 21.484375 62.359375 
L 21.484375 45.65625 
L 32.328125 45.65625 
L 32.328125 40.828125 
L 21.484375 40.828125 
L 21.484375 12.640625 
Q 21.484375 8.6875 21.84375 7.53125 
Q 22.21875 6.390625 23.140625 5.6875 
Q 24.078125 4.984375 24.859375 4.984375 
Q 28.03125 4.984375 30.859375 9.8125 
L 32.328125 8.734375 
Q 28.375 -0.640625 19.484375 -0.640625 
Q 15.140625 -0.640625 12.125 1.78125 
Q 9.125 4.203125 8.296875 7.171875 
Q 7.8125 8.84375 7.8125 16.15625 
L 7.8125 40.828125 
L 1.859375 40.828125 
L 1.859375 42.53125 
Q 8.015625 46.875 12.328125 51.65625 
Q 16.65625 56.453125 19.875 62.359375 
z
" id="TimesNewRomanPS-BoldMT-116"/>
       <path d="M 22.3125 45.65625 
L 22.3125 35.296875 
Q 26.859375 42.390625 30.265625 44.703125 
Q 33.6875 47.015625 36.859375 47.015625 
Q 39.59375 47.015625 41.234375 45.328125 
Q 42.875 43.65625 42.875 40.578125 
Q 42.875 37.3125 41.28125 35.5 
Q 39.703125 33.6875 37.453125 33.6875 
Q 34.859375 33.6875 32.953125 35.34375 
Q 31.0625 37.015625 30.71875 37.203125 
Q 30.21875 37.5 29.59375 37.5 
Q 28.171875 37.5 26.90625 36.421875 
Q 24.90625 34.765625 23.875 31.6875 
Q 22.3125 26.953125 22.3125 21.234375 
L 22.3125 10.75 
L 22.359375 8.015625 
Q 22.359375 5.21875 22.703125 4.4375 
Q 23.296875 3.125 24.4375 2.515625 
Q 25.59375 1.90625 28.328125 1.765625 
L 28.328125 0 
L 3.65625 0 
L 3.65625 1.765625 
Q 6.640625 2 7.6875 3.390625 
Q 8.734375 4.78125 8.734375 10.75 
L 8.734375 35.984375 
Q 8.734375 39.890625 8.34375 40.96875 
Q 7.859375 42.328125 6.921875 42.96875 
Q 6 43.609375 3.65625 43.84375 
L 3.65625 45.65625 
z
" id="TimesNewRomanPS-BoldMT-114"/>
       <path d="M 28.5625 6.734375 
Q 20.21875 -0.640625 13.578125 -0.640625 
Q 9.671875 -0.640625 7.078125 1.921875 
Q 4.5 4.5 4.5 8.34375 
Q 4.5 13.578125 8.984375 17.75 
Q 13.484375 21.921875 28.5625 28.859375 
L 28.5625 33.453125 
Q 28.5625 38.625 28 39.96875 
Q 27.4375 41.3125 25.875 42.3125 
Q 24.3125 43.3125 22.359375 43.3125 
Q 19.1875 43.3125 17.140625 41.890625 
Q 15.875 41.015625 15.875 39.84375 
Q 15.875 38.8125 17.234375 37.3125 
Q 19.09375 35.203125 19.09375 33.25 
Q 19.09375 30.859375 17.3125 29.171875 
Q 15.53125 27.484375 12.640625 27.484375 
Q 9.578125 27.484375 7.5 29.34375 
Q 5.421875 31.203125 5.421875 33.6875 
Q 5.421875 37.203125 8.203125 40.40625 
Q 10.984375 43.609375 15.96875 45.3125 
Q 20.953125 47.015625 26.3125 47.015625 
Q 32.8125 47.015625 36.59375 44.25 
Q 40.375 41.5 41.5 38.28125 
Q 42.1875 36.234375 42.1875 28.859375 
L 42.1875 11.140625 
Q 42.1875 8.015625 42.421875 7.203125 
Q 42.671875 6.390625 43.15625 6 
Q 43.65625 5.609375 44.28125 5.609375 
Q 45.5625 5.609375 46.875 7.421875 
L 48.34375 6.25 
Q 45.90625 2.640625 43.28125 1 
Q 40.671875 -0.640625 37.359375 -0.640625 
Q 33.453125 -0.640625 31.25 1.1875 
Q 29.046875 3.03125 28.5625 6.734375 
z
M 28.5625 10.296875 
L 28.5625 25.59375 
Q 22.65625 22.125 19.78125 18.171875 
Q 17.875 15.53125 17.875 12.84375 
Q 17.875 10.59375 19.484375 8.890625 
Q 20.703125 7.5625 22.90625 7.5625 
Q 25.34375 7.5625 28.5625 10.296875 
z
" id="TimesNewRomanPS-BoldMT-97"/>
       <path d="M 14.359375 67.78125 
Q 17.53125 67.78125 19.71875 65.546875 
Q 21.921875 63.328125 21.921875 60.203125 
Q 21.921875 57.078125 19.703125 54.875 
Q 17.484375 52.6875 14.359375 52.6875 
Q 11.234375 52.6875 9.03125 54.875 
Q 6.84375 57.078125 6.84375 60.203125 
Q 6.84375 63.328125 9.03125 65.546875 
Q 11.234375 67.78125 14.359375 67.78125 
z
M 21.1875 45.65625 
L 21.1875 9.46875 
Q 21.1875 4.640625 22.3125 3.296875 
Q 23.4375 1.953125 26.703125 1.765625 
L 26.703125 0 
L 2.046875 0 
L 2.046875 1.765625 
Q 5.078125 1.859375 6.546875 3.515625 
Q 7.515625 4.640625 7.515625 9.46875 
L 7.515625 36.140625 
Q 7.515625 40.96875 6.390625 42.3125 
Q 5.28125 43.65625 2.046875 43.84375 
L 2.046875 45.65625 
z
" id="TimesNewRomanPS-BoldMT-105"/>
       <path d="M 22.015625 45.65625 
L 22.015625 39.75 
Q 25.53125 43.5625 28.75 45.28125 
Q 31.984375 47.015625 35.6875 47.015625 
Q 40.140625 47.015625 43.0625 44.546875 
Q 46 42.09375 46.96875 38.421875 
Q 47.75 35.640625 47.75 27.734375 
L 47.75 9.96875 
Q 47.75 4.6875 48.703125 3.390625 
Q 49.65625 2.09375 52.6875 1.765625 
L 52.6875 0 
L 29.59375 0 
L 29.59375 1.765625 
Q 32.171875 2.09375 33.296875 3.90625 
Q 34.078125 5.125 34.078125 9.96875 
L 34.078125 30.28125 
Q 34.078125 35.890625 33.640625 37.34375 
Q 33.203125 38.8125 32.15625 39.625 
Q 31.109375 40.4375 29.828125 40.4375 
Q 25.640625 40.4375 22.015625 34.421875 
L 22.015625 9.96875 
Q 22.015625 4.828125 22.96875 3.453125 
Q 23.921875 2.09375 26.515625 1.765625 
L 26.515625 0 
L 3.421875 0 
L 3.421875 1.765625 
Q 6.296875 2.046875 7.515625 3.609375 
Q 8.34375 4.6875 8.34375 9.96875 
L 8.34375 35.75 
Q 8.34375 40.921875 7.390625 42.1875 
Q 6.453125 43.453125 3.421875 43.84375 
L 3.421875 45.65625 
z
" id="TimesNewRomanPS-BoldMT-110"/>
       <path d="M 21.234375 66.21875 
L 21.234375 9.46875 
Q 21.234375 4.640625 22.359375 3.296875 
Q 23.484375 1.953125 26.765625 1.765625 
L 26.765625 0 
L 2.09375 0 
L 2.09375 1.765625 
Q 5.125 1.859375 6.59375 3.515625 
Q 7.5625 4.640625 7.5625 9.46875 
L 7.5625 56.734375 
Q 7.5625 61.53125 6.4375 62.859375 
Q 5.328125 64.203125 2.09375 64.40625 
L 2.09375 66.21875 
z
" id="TimesNewRomanPS-BoldMT-108"/>
       <path d="M 24.90625 47.015625 
Q 30.859375 47.015625 35.984375 43.9375 
Q 41.109375 40.875 43.765625 35.203125 
Q 46.4375 29.546875 46.4375 22.796875 
Q 46.4375 13.09375 41.5 6.546875 
Q 35.546875 -1.375 25.046875 -1.375 
Q 14.75 -1.375 9.171875 5.859375 
Q 3.609375 13.09375 3.609375 22.609375 
Q 3.609375 32.421875 9.296875 39.71875 
Q 14.984375 47.015625 24.90625 47.015625 
z
M 25.09375 43.5625 
Q 22.609375 43.5625 20.828125 41.671875 
Q 19.046875 39.796875 18.484375 34.25 
Q 17.921875 28.71875 17.921875 18.84375 
Q 17.921875 13.625 18.609375 9.078125 
Q 19.140625 5.609375 20.890625 3.796875 
Q 22.65625 2 24.90625 2 
Q 27.09375 2 28.5625 3.21875 
Q 30.46875 4.890625 31.109375 7.859375 
Q 32.078125 12.5 32.078125 26.609375 
Q 32.078125 34.90625 31.140625 38 
Q 30.21875 41.109375 28.421875 42.53125 
Q 27.15625 43.5625 25.09375 43.5625 
z
" id="TimesNewRomanPS-BoldMT-111"/>
       <path d="M 32.234375 46.921875 
L 32.953125 31.34375 
L 31.296875 31.34375 
Q 28.328125 38.28125 25.125 40.8125 
Q 21.921875 43.359375 18.75 43.359375 
Q 16.75 43.359375 15.328125 42.015625 
Q 13.921875 40.671875 13.921875 38.921875 
Q 13.921875 37.59375 14.890625 36.375 
Q 16.453125 34.375 23.625 29.515625 
Q 30.8125 24.65625 33.078125 21.265625 
Q 35.359375 17.875 35.359375 13.671875 
Q 35.359375 9.859375 33.453125 6.203125 
Q 31.546875 2.546875 28.078125 0.578125 
Q 24.609375 -1.375 20.40625 -1.375 
Q 17.140625 -1.375 11.671875 0.6875 
Q 10.203125 1.21875 9.671875 1.21875 
Q 8.0625 1.21875 6.984375 -1.21875 
L 5.375 -1.21875 
L 4.59375 15.1875 
L 6.25 15.1875 
Q 8.453125 8.734375 12.28125 5.515625 
Q 16.109375 2.296875 19.53125 2.296875 
Q 21.875 2.296875 23.359375 3.734375 
Q 24.859375 5.171875 24.859375 7.234375 
Q 24.859375 9.578125 23.390625 11.28125 
Q 21.921875 12.984375 16.84375 16.453125 
Q 9.375 21.625 7.171875 24.359375 
Q 3.953125 28.375 3.953125 33.203125 
Q 3.953125 38.484375 7.59375 42.75 
Q 11.234375 47.015625 18.109375 47.015625 
Q 21.828125 47.015625 25.296875 45.21875 
Q 26.609375 44.484375 27.4375 44.484375 
Q 28.328125 44.484375 28.859375 44.84375 
Q 29.390625 45.21875 30.5625 46.921875 
z
" id="TimesNewRomanPS-BoldMT-115"/>
      </defs>
      <use xlink:href="#TimesNewRomanPS-BoldMT-116"/>
      <use x="33.300781" xlink:href="#TimesNewRomanPS-BoldMT-114"/>
      <use x="77.685547" xlink:href="#TimesNewRomanPS-BoldMT-97"/>
      <use x="127.685547" xlink:href="#TimesNewRomanPS-BoldMT-105"/>
      <use x="155.46875" xlink:href="#TimesNewRomanPS-BoldMT-110"/>
      <use x="211.083984" xlink:href="#TimesNewRomanPS-BoldMT-108"/>
      <use x="238.867188" xlink:href="#TimesNewRomanPS-BoldMT-111"/>
      <use x="288.867188" xlink:href="#TimesNewRomanPS-BoldMT-115"/>
      <use x="327.783203" xlink:href="#TimesNewRomanPS-BoldMT-115"/>
     </g>
    </g>
    <g id="line2d_19">
     <path d="M 300.395625 66.526875 
L 324.395625 66.526875 
" style="fill:none;stroke:#ff7f0e;stroke-linecap:square;stroke-width:1.5;"/>
    </g>
    <g id="line2d_20"/>
    <g id="text_18">
     <!-- testloss -->
     <g transform="translate(333.995625 70.726875)scale(0.12 -0.12)">
      <defs>
       <path d="M 42.046875 24.46875 
L 17 24.46875 
Q 17.4375 15.375 21.828125 10.109375 
Q 25.203125 6.0625 29.9375 6.0625 
Q 32.859375 6.0625 35.25 7.6875 
Q 37.640625 9.328125 40.375 13.578125 
L 42.046875 12.5 
Q 38.328125 4.9375 33.828125 1.78125 
Q 29.34375 -1.375 23.4375 -1.375 
Q 13.28125 -1.375 8.0625 6.453125 
Q 3.859375 12.75 3.859375 22.078125 
Q 3.859375 33.5 10.03125 40.25 
Q 16.21875 47.015625 24.515625 47.015625 
Q 31.453125 47.015625 36.546875 41.328125 
Q 41.65625 35.640625 42.046875 24.46875 
z
M 30.03125 27.734375 
Q 30.03125 35.59375 29.171875 38.515625 
Q 28.328125 41.453125 26.515625 42.96875 
Q 25.484375 43.84375 23.78125 43.84375 
Q 21.234375 43.84375 19.625 41.359375 
Q 16.75 37.015625 16.75 29.4375 
L 16.75 27.734375 
z
" id="TimesNewRomanPS-BoldMT-101"/>
      </defs>
      <use xlink:href="#TimesNewRomanPS-BoldMT-116"/>
      <use x="33.300781" xlink:href="#TimesNewRomanPS-BoldMT-101"/>
      <use x="77.685547" xlink:href="#TimesNewRomanPS-BoldMT-115"/>
      <use x="116.601562" xlink:href="#TimesNewRomanPS-BoldMT-116"/>
      <use x="149.902344" xlink:href="#TimesNewRomanPS-BoldMT-108"/>
      <use x="177.685547" xlink:href="#TimesNewRomanPS-BoldMT-111"/>
      <use x="227.685547" xlink:href="#TimesNewRomanPS-BoldMT-115"/>
      <use x="266.601562" xlink:href="#TimesNewRomanPS-BoldMT-115"/>
     </g>
    </g>
   </g>
  </g>
 </g>
 <defs>
  <clipPath id="pc73f0ae684">
   <rect height="217.44" width="334.8" x="54" y="34.56"/>
  </clipPath>
 </defs>
</svg>
