<?xml version="1.0" encoding="utf-8" standalone="no"?>
<!DOCTYPE svg PUBLIC "-//W3C//DTD SVG 1.1//EN"
  "http://www.w3.org/Graphics/SVG/1.1/DTD/svg11.dtd">
<!-- Created with matplotlib (https://matplotlib.org/) -->
<svg height="288pt" version="1.1" viewBox="0 0 432 288" width="432pt" xmlns="http://www.w3.org/2000/svg" xmlns:xlink="http://www.w3.org/1999/xlink">
 <metadata>
  <rdf:RDF xmlns:cc="http://creativecommons.org/ns#" xmlns:dc="http://purl.org/dc/elements/1.1/" xmlns:rdf="http://www.w3.org/1999/02/22-rdf-syntax-ns#">
   <cc:Work>
    <dc:type rdf:resource="http://purl.org/dc/dcmitype/StillImage"/>
    <dc:date>2021-05-26T09:57:25.057142</dc:date>
    <dc:format>image/svg+xml</dc:format>
    <dc:creator>
     <cc:Agent>
      <dc:title>Matplotlib v3.3.4, https://matplotlib.org/</dc:title>
     </cc:Agent>
    </dc:creator>
   </cc:Work>
  </rdf:RDF>
 </metadata>
 <defs>
  <style type="text/css">*{stroke-linecap:butt;stroke-linejoin:round;}</style>
 </defs>
 <g id="figure_1">
  <g id="patch_1">
   <path d="M 0 288 
L 432 288 
L 432 0 
L 0 0 
z
" style="fill:none;"/>
  </g>
  <g id="axes_1">
   <g id="patch_2">
    <path d="M 54 252 
L 388.8 252 
L 388.8 34.56 
L 54 34.56 
z
" style="fill:#ffffff;"/>
   </g>
   <g id="matplotlib.axis_1">
    <g id="xtick_1">
     <g id="line2d_1">
      <defs>
       <path d="M 0 0 
L 0 3.5 
" id="m43983921d2" style="stroke:#000000;stroke-width:0.8;"/>
      </defs>
      <g>
       <use style="stroke:#000000;stroke-width:0.8;" x="69.218182" xlink:href="#m43983921d2" y="252"/>
      </g>
     </g>
     <g id="text_1">
      <!-- 0 -->
      <g transform="translate(66.218182 266.94625)scale(0.12 -0.12)">
       <defs>
        <path d="M 46.34375 33.109375 
Q 46.34375 23.1875 43.5625 14.59375 
Q 41.890625 9.328125 39.078125 5.953125 
Q 36.28125 2.59375 32.71875 0.609375 
Q 29.15625 -1.375 24.953125 -1.375 
Q 20.171875 -1.375 16.3125 1.0625 
Q 12.453125 3.515625 9.46875 8.0625 
Q 7.328125 11.375 5.71875 16.890625 
Q 3.609375 24.359375 3.609375 32.328125 
Q 3.609375 43.109375 6.640625 52.15625 
Q 9.125 59.625 14.203125 63.59375 
Q 19.28125 67.578125 24.953125 67.578125 
Q 30.71875 67.578125 35.71875 63.640625 
Q 40.71875 59.71875 43.0625 53.078125 
Q 46.34375 43.953125 46.34375 33.109375 
z
M 31.296875 33.203125 
Q 31.296875 50.59375 31.109375 53.46875 
Q 30.609375 60.25 28.765625 62.640625 
Q 27.546875 64.203125 24.8125 64.203125 
Q 22.703125 64.203125 21.484375 63.03125 
Q 19.671875 61.328125 19.03125 57 
Q 18.40625 52.6875 18.40625 26.859375 
Q 18.40625 12.796875 19.390625 8.015625 
Q 20.125 4.546875 21.484375 3.375 
Q 22.859375 2.203125 25.09375 2.203125 
Q 27.546875 2.203125 28.765625 3.765625 
Q 30.8125 6.5 31.109375 12.203125 
z
" id="TimesNewRomanPS-BoldMT-48"/>
       </defs>
       <use xlink:href="#TimesNewRomanPS-BoldMT-48"/>
      </g>
     </g>
    </g>
    <g id="xtick_2">
     <g id="line2d_2">
      <g>
       <use style="stroke:#000000;stroke-width:0.8;" x="107.263636" xlink:href="#m43983921d2" y="252"/>
      </g>
     </g>
     <g id="text_2">
      <!-- 25 -->
      <g transform="translate(101.263636 266.94625)scale(0.12 -0.12)">
       <defs>
        <path d="M 41.40625 0 
L 2.4375 0 
L 2.4375 1.078125 
Q 20.359375 22.40625 24.1875 29.78125 
Q 28.03125 37.15625 28.03125 44.1875 
Q 28.03125 49.3125 24.859375 52.703125 
Q 21.6875 56.109375 17.09375 56.109375 
Q 9.578125 56.109375 5.421875 48.578125 
L 3.609375 49.21875 
Q 6.25 58.59375 11.625 63.078125 
Q 17 67.578125 24.03125 67.578125 
Q 29.046875 67.578125 33.203125 65.234375 
Q 37.359375 62.890625 39.703125 58.8125 
Q 42.046875 54.734375 42.046875 51.171875 
Q 42.046875 44.671875 38.421875 37.984375 
Q 33.5 28.953125 16.890625 12.796875 
L 31.203125 12.796875 
Q 36.46875 12.796875 38.0625 13.234375 
Q 39.65625 13.671875 40.671875 14.71875 
Q 41.703125 15.765625 43.359375 19.140625 
L 45.125 19.140625 
z
" id="TimesNewRomanPS-BoldMT-50"/>
        <path d="M 15.234375 66.21875 
L 46.234375 66.21875 
L 41.3125 53.609375 
L 15.234375 53.609375 
L 12.75 47.015625 
Q 29.59375 46.390625 38.671875 38.625 
Q 46.140625 32.234375 46.140625 22.703125 
Q 46.140625 16.609375 42.671875 10.765625 
Q 39.203125 4.9375 32.90625 1.78125 
Q 26.609375 -1.375 19.09375 -1.375 
Q 10.984375 -1.375 6.640625 1.65625 
Q 3.609375 3.8125 3.609375 6.546875 
Q 3.609375 8.640625 5.1875 10.25 
Q 6.78125 11.859375 8.890625 11.859375 
Q 10.796875 11.859375 12.75 11.078125 
Q 14.703125 10.296875 19.4375 6.984375 
Q 22.40625 4.9375 24.5625 4.15625 
Q 26.078125 3.5625 27.984375 3.5625 
Q 31.984375 3.5625 34.78125 6.484375 
Q 37.59375 9.421875 37.59375 13.53125 
Q 37.59375 22.125 29 27.484375 
Q 20.40625 32.859375 7.328125 32.859375 
Q 6 32.859375 3.375 32.8125 
z
" id="TimesNewRomanPS-BoldMT-53"/>
       </defs>
       <use xlink:href="#TimesNewRomanPS-BoldMT-50"/>
       <use x="50" xlink:href="#TimesNewRomanPS-BoldMT-53"/>
      </g>
     </g>
    </g>
    <g id="xtick_3">
     <g id="line2d_3">
      <g>
       <use style="stroke:#000000;stroke-width:0.8;" x="145.309091" xlink:href="#m43983921d2" y="252"/>
      </g>
     </g>
     <g id="text_3">
      <!-- 50 -->
      <g transform="translate(139.309091 266.94625)scale(0.12 -0.12)">
       <use xlink:href="#TimesNewRomanPS-BoldMT-53"/>
       <use x="50" xlink:href="#TimesNewRomanPS-BoldMT-48"/>
      </g>
     </g>
    </g>
    <g id="xtick_4">
     <g id="line2d_4">
      <g>
       <use style="stroke:#000000;stroke-width:0.8;" x="183.354545" xlink:href="#m43983921d2" y="252"/>
      </g>
     </g>
     <g id="text_4">
      <!-- 75 -->
      <g transform="translate(177.354545 266.94625)scale(0.12 -0.12)">
       <defs>
        <path d="M 17.71875 -1.375 
L 35.75 53.265625 
L 22.015625 53.265625 
Q 13.96875 53.265625 9.90625 51.171875 
Q 7.078125 49.703125 5.21875 45.65625 
L 3.375 45.65625 
L 8.15625 66.21875 
L 47.609375 66.21875 
L 25.390625 -1.375 
z
" id="TimesNewRomanPS-BoldMT-55"/>
       </defs>
       <use xlink:href="#TimesNewRomanPS-BoldMT-55"/>
       <use x="50" xlink:href="#TimesNewRomanPS-BoldMT-53"/>
      </g>
     </g>
    </g>
    <g id="xtick_5">
     <g id="line2d_5">
      <g>
       <use style="stroke:#000000;stroke-width:0.8;" x="221.4" xlink:href="#m43983921d2" y="252"/>
      </g>
     </g>
     <g id="text_5">
      <!-- 100 -->
      <g transform="translate(212.4 266.94625)scale(0.12 -0.12)">
       <defs>
        <path d="M 32.5625 67.578125 
L 32.5625 13.421875 
Q 32.5625 7.328125 33.09375 5.640625 
Q 33.640625 3.953125 35.34375 2.875 
Q 37.0625 1.8125 40.828125 1.8125 
L 42.328125 1.8125 
L 42.328125 0 
L 7.46875 0 
L 7.46875 1.8125 
L 9.234375 1.8125 
Q 13.484375 1.8125 15.28125 2.78125 
Q 17.09375 3.765625 17.71875 5.46875 
Q 18.359375 7.171875 18.359375 13.421875 
L 18.359375 47.75 
Q 18.359375 52.34375 17.921875 53.484375 
Q 17.484375 54.640625 16.28125 55.4375 
Q 15.09375 56.25 13.53125 56.25 
Q 11.03125 56.25 7.46875 54.6875 
L 6.59375 56.453125 
L 30.953125 67.578125 
z
" id="TimesNewRomanPS-BoldMT-49"/>
       </defs>
       <use xlink:href="#TimesNewRomanPS-BoldMT-49"/>
       <use x="50" xlink:href="#TimesNewRomanPS-BoldMT-48"/>
       <use x="100" xlink:href="#TimesNewRomanPS-BoldMT-48"/>
      </g>
     </g>
    </g>
    <g id="xtick_6">
     <g id="line2d_6">
      <g>
       <use style="stroke:#000000;stroke-width:0.8;" x="259.445455" xlink:href="#m43983921d2" y="252"/>
      </g>
     </g>
     <g id="text_6">
      <!-- 125 -->
      <g transform="translate(250.445455 266.94625)scale(0.12 -0.12)">
       <use xlink:href="#TimesNewRomanPS-BoldMT-49"/>
       <use x="50" xlink:href="#TimesNewRomanPS-BoldMT-50"/>
       <use x="100" xlink:href="#TimesNewRomanPS-BoldMT-53"/>
      </g>
     </g>
    </g>
    <g id="xtick_7">
     <g id="line2d_7">
      <g>
       <use style="stroke:#000000;stroke-width:0.8;" x="297.490909" xlink:href="#m43983921d2" y="252"/>
      </g>
     </g>
     <g id="text_7">
      <!-- 150 -->
      <g transform="translate(288.490909 266.94625)scale(0.12 -0.12)">
       <use xlink:href="#TimesNewRomanPS-BoldMT-49"/>
       <use x="50" xlink:href="#TimesNewRomanPS-BoldMT-53"/>
       <use x="100" xlink:href="#TimesNewRomanPS-BoldMT-48"/>
      </g>
     </g>
    </g>
    <g id="xtick_8">
     <g id="line2d_8">
      <g>
       <use style="stroke:#000000;stroke-width:0.8;" x="335.536364" xlink:href="#m43983921d2" y="252"/>
      </g>
     </g>
     <g id="text_8">
      <!-- 175 -->
      <g transform="translate(326.536364 266.94625)scale(0.12 -0.12)">
       <use xlink:href="#TimesNewRomanPS-BoldMT-49"/>
       <use x="50" xlink:href="#TimesNewRomanPS-BoldMT-55"/>
       <use x="100" xlink:href="#TimesNewRomanPS-BoldMT-53"/>
      </g>
     </g>
    </g>
    <g id="xtick_9">
     <g id="line2d_9">
      <g>
       <use style="stroke:#000000;stroke-width:0.8;" x="373.581818" xlink:href="#m43983921d2" y="252"/>
      </g>
     </g>
     <g id="text_9">
      <!-- 200 -->
      <g transform="translate(364.581818 266.94625)scale(0.12 -0.12)">
       <use xlink:href="#TimesNewRomanPS-BoldMT-50"/>
       <use x="50" xlink:href="#TimesNewRomanPS-BoldMT-48"/>
       <use x="100" xlink:href="#TimesNewRomanPS-BoldMT-48"/>
      </g>
     </g>
    </g>
    <g id="text_10">
     <!-- Training times -->
     <g transform="translate(186.450938 281.845625)scale(0.12 -0.12)">
      <defs>
       <path d="M 57.859375 66.21875 
L 58.59375 50.6875 
L 56.734375 50.6875 
Q 56.203125 54.78125 55.28125 56.546875 
Q 53.765625 59.375 51.25 60.71875 
Q 48.734375 62.0625 44.625 62.0625 
L 35.296875 62.0625 
L 35.296875 11.46875 
Q 35.296875 5.375 36.625 3.859375 
Q 38.484375 1.8125 42.328125 1.8125 
L 44.625 1.8125 
L 44.625 0 
L 16.546875 0 
L 16.546875 1.8125 
L 18.890625 1.8125 
Q 23.09375 1.8125 24.859375 4.34375 
Q 25.921875 5.90625 25.921875 11.46875 
L 25.921875 62.0625 
L 17.96875 62.0625 
Q 13.328125 62.0625 11.375 61.375 
Q 8.84375 60.453125 7.03125 57.8125 
Q 5.21875 55.171875 4.890625 50.6875 
L 3.03125 50.6875 
L 3.8125 66.21875 
z
" id="TimesNewRomanPSMT-84"/>
       <path d="M 16.21875 46.046875 
L 16.21875 35.984375 
Q 21.828125 46.046875 27.734375 46.046875 
Q 30.421875 46.046875 32.171875 44.40625 
Q 33.9375 42.78125 33.9375 40.625 
Q 33.9375 38.71875 32.65625 37.390625 
Q 31.390625 36.078125 29.640625 36.078125 
Q 27.9375 36.078125 25.8125 37.765625 
Q 23.6875 39.453125 22.65625 39.453125 
Q 21.78125 39.453125 20.75 38.484375 
Q 18.5625 36.46875 16.21875 31.890625 
L 16.21875 10.453125 
Q 16.21875 6.734375 17.140625 4.828125 
Q 17.78125 3.515625 19.390625 2.640625 
Q 21 1.765625 24.03125 1.765625 
L 24.03125 0 
L 1.125 0 
L 1.125 1.765625 
Q 4.546875 1.765625 6.203125 2.828125 
Q 7.421875 3.609375 7.90625 5.328125 
Q 8.15625 6.15625 8.15625 10.0625 
L 8.15625 27.390625 
Q 8.15625 35.203125 7.828125 36.6875 
Q 7.515625 38.1875 6.65625 38.859375 
Q 5.8125 39.546875 4.546875 39.546875 
Q 3.03125 39.546875 1.125 38.8125 
L 0.640625 40.578125 
L 14.15625 46.046875 
z
" id="TimesNewRomanPSMT-114"/>
       <path d="M 28.46875 6.453125 
Q 21.578125 1.125 19.828125 0.296875 
Q 17.1875 -0.921875 14.203125 -0.921875 
Q 9.578125 -0.921875 6.5625 2.25 
Q 3.5625 5.421875 3.5625 10.59375 
Q 3.5625 13.875 5.03125 16.265625 
Q 7.03125 19.578125 11.984375 22.5 
Q 16.9375 25.4375 28.46875 29.640625 
L 28.46875 31.390625 
Q 28.46875 38.09375 26.34375 40.578125 
Q 24.21875 43.0625 20.171875 43.0625 
Q 17.09375 43.0625 15.28125 41.40625 
Q 13.421875 39.75 13.421875 37.59375 
L 13.53125 34.765625 
Q 13.53125 32.515625 12.375 31.296875 
Q 11.234375 30.078125 9.375 30.078125 
Q 7.5625 30.078125 6.421875 31.34375 
Q 5.28125 32.625 5.28125 34.8125 
Q 5.28125 39.015625 9.578125 42.53125 
Q 13.875 46.046875 21.625 46.046875 
Q 27.59375 46.046875 31.390625 44.046875 
Q 34.28125 42.53125 35.640625 39.3125 
Q 36.53125 37.203125 36.53125 30.71875 
L 36.53125 15.53125 
Q 36.53125 9.125 36.765625 7.6875 
Q 37.015625 6.25 37.578125 5.765625 
Q 38.140625 5.28125 38.875 5.28125 
Q 39.65625 5.28125 40.234375 5.609375 
Q 41.265625 6.25 44.1875 9.1875 
L 44.1875 6.453125 
Q 38.71875 -0.875 33.734375 -0.875 
Q 31.34375 -0.875 29.921875 0.78125 
Q 28.515625 2.4375 28.46875 6.453125 
z
M 28.46875 9.625 
L 28.46875 26.65625 
Q 21.09375 23.734375 18.953125 22.515625 
Q 15.09375 20.359375 13.421875 18.015625 
Q 11.765625 15.671875 11.765625 12.890625 
Q 11.765625 9.375 13.859375 7.046875 
Q 15.96875 4.734375 18.703125 4.734375 
Q 22.40625 4.734375 28.46875 9.625 
z
" id="TimesNewRomanPSMT-97"/>
       <path d="M 14.5 69.4375 
Q 16.546875 69.4375 17.984375 67.984375 
Q 19.4375 66.546875 19.4375 64.5 
Q 19.4375 62.453125 17.984375 60.984375 
Q 16.546875 59.515625 14.5 59.515625 
Q 12.453125 59.515625 10.984375 60.984375 
Q 9.515625 62.453125 9.515625 64.5 
Q 9.515625 66.546875 10.953125 67.984375 
Q 12.40625 69.4375 14.5 69.4375 
z
M 18.5625 46.046875 
L 18.5625 10.109375 
Q 18.5625 5.90625 19.171875 4.515625 
Q 19.78125 3.125 20.96875 2.4375 
Q 22.171875 1.765625 25.34375 1.765625 
L 25.34375 0 
L 3.609375 0 
L 3.609375 1.765625 
Q 6.890625 1.765625 8 2.390625 
Q 9.125 3.03125 9.78125 4.484375 
Q 10.453125 5.953125 10.453125 10.109375 
L 10.453125 27.34375 
Q 10.453125 34.625 10.015625 36.765625 
Q 9.671875 38.328125 8.9375 38.9375 
Q 8.203125 39.546875 6.9375 39.546875 
Q 5.5625 39.546875 3.609375 38.8125 
L 2.9375 40.578125 
L 16.40625 46.046875 
z
" id="TimesNewRomanPSMT-105"/>
       <path d="M 16.15625 36.578125 
Q 24.03125 46.046875 31.15625 46.046875 
Q 34.8125 46.046875 37.453125 44.21875 
Q 40.09375 42.390625 41.65625 38.1875 
Q 42.71875 35.25 42.71875 29.203125 
L 42.71875 10.109375 
Q 42.71875 5.859375 43.40625 4.34375 
Q 43.953125 3.125 45.140625 2.4375 
Q 46.34375 1.765625 49.5625 1.765625 
L 49.5625 0 
L 27.4375 0 
L 27.4375 1.765625 
L 28.375 1.765625 
Q 31.5 1.765625 32.734375 2.703125 
Q 33.984375 3.65625 34.46875 5.515625 
Q 34.671875 6.25 34.671875 10.109375 
L 34.671875 28.421875 
Q 34.671875 34.515625 33.078125 37.28125 
Q 31.5 40.046875 27.734375 40.046875 
Q 21.921875 40.046875 16.15625 33.6875 
L 16.15625 10.109375 
Q 16.15625 5.5625 16.703125 4.5 
Q 17.390625 3.078125 18.578125 2.421875 
Q 19.78125 1.765625 23.4375 1.765625 
L 23.4375 0 
L 1.3125 0 
L 1.3125 1.765625 
L 2.296875 1.765625 
Q 5.71875 1.765625 6.90625 3.484375 
Q 8.109375 5.21875 8.109375 10.109375 
L 8.109375 26.703125 
Q 8.109375 34.765625 7.734375 36.515625 
Q 7.375 38.28125 6.609375 38.90625 
Q 5.859375 39.546875 4.59375 39.546875 
Q 3.21875 39.546875 1.3125 38.8125 
L 0.59375 40.578125 
L 14.0625 46.046875 
L 16.15625 46.046875 
z
" id="TimesNewRomanPSMT-110"/>
       <path d="M 15.09375 16.3125 
Q 10.984375 18.3125 8.78125 21.890625 
Q 6.59375 25.484375 6.59375 29.828125 
Q 6.59375 36.46875 11.59375 41.25 
Q 16.609375 46.046875 24.421875 46.046875 
Q 30.8125 46.046875 35.5 42.921875 
L 44.96875 42.921875 
Q 47.078125 42.921875 47.40625 42.796875 
Q 47.75 42.671875 47.90625 42.390625 
Q 48.1875 41.9375 48.1875 40.828125 
Q 48.1875 39.546875 47.953125 39.0625 
Q 47.796875 38.8125 47.4375 38.671875 
Q 47.078125 38.53125 44.96875 38.53125 
L 39.15625 38.53125 
Q 41.890625 35.015625 41.890625 29.546875 
Q 41.890625 23.296875 37.109375 18.84375 
Q 32.328125 14.40625 24.265625 14.40625 
Q 20.953125 14.40625 17.484375 15.375 
Q 15.328125 13.53125 14.5625 12.140625 
Q 13.8125 10.75 13.8125 9.765625 
Q 13.8125 8.9375 14.625 8.15625 
Q 15.4375 7.375 17.78125 7.03125 
Q 19.140625 6.84375 24.609375 6.6875 
Q 34.671875 6.453125 37.640625 6 
Q 42.1875 5.375 44.890625 2.640625 
Q 47.609375 -0.09375 47.609375 -4.109375 
Q 47.609375 -9.625 42.4375 -14.453125 
Q 34.8125 -21.578125 22.5625 -21.578125 
Q 13.140625 -21.578125 6.640625 -17.328125 
Q 2.984375 -14.890625 2.984375 -12.25 
Q 2.984375 -11.078125 3.515625 -9.90625 
Q 4.34375 -8.109375 6.9375 -4.890625 
Q 7.28125 -4.4375 11.921875 0.390625 
Q 9.375 1.90625 8.328125 3.09375 
Q 7.28125 4.296875 7.28125 5.8125 
Q 7.28125 7.515625 8.671875 9.8125 
Q 10.0625 12.109375 15.09375 16.3125 
z
M 23.578125 43.703125 
Q 19.96875 43.703125 17.53125 40.8125 
Q 15.09375 37.9375 15.09375 31.984375 
Q 15.09375 24.265625 18.40625 20.015625 
Q 20.953125 16.796875 24.859375 16.796875 
Q 28.5625 16.796875 30.953125 19.578125 
Q 33.34375 22.359375 33.34375 28.328125 
Q 33.34375 36.078125 29.984375 40.484375 
Q 27.484375 43.703125 23.578125 43.703125 
z
M 14.59375 0 
Q 12.3125 -2.484375 11.140625 -4.625 
Q 9.96875 -6.78125 9.96875 -8.59375 
Q 9.96875 -10.9375 12.796875 -12.703125 
Q 17.671875 -15.71875 26.90625 -15.71875 
Q 35.6875 -15.71875 39.859375 -12.609375 
Q 44.046875 -9.515625 44.046875 -6 
Q 44.046875 -3.46875 41.546875 -2.390625 
Q 39.015625 -1.3125 31.5 -1.125 
Q 20.515625 -0.828125 14.59375 0 
z
" id="TimesNewRomanPSMT-103"/>
       <path id="TimesNewRomanPSMT-32"/>
       <path d="M 16.109375 59.421875 
L 16.109375 44.734375 
L 26.5625 44.734375 
L 26.5625 41.3125 
L 16.109375 41.3125 
L 16.109375 12.3125 
Q 16.109375 7.953125 17.359375 6.4375 
Q 18.609375 4.9375 20.5625 4.9375 
Q 22.171875 4.9375 23.6875 5.9375 
Q 25.203125 6.9375 26.03125 8.890625 
L 27.9375 8.890625 
Q 26.21875 4.109375 23.09375 1.6875 
Q 19.96875 -0.734375 16.65625 -0.734375 
Q 14.40625 -0.734375 12.25 0.515625 
Q 10.109375 1.765625 9.078125 4.078125 
Q 8.0625 6.390625 8.0625 11.234375 
L 8.0625 41.3125 
L 0.984375 41.3125 
L 0.984375 42.921875 
Q 3.65625 44 6.46875 46.5625 
Q 9.28125 49.125 11.46875 52.640625 
Q 12.59375 54.5 14.59375 59.421875 
z
" id="TimesNewRomanPSMT-116"/>
       <path d="M 16.40625 36.53125 
Q 21.296875 41.40625 22.171875 42.140625 
Q 24.359375 44 26.890625 45.015625 
Q 29.4375 46.046875 31.9375 46.046875 
Q 36.140625 46.046875 39.15625 43.59375 
Q 42.1875 41.15625 43.21875 36.53125 
Q 48.25 42.390625 51.703125 44.21875 
Q 55.171875 46.046875 58.84375 46.046875 
Q 62.40625 46.046875 65.15625 44.21875 
Q 67.921875 42.390625 69.53125 38.234375 
Q 70.609375 35.40625 70.609375 29.34375 
L 70.609375 10.109375 
Q 70.609375 5.90625 71.234375 4.34375 
Q 71.734375 3.265625 73.046875 2.515625 
Q 74.359375 1.765625 77.34375 1.765625 
L 77.34375 0 
L 55.28125 0 
L 55.28125 1.765625 
L 56.203125 1.765625 
Q 59.078125 1.765625 60.6875 2.875 
Q 61.8125 3.65625 62.3125 5.375 
Q 62.5 6.203125 62.5 10.109375 
L 62.5 29.34375 
Q 62.5 34.8125 61.1875 37.0625 
Q 59.28125 40.1875 55.078125 40.1875 
Q 52.484375 40.1875 49.875 38.890625 
Q 47.265625 37.59375 43.5625 34.078125 
L 43.453125 33.546875 
L 43.5625 31.453125 
L 43.5625 10.109375 
Q 43.5625 5.515625 44.0625 4.390625 
Q 44.578125 3.265625 45.984375 2.515625 
Q 47.40625 1.765625 50.828125 1.765625 
L 50.828125 0 
L 28.21875 0 
L 28.21875 1.765625 
Q 31.9375 1.765625 33.328125 2.640625 
Q 34.71875 3.515625 35.25 5.28125 
Q 35.5 6.109375 35.5 10.109375 
L 35.5 29.34375 
Q 35.5 34.8125 33.890625 37.203125 
Q 31.734375 40.328125 27.875 40.328125 
Q 25.25 40.328125 22.65625 38.921875 
Q 18.609375 36.765625 16.40625 34.078125 
L 16.40625 10.109375 
Q 16.40625 5.71875 17.015625 4.390625 
Q 17.625 3.078125 18.8125 2.421875 
Q 20.015625 1.765625 23.6875 1.765625 
L 23.6875 0 
L 1.5625 0 
L 1.5625 1.765625 
Q 4.640625 1.765625 5.859375 2.421875 
Q 7.078125 3.078125 7.703125 4.515625 
Q 8.34375 5.953125 8.34375 10.109375 
L 8.34375 27.203125 
Q 8.34375 34.578125 7.90625 36.71875 
Q 7.5625 38.328125 6.828125 38.9375 
Q 6.109375 39.546875 4.828125 39.546875 
Q 3.46875 39.546875 1.5625 38.8125 
L 0.828125 40.578125 
L 14.3125 46.046875 
L 16.40625 46.046875 
z
" id="TimesNewRomanPSMT-109"/>
       <path d="M 10.640625 27.875 
Q 10.59375 17.921875 15.484375 12.25 
Q 20.359375 6.59375 26.953125 6.59375 
Q 31.34375 6.59375 34.59375 9 
Q 37.84375 11.421875 40.046875 17.28125 
L 41.546875 16.3125 
Q 40.53125 9.625 35.59375 4.125 
Q 30.671875 -1.375 23.25 -1.375 
Q 15.1875 -1.375 9.453125 4.90625 
Q 3.71875 11.1875 3.71875 21.78125 
Q 3.71875 33.25 9.59375 39.671875 
Q 15.484375 46.09375 24.359375 46.09375 
Q 31.890625 46.09375 36.71875 41.140625 
Q 41.546875 36.1875 41.546875 27.875 
z
M 10.640625 30.71875 
L 31.34375 30.71875 
Q 31.109375 35.015625 30.328125 36.765625 
Q 29.109375 39.5 26.6875 41.0625 
Q 24.265625 42.625 21.625 42.625 
Q 17.578125 42.625 14.375 39.46875 
Q 11.1875 36.328125 10.640625 30.71875 
z
" id="TimesNewRomanPSMT-101"/>
       <path d="M 32.03125 46.046875 
L 32.03125 30.8125 
L 30.421875 30.8125 
Q 28.5625 37.984375 25.65625 40.578125 
Q 22.75 43.171875 18.265625 43.171875 
Q 14.84375 43.171875 12.734375 41.359375 
Q 10.640625 39.546875 10.640625 37.359375 
Q 10.640625 34.625 12.203125 32.671875 
Q 13.71875 30.671875 18.359375 28.421875 
L 25.484375 24.953125 
Q 35.40625 20.125 35.40625 12.203125 
Q 35.40625 6.109375 30.78125 2.359375 
Q 26.171875 -1.375 20.453125 -1.375 
Q 16.359375 -1.375 11.078125 0.09375 
Q 9.46875 0.59375 8.453125 0.59375 
Q 7.328125 0.59375 6.6875 -0.6875 
L 5.078125 -0.6875 
L 5.078125 15.28125 
L 6.6875 15.28125 
Q 8.0625 8.453125 11.90625 4.984375 
Q 15.765625 1.515625 20.5625 1.515625 
Q 23.921875 1.515625 26.046875 3.484375 
Q 28.171875 5.46875 28.171875 8.25 
Q 28.171875 11.625 25.796875 13.921875 
Q 23.4375 16.21875 16.359375 19.734375 
Q 9.28125 23.25 7.078125 26.078125 
Q 4.890625 28.859375 4.890625 33.109375 
Q 4.890625 38.625 8.671875 42.328125 
Q 12.453125 46.046875 18.453125 46.046875 
Q 21.09375 46.046875 24.859375 44.921875 
Q 27.34375 44.1875 28.171875 44.1875 
Q 28.953125 44.1875 29.390625 44.53125 
Q 29.828125 44.875 30.421875 46.046875 
z
" id="TimesNewRomanPSMT-115"/>
      </defs>
      <use xlink:href="#TimesNewRomanPSMT-84"/>
      <use x="57.583984" xlink:href="#TimesNewRomanPSMT-114"/>
      <use x="90.884766" xlink:href="#TimesNewRomanPSMT-97"/>
      <use x="135.269531" xlink:href="#TimesNewRomanPSMT-105"/>
      <use x="163.052734" xlink:href="#TimesNewRomanPSMT-110"/>
      <use x="213.052734" xlink:href="#TimesNewRomanPSMT-105"/>
      <use x="240.835938" xlink:href="#TimesNewRomanPSMT-110"/>
      <use x="290.835938" xlink:href="#TimesNewRomanPSMT-103"/>
      <use x="340.835938" xlink:href="#TimesNewRomanPSMT-32"/>
      <use x="365.835938" xlink:href="#TimesNewRomanPSMT-116"/>
      <use x="393.619141" xlink:href="#TimesNewRomanPSMT-105"/>
      <use x="421.402344" xlink:href="#TimesNewRomanPSMT-109"/>
      <use x="499.185547" xlink:href="#TimesNewRomanPSMT-101"/>
      <use x="543.570312" xlink:href="#TimesNewRomanPSMT-115"/>
     </g>
    </g>
   </g>
   <g id="matplotlib.axis_2">
    <g id="ytick_1">
     <g id="line2d_10">
      <defs>
       <path d="M 0 0 
L -3.5 0 
" id="mb47c6c2906" style="stroke:#000000;stroke-width:0.8;"/>
      </defs>
      <g>
       <use style="stroke:#000000;stroke-width:0.8;" x="54" xlink:href="#mb47c6c2906" y="242.690836"/>
      </g>
     </g>
     <g id="text_11">
      <!-- 0 -->
      <g transform="translate(41 246.663961)scale(0.12 -0.12)">
       <use xlink:href="#TimesNewRomanPS-BoldMT-48"/>
      </g>
     </g>
    </g>
    <g id="ytick_2">
     <g id="line2d_11">
      <g>
       <use style="stroke:#000000;stroke-width:0.8;" x="54" xlink:href="#mb47c6c2906" y="197.544976"/>
      </g>
     </g>
     <g id="text_12">
      <!-- 2 -->
      <g transform="translate(41 201.518101)scale(0.12 -0.12)">
       <use xlink:href="#TimesNewRomanPS-BoldMT-50"/>
      </g>
     </g>
    </g>
    <g id="ytick_3">
     <g id="line2d_12">
      <g>
       <use style="stroke:#000000;stroke-width:0.8;" x="54" xlink:href="#mb47c6c2906" y="152.399115"/>
      </g>
     </g>
     <g id="text_13">
      <!-- 4 -->
      <g transform="translate(41 156.37224)scale(0.12 -0.12)">
       <defs>
        <path d="M 2.484375 24.953125 
L 33.9375 67.578125 
L 39.890625 67.578125 
L 39.890625 24.953125 
L 45.953125 24.953125 
L 45.953125 14.84375 
L 39.890625 14.84375 
L 39.890625 0 
L 26.46875 0 
L 26.46875 14.84375 
L 2.484375 14.84375 
z
M 7.234375 24.953125 
L 26.46875 24.953125 
L 26.46875 51.078125 
z
" id="TimesNewRomanPS-BoldMT-52"/>
       </defs>
       <use xlink:href="#TimesNewRomanPS-BoldMT-52"/>
      </g>
     </g>
    </g>
    <g id="ytick_4">
     <g id="line2d_13">
      <g>
       <use style="stroke:#000000;stroke-width:0.8;" x="54" xlink:href="#mb47c6c2906" y="107.253255"/>
      </g>
     </g>
     <g id="text_14">
      <!-- 6 -->
      <g transform="translate(41 111.22638)scale(0.12 -0.12)">
       <defs>
        <path d="M 46.96875 67.578125 
L 46.96875 66.21875 
Q 38.140625 63.96875 32.78125 60.421875 
Q 27.4375 56.890625 24.328125 51.828125 
Q 21.234375 46.78125 19.53125 39.3125 
Q 21.6875 40.765625 23.09375 41.21875 
Q 26.265625 42.1875 29.5 42.1875 
Q 36.921875 42.1875 41.875 36.78125 
Q 46.828125 31.390625 46.828125 22.078125 
Q 46.828125 15.53125 44.140625 10.0625 
Q 41.453125 4.59375 36.515625 1.609375 
Q 31.59375 -1.375 25.984375 -1.375 
Q 19.875 -1.375 14.6875 1.96875 
Q 9.515625 5.328125 6.609375 11.765625 
Q 3.71875 18.21875 3.71875 25.78125 
Q 3.71875 36.921875 9.0625 46.515625 
Q 14.40625 56.109375 24.234375 61.796875 
Q 34.078125 67.484375 46.96875 67.578125 
z
M 18.890625 35.359375 
Q 18.5 28.609375 18.5 25.484375 
Q 18.5 18.75 19.796875 12.453125 
Q 21.09375 6.15625 23.34375 3.609375 
Q 24.953125 1.8125 27.15625 1.8125 
Q 29.390625 1.8125 31.140625 4.421875 
Q 32.90625 7.03125 32.90625 15.046875 
Q 32.90625 28.515625 29.640625 33.640625 
Q 27.546875 36.96875 23.96875 36.96875 
Q 22.015625 36.96875 18.890625 35.359375 
z
" id="TimesNewRomanPS-BoldMT-54"/>
       </defs>
       <use xlink:href="#TimesNewRomanPS-BoldMT-54"/>
      </g>
     </g>
    </g>
    <g id="ytick_5">
     <g id="line2d_14">
      <g>
       <use style="stroke:#000000;stroke-width:0.8;" x="54" xlink:href="#mb47c6c2906" y="62.107394"/>
      </g>
     </g>
     <g id="text_15">
      <!-- 8 -->
      <g transform="translate(41 66.080519)scale(0.12 -0.12)">
       <defs>
        <path d="M 34.078125 37.40625 
Q 41.0625 32.28125 43.765625 27.859375 
Q 46.484375 23.4375 46.484375 17.71875 
Q 46.484375 9.71875 40.453125 4.171875 
Q 34.421875 -1.375 24.078125 -1.375 
Q 14.265625 -1.375 8.890625 3.453125 
Q 3.515625 8.296875 3.515625 15.28125 
Q 3.515625 20.609375 6.609375 24.609375 
Q 9.71875 28.609375 16.9375 31.9375 
Q 9.078125 37.9375 6.859375 41.75 
Q 4.640625 45.5625 4.640625 50.59375 
Q 4.640625 57.234375 10.28125 62.28125 
Q 15.921875 67.328125 25.734375 67.328125 
Q 35.203125 67.328125 40.296875 62.859375 
Q 45.40625 58.40625 45.40625 52.15625 
Q 45.40625 47.46875 42.640625 43.875 
Q 39.890625 40.28125 34.078125 37.40625 
z
M 30.375 39.890625 
Q 32.171875 42.328125 33.046875 45.359375 
Q 33.9375 48.390625 33.9375 52 
Q 33.9375 58.34375 31.203125 61.71875 
Q 29.15625 64.3125 25.53125 64.3125 
Q 22.265625 64.3125 19.96875 61.9375 
Q 17.671875 59.578125 17.671875 56.0625 
Q 17.671875 52.484375 20.234375 48.65625 
Q 22.796875 44.828125 30.375 39.890625 
z
M 20.609375 29.59375 
Q 19.09375 28.21875 18.453125 27.09375 
Q 17.484375 25.390625 16.703125 22.109375 
Q 15.921875 18.84375 15.921875 15.28125 
Q 15.921875 10.6875 17.09375 7.59375 
Q 18.265625 4.5 20.4375 3.125 
Q 22.609375 1.765625 24.90625 1.765625 
Q 28.46875 1.765625 30.90625 4.375 
Q 33.34375 6.984375 33.34375 11.53125 
Q 33.34375 21 20.609375 29.59375 
z
" id="TimesNewRomanPS-BoldMT-56"/>
       </defs>
       <use xlink:href="#TimesNewRomanPS-BoldMT-56"/>
      </g>
     </g>
    </g>
    <g id="text_16">
     <!-- MSE loss -->
     <g transform="translate(34.433125 166.454062)rotate(-90)scale(0.12 -0.12)">
      <defs>
       <path d="M 40.921875 0 
L 15.328125 55.71875 
L 15.328125 11.46875 
Q 15.328125 5.375 16.65625 3.859375 
Q 18.453125 1.8125 22.359375 1.8125 
L 24.703125 1.8125 
L 24.703125 0 
L 1.65625 0 
L 1.65625 1.8125 
L 4 1.8125 
Q 8.203125 1.8125 9.96875 4.34375 
Q 11.03125 5.90625 11.03125 11.46875 
L 11.03125 54.734375 
Q 11.03125 59.125 10.0625 61.078125 
Q 9.375 62.5 7.546875 63.453125 
Q 5.71875 64.40625 1.65625 64.40625 
L 1.65625 66.21875 
L 20.40625 66.21875 
L 44.4375 14.40625 
L 68.0625 66.21875 
L 86.8125 66.21875 
L 86.8125 64.40625 
L 84.515625 64.40625 
Q 80.28125 64.40625 78.515625 61.859375 
Q 77.4375 60.296875 77.4375 54.734375 
L 77.4375 11.46875 
Q 77.4375 5.375 78.8125 3.859375 
Q 80.609375 1.8125 84.515625 1.8125 
L 86.8125 1.8125 
L 86.8125 0 
L 58.6875 0 
L 58.6875 1.8125 
L 61.03125 1.8125 
Q 65.28125 1.8125 67 4.34375 
Q 68.0625 5.90625 68.0625 11.46875 
L 68.0625 55.71875 
L 42.53125 0 
z
" id="TimesNewRomanPSMT-77"/>
       <path d="M 45.84375 67.71875 
L 45.84375 44.828125 
L 44.046875 44.828125 
Q 43.171875 51.421875 40.890625 55.328125 
Q 38.625 59.234375 34.421875 61.515625 
Q 30.21875 63.8125 25.734375 63.8125 
Q 20.65625 63.8125 17.328125 60.71875 
Q 14.015625 57.625 14.015625 53.65625 
Q 14.015625 50.640625 16.109375 48.140625 
Q 19.140625 44.484375 30.515625 38.375 
Q 39.796875 33.40625 43.1875 30.734375 
Q 46.578125 28.078125 48.40625 24.453125 
Q 50.25 20.84375 50.25 16.890625 
Q 50.25 9.375 44.40625 3.921875 
Q 38.578125 -1.515625 29.390625 -1.515625 
Q 26.515625 -1.515625 23.96875 -1.078125 
Q 22.46875 -0.828125 17.703125 0.703125 
Q 12.9375 2.25 11.671875 2.25 
Q 10.453125 2.25 9.734375 1.515625 
Q 9.03125 0.78125 8.6875 -1.515625 
L 6.890625 -1.515625 
L 6.890625 21.1875 
L 8.6875 21.1875 
Q 9.96875 14.0625 12.109375 10.515625 
Q 14.265625 6.984375 18.671875 4.640625 
Q 23.09375 2.296875 28.375 2.296875 
Q 34.46875 2.296875 38 5.515625 
Q 41.546875 8.734375 41.546875 13.140625 
Q 41.546875 15.578125 40.203125 18.0625 
Q 38.875 20.5625 36.03125 22.703125 
Q 34.125 24.171875 25.625 28.921875 
Q 17.140625 33.6875 13.546875 36.515625 
Q 9.96875 39.359375 8.109375 42.765625 
Q 6.25 46.1875 6.25 50.296875 
Q 6.25 57.421875 11.71875 62.5625 
Q 17.1875 67.71875 25.640625 67.71875 
Q 30.90625 67.71875 36.8125 65.140625 
Q 39.546875 63.921875 40.671875 63.921875 
Q 41.9375 63.921875 42.75 64.671875 
Q 43.5625 65.4375 44.046875 67.71875 
z
" id="TimesNewRomanPSMT-83"/>
       <path d="M 20.90625 62.59375 
L 20.90625 36.421875 
L 35.453125 36.421875 
Q 41.109375 36.421875 43.015625 38.140625 
Q 45.5625 40.375 45.84375 46.046875 
L 47.65625 46.046875 
L 47.65625 23 
L 45.84375 23 
Q 45.171875 27.828125 44.484375 29.203125 
Q 43.609375 30.90625 41.59375 31.875 
Q 39.59375 32.859375 35.453125 32.859375 
L 20.90625 32.859375 
L 20.90625 11.03125 
Q 20.90625 6.640625 21.296875 5.6875 
Q 21.6875 4.734375 22.65625 4.171875 
Q 23.640625 3.609375 26.375 3.609375 
L 37.59375 3.609375 
Q 43.21875 3.609375 45.75 4.390625 
Q 48.296875 5.171875 50.640625 7.46875 
Q 53.65625 10.5 56.84375 16.609375 
L 58.796875 16.609375 
L 53.078125 0 
L 2.046875 0 
L 2.046875 1.8125 
L 4.390625 1.8125 
Q 6.734375 1.8125 8.84375 2.9375 
Q 10.40625 3.71875 10.96875 5.28125 
Q 11.53125 6.84375 11.53125 11.671875 
L 11.53125 54.6875 
Q 11.53125 60.984375 10.25 62.453125 
Q 8.5 64.40625 4.390625 64.40625 
L 2.046875 64.40625 
L 2.046875 66.21875 
L 53.078125 66.21875 
L 53.8125 51.703125 
L 51.90625 51.703125 
Q 50.875 56.9375 49.625 58.890625 
Q 48.390625 60.84375 45.953125 61.859375 
Q 44 62.59375 39.0625 62.59375 
z
" id="TimesNewRomanPSMT-69"/>
       <path d="M 18.5 69.4375 
L 18.5 10.109375 
Q 18.5 5.90625 19.109375 4.53125 
Q 19.734375 3.171875 21 2.46875 
Q 22.265625 1.765625 25.734375 1.765625 
L 25.734375 0 
L 3.8125 0 
L 3.8125 1.765625 
Q 6.890625 1.765625 8 2.390625 
Q 9.125 3.03125 9.765625 4.484375 
Q 10.40625 5.953125 10.40625 10.109375 
L 10.40625 50.734375 
Q 10.40625 58.296875 10.0625 60.03125 
Q 9.71875 61.765625 8.953125 62.390625 
Q 8.203125 63.03125 7.03125 63.03125 
Q 5.765625 63.03125 3.8125 62.25 
L 2.984375 63.96875 
L 16.3125 69.4375 
z
" id="TimesNewRomanPSMT-108"/>
       <path d="M 25 46.046875 
Q 35.15625 46.046875 41.3125 38.328125 
Q 46.53125 31.734375 46.53125 23.1875 
Q 46.53125 17.1875 43.640625 11.03125 
Q 40.765625 4.890625 35.71875 1.75 
Q 30.671875 -1.375 24.46875 -1.375 
Q 14.359375 -1.375 8.40625 6.6875 
Q 3.375 13.484375 3.375 21.921875 
Q 3.375 28.078125 6.421875 34.15625 
Q 9.46875 40.234375 14.453125 43.140625 
Q 19.4375 46.046875 25 46.046875 
z
M 23.484375 42.875 
Q 20.90625 42.875 18.28125 41.328125 
Q 15.671875 39.796875 14.0625 35.9375 
Q 12.453125 32.078125 12.453125 26.03125 
Q 12.453125 16.265625 16.328125 9.171875 
Q 20.21875 2.09375 26.5625 2.09375 
Q 31.296875 2.09375 34.375 6 
Q 37.453125 9.90625 37.453125 19.4375 
Q 37.453125 31.34375 32.328125 38.1875 
Q 28.859375 42.875 23.484375 42.875 
z
" id="TimesNewRomanPSMT-111"/>
      </defs>
      <use xlink:href="#TimesNewRomanPSMT-77"/>
      <use x="88.916016" xlink:href="#TimesNewRomanPSMT-83"/>
      <use x="144.53125" xlink:href="#TimesNewRomanPSMT-69"/>
      <use x="205.615234" xlink:href="#TimesNewRomanPSMT-32"/>
      <use x="230.615234" xlink:href="#TimesNewRomanPSMT-108"/>
      <use x="258.398438" xlink:href="#TimesNewRomanPSMT-111"/>
      <use x="308.398438" xlink:href="#TimesNewRomanPSMT-115"/>
      <use x="347.314453" xlink:href="#TimesNewRomanPSMT-115"/>
     </g>
    </g>
   </g>
   <g id="line2d_15">
    <path clip-path="url(#p5c0f1c5f0f)" d="M 69.218182 44.443636 
L 70.747647 77.81214 
L 72.277113 102.009598 
L 73.806578 118.791805 
L 75.336044 131.717982 
L 76.865509 142.802125 
L 78.394975 152.060452 
L 79.92444 160.435436 
L 81.453906 167.766573 
L 82.983371 173.941181 
L 86.042302 184.842938 
L 87.571768 188.891483 
L 89.101233 191.827507 
L 92.160164 196.834563 
L 93.68963 199.742546 
L 96.748561 204.424776 
L 98.278026 206.022091 
L 99.807492 207.805044 
L 101.336958 209.22681 
L 104.395889 213.826894 
L 105.925354 216.941167 
L 107.45482 218.491164 
L 108.984285 219.758879 
L 110.513751 220.736741 
L 112.043216 221.269804 
L 115.102147 222.673611 
L 116.631613 223.667521 
L 119.690544 225.237098 
L 121.220009 225.883432 
L 122.749475 225.939134 
L 125.808406 228.090602 
L 127.337871 229.015076 
L 128.867337 230.087248 
L 130.396802 230.888357 
L 131.926268 230.964472 
L 133.455733 231.173792 
L 134.985199 231.170957 
L 136.514664 231.408495 
L 139.573595 232.071268 
L 141.103061 232.925803 
L 142.632526 232.96968 
L 144.161992 233.504847 
L 145.691457 233.524039 
L 148.750388 234.328645 
L 150.279854 234.58482 
L 151.809319 234.683993 
L 153.338785 235.193931 
L 156.397716 235.45729 
L 157.927181 235.727198 
L 160.986112 235.48186 
L 162.515578 235.621247 
L 164.045043 236.123893 
L 165.574509 236.05771 
L 167.103974 236.420314 
L 168.63344 236.563912 
L 170.162905 236.455185 
L 171.692371 236.52575 
L 173.221836 236.723304 
L 177.810233 236.630593 
L 179.339698 236.820793 
L 180.869164 236.54103 
L 182.39863 236.831754 
L 183.928095 237.370155 
L 185.457561 237.179664 
L 186.987026 237.288934 
L 188.516492 237.179572 
L 190.045957 237.478483 
L 191.575423 237.662077 
L 193.104888 237.254761 
L 196.163819 237.772218 
L 197.693285 237.808899 
L 199.22275 237.579486 
L 202.281681 238.114264 
L 203.811147 237.93905 
L 206.870078 238.134356 
L 208.399543 237.985154 
L 211.458474 238.234027 
L 214.517405 238.825045 
L 216.046871 238.696427 
L 217.576336 238.751719 
L 219.105802 239.028837 
L 220.635267 238.939233 
L 222.164733 238.685322 
L 223.694198 238.957103 
L 225.223664 238.864117 
L 226.753129 239.053015 
L 228.282595 238.957983 
L 229.81206 238.689611 
L 231.341526 238.809787 
L 232.870991 238.817865 
L 234.400457 239.146546 
L 235.929922 239.267418 
L 237.459388 238.993175 
L 238.988853 239.209928 
L 240.518319 239.102964 
L 242.047784 239.483442 
L 245.106715 239.156473 
L 246.636181 239.556727 
L 248.165646 239.608566 
L 249.695112 239.108653 
L 251.224577 239.49111 
L 252.754043 239.38468 
L 254.283508 239.467716 
L 255.812974 239.74726 
L 257.342439 239.577921 
L 260.40137 239.464507 
L 261.930836 239.706337 
L 263.460302 239.723354 
L 264.989767 239.960768 
L 266.519233 239.634151 
L 268.048698 239.945791 
L 271.107629 239.99382 
L 274.16656 239.902499 
L 275.696026 238.634863 
L 278.754957 240.081105 
L 280.284422 239.969585 
L 283.343353 240.030002 
L 284.872819 240.237371 
L 286.402284 239.905014 
L 289.461215 239.867186 
L 290.990681 240.099808 
L 294.049612 240.837155 
L 295.579077 240.965241 
L 300.167474 240.713545 
L 301.696939 240.92228 
L 303.226405 240.662229 
L 304.75587 240.908515 
L 307.814801 240.923572 
L 309.344267 240.549378 
L 310.873732 240.562696 
L 312.403198 240.984759 
L 313.932663 240.985854 
L 316.991594 241.20995 
L 320.050525 241.004656 
L 321.579991 239.927152 
L 323.109456 241.181541 
L 324.638922 241.758656 
L 326.168387 242.017217 
L 335.34518 242.024568 
L 336.874646 239.466034 
L 338.404111 241.623029 
L 339.933577 242.002669 
L 342.992508 242.113365 
L 347.580905 242.113632 
L 349.11037 241.9903 
L 350.639836 240.777969 
L 352.169301 241.702786 
L 353.698767 241.516346 
L 355.228232 242.056073 
L 358.287163 242.116364 
L 359.816629 241.566077 
L 362.87556 241.31889 
L 364.405025 242.094439 
L 368.993422 242.072576 
L 372.052353 241.655472 
L 373.581818 241.347056 
L 373.581818 241.347056 
" style="fill:none;stroke:#1f77b4;stroke-linecap:square;stroke-width:1.5;"/>
   </g>
   <g id="line2d_16">
    <path clip-path="url(#p5c0f1c5f0f)" d="M 69.218182 150.624376 
L 70.747647 166.052039 
L 72.277113 175.15754 
L 73.806578 181.134745 
L 75.336044 185.963176 
L 76.865509 189.990231 
L 78.394975 193.504023 
L 79.92444 196.192658 
L 82.983371 200.609027 
L 84.512837 202.528289 
L 86.042302 204.206686 
L 87.571768 204.304244 
L 89.101233 203.508943 
L 90.630699 206.986552 
L 92.160164 208.394951 
L 93.68963 209.441 
L 95.219095 209.428301 
L 96.748561 210.681442 
L 98.278026 211.615095 
L 99.807492 212.979541 
L 101.336958 215.407966 
L 102.866423 217.060472 
L 104.395889 218.097811 
L 105.925354 217.844819 
L 110.513751 219.177603 
L 112.043216 219.196315 
L 113.572682 220.441927 
L 115.102147 221.044449 
L 116.631613 220.615166 
L 118.161078 220.483961 
L 119.690544 221.165417 
L 122.749475 221.140685 
L 124.27894 222.427608 
L 125.808406 222.294168 
L 127.337871 222.619319 
L 128.867337 221.942572 
L 130.396802 222.744383 
L 131.926268 225.040791 
L 133.455733 225.085987 
L 134.985199 227.042694 
L 136.514664 227.142106 
L 138.04413 226.584316 
L 139.573595 226.850619 
L 141.103061 225.97594 
L 142.632526 226.467348 
L 144.161992 226.540511 
L 145.691457 227.668895 
L 147.220923 226.788904 
L 148.750388 227.667962 
L 151.809319 228.908438 
L 154.86825 228.20493 
L 156.397716 227.033006 
L 157.927181 228.8534 
L 159.456647 225.676092 
L 160.986112 229.135854 
L 162.515578 228.32339 
L 164.045043 228.405123 
L 165.574509 229.545256 
L 167.103974 229.6775 
L 168.63344 230.284521 
L 171.692371 230.178517 
L 173.221836 230.569626 
L 174.751302 230.325229 
L 176.280767 228.189285 
L 177.810233 229.327579 
L 179.339698 228.841033 
L 180.869164 225.732412 
L 182.39863 230.196396 
L 183.928095 230.802179 
L 185.457561 230.613034 
L 186.987026 230.696186 
L 188.516492 230.462483 
L 191.575423 231.068473 
L 193.104888 230.911765 
L 194.634354 231.266371 
L 196.163819 230.209689 
L 197.693285 230.900548 
L 199.22275 231.337594 
L 200.752216 231.623817 
L 202.281681 231.685106 
L 203.811147 230.783079 
L 205.340612 231.150867 
L 206.870078 230.682311 
L 208.399543 229.394666 
L 209.929009 231.299162 
L 211.458474 230.496228 
L 212.98794 231.568226 
L 216.046871 230.003232 
L 217.576336 232.088001 
L 219.105802 230.766772 
L 220.635267 231.435546 
L 222.164733 231.736739 
L 223.694198 232.155231 
L 225.223664 232.17207 
L 226.753129 231.990877 
L 228.282595 231.346418 
L 229.81206 231.493553 
L 231.341526 230.681738 
L 232.870991 232.506177 
L 234.400457 232.204484 
L 235.929922 231.767725 
L 238.988853 233.286505 
L 240.518319 233.010866 
L 242.047784 231.929724 
L 243.57725 231.60966 
L 245.106715 231.957229 
L 246.636181 232.141796 
L 248.165646 232.750568 
L 249.695112 229.581736 
L 251.224577 232.41244 
L 254.283508 232.797423 
L 255.812974 233.193879 
L 257.342439 231.991484 
L 258.871905 233.134632 
L 260.40137 232.137273 
L 261.930836 233.26649 
L 263.460302 233.2338 
L 264.989767 232.687071 
L 266.519233 233.233133 
L 268.048698 233.290687 
L 271.107629 234.031982 
L 272.637095 233.221357 
L 274.16656 232.970042 
L 275.696026 232.187147 
L 277.225491 233.459947 
L 278.754957 233.777978 
L 280.284422 232.405361 
L 281.813888 233.308135 
L 283.343353 233.051198 
L 284.872819 234.668292 
L 286.402284 234.073222 
L 287.93175 233.759242 
L 289.461215 233.053319 
L 290.990681 233.49411 
L 292.520146 232.095782 
L 294.049612 234.853389 
L 295.579077 235.069225 
L 297.108543 234.071334 
L 298.638008 231.591907 
L 300.167474 233.399386 
L 301.696939 233.413592 
L 303.226405 232.267264 
L 304.75587 234.671051 
L 306.285336 235.198395 
L 307.814801 234.912439 
L 309.344267 233.445068 
L 310.873732 235.230024 
L 312.403198 234.868745 
L 313.932663 235.012021 
L 315.462129 234.27695 
L 316.991594 234.082777 
L 318.52106 234.447194 
L 320.050525 232.944853 
L 321.579991 233.265459 
L 323.109456 234.451008 
L 324.638922 236.039147 
L 326.168387 235.679569 
L 327.697853 235.717729 
L 329.227318 236.103094 
L 330.756784 235.425304 
L 332.286249 235.810102 
L 333.815715 234.990724 
L 335.34518 233.341279 
L 338.404111 234.221963 
L 339.933577 235.83208 
L 341.463042 236.589419 
L 342.992508 236.450513 
L 344.521974 236.511053 
L 346.051439 235.923881 
L 347.580905 236.020501 
L 350.639836 234.064201 
L 352.169301 234.79907 
L 353.698767 234.840908 
L 355.228232 235.468577 
L 356.757698 235.662949 
L 358.287163 235.42622 
L 359.816629 234.477577 
L 361.346094 234.44809 
L 362.87556 235.823977 
L 364.405025 235.433297 
L 365.934491 236.253402 
L 367.463956 235.057779 
L 368.993422 235.617369 
L 370.522887 233.416585 
L 372.052353 235.220917 
L 373.581818 235.083889 
L 373.581818 235.083889 
" style="fill:none;stroke:#ff7f0e;stroke-linecap:square;stroke-width:1.5;"/>
   </g>
   <g id="patch_3">
    <path d="M 54 252 
L 54 34.56 
" style="fill:none;stroke:#000000;stroke-linecap:square;stroke-linejoin:miter;stroke-width:0.8;"/>
   </g>
   <g id="patch_4">
    <path d="M 388.8 252 
L 388.8 34.56 
" style="fill:none;stroke:#000000;stroke-linecap:square;stroke-linejoin:miter;stroke-width:0.8;"/>
   </g>
   <g id="patch_5">
    <path d="M 54 252 
L 388.8 252 
" style="fill:none;stroke:#000000;stroke-linecap:square;stroke-linejoin:miter;stroke-width:0.8;"/>
   </g>
   <g id="patch_6">
    <path d="M 54 34.56 
L 388.8 34.56 
" style="fill:none;stroke:#000000;stroke-linecap:square;stroke-linejoin:miter;stroke-width:0.8;"/>
   </g>
   <g id="legend_1">
    <g id="patch_7">
     <path d="M 297.995625 78.09375 
L 380.4 78.09375 
Q 382.8 78.09375 382.8 75.69375 
L 382.8 42.96 
Q 382.8 40.56 380.4 40.56 
L 297.995625 40.56 
Q 295.595625 40.56 295.595625 42.96 
L 295.595625 75.69375 
Q 295.595625 78.09375 297.995625 78.09375 
z
" style="fill:#ffffff;opacity:0.8;stroke:#cccccc;stroke-linejoin:miter;"/>
    </g>
    <g id="line2d_17">
     <path d="M 300.395625 49.56 
L 324.395625 49.56 
" style="fill:none;stroke:#1f77b4;stroke-linecap:square;stroke-width:1.5;"/>
    </g>
    <g id="line2d_18"/>
    <g id="text_17">
     <!-- trainloss -->
     <g transform="translate(333.995625 53.76)scale(0.12 -0.12)">
      <defs>
       <path d="M 21.484375 62.359375 
L 21.484375 45.65625 
L 32.328125 45.65625 
L 32.328125 40.828125 
L 21.484375 40.828125 
L 21.484375 12.640625 
Q 21.484375 8.6875 21.84375 7.53125 
Q 22.21875 6.390625 23.140625 5.6875 
Q 24.078125 4.984375 24.859375 4.984375 
Q 28.03125 4.984375 30.859375 9.8125 
L 32.328125 8.734375 
Q 28.375 -0.640625 19.484375 -0.640625 
Q 15.140625 -0.640625 12.125 1.78125 
Q 9.125 4.203125 8.296875 7.171875 
Q 7.8125 8.84375 7.8125 16.15625 
L 7.8125 40.828125 
L 1.859375 40.828125 
L 1.859375 42.53125 
Q 8.015625 46.875 12.328125 51.65625 
Q 16.65625 56.453125 19.875 62.359375 
z
" id="TimesNewRomanPS-BoldMT-116"/>
       <path d="M 22.3125 45.65625 
L 22.3125 35.296875 
Q 26.859375 42.390625 30.265625 44.703125 
Q 33.6875 47.015625 36.859375 47.015625 
Q 39.59375 47.015625 41.234375 45.328125 
Q 42.875 43.65625 42.875 40.578125 
Q 42.875 37.3125 41.28125 35.5 
Q 39.703125 33.6875 37.453125 33.6875 
Q 34.859375 33.6875 32.953125 35.34375 
Q 31.0625 37.015625 30.71875 37.203125 
Q 30.21875 37.5 29.59375 37.5 
Q 28.171875 37.5 26.90625 36.421875 
Q 24.90625 34.765625 23.875 31.6875 
Q 22.3125 26.953125 22.3125 21.234375 
L 22.3125 10.75 
L 22.359375 8.015625 
Q 22.359375 5.21875 22.703125 4.4375 
Q 23.296875 3.125 24.4375 2.515625 
Q 25.59375 1.90625 28.328125 1.765625 
L 28.328125 0 
L 3.65625 0 
L 3.65625 1.765625 
Q 6.640625 2 7.6875 3.390625 
Q 8.734375 4.78125 8.734375 10.75 
L 8.734375 35.984375 
Q 8.734375 39.890625 8.34375 40.96875 
Q 7.859375 42.328125 6.921875 42.96875 
Q 6 43.609375 3.65625 43.84375 
L 3.65625 45.65625 
z
" id="TimesNewRomanPS-BoldMT-114"/>
       <path d="M 28.5625 6.734375 
Q 20.21875 -0.640625 13.578125 -0.640625 
Q 9.671875 -0.640625 7.078125 1.921875 
Q 4.5 4.5 4.5 8.34375 
Q 4.5 13.578125 8.984375 17.75 
Q 13.484375 21.921875 28.5625 28.859375 
L 28.5625 33.453125 
Q 28.5625 38.625 28 39.96875 
Q 27.4375 41.3125 25.875 42.3125 
Q 24.3125 43.3125 22.359375 43.3125 
Q 19.1875 43.3125 17.140625 41.890625 
Q 15.875 41.015625 15.875 39.84375 
Q 15.875 38.8125 17.234375 37.3125 
Q 19.09375 35.203125 19.09375 33.25 
Q 19.09375 30.859375 17.3125 29.171875 
Q 15.53125 27.484375 12.640625 27.484375 
Q 9.578125 27.484375 7.5 29.34375 
Q 5.421875 31.203125 5.421875 33.6875 
Q 5.421875 37.203125 8.203125 40.40625 
Q 10.984375 43.609375 15.96875 45.3125 
Q 20.953125 47.015625 26.3125 47.015625 
Q 32.8125 47.015625 36.59375 44.25 
Q 40.375 41.5 41.5 38.28125 
Q 42.1875 36.234375 42.1875 28.859375 
L 42.1875 11.140625 
Q 42.1875 8.015625 42.421875 7.203125 
Q 42.671875 6.390625 43.15625 6 
Q 43.65625 5.609375 44.28125 5.609375 
Q 45.5625 5.609375 46.875 7.421875 
L 48.34375 6.25 
Q 45.90625 2.640625 43.28125 1 
Q 40.671875 -0.640625 37.359375 -0.640625 
Q 33.453125 -0.640625 31.25 1.1875 
Q 29.046875 3.03125 28.5625 6.734375 
z
M 28.5625 10.296875 
L 28.5625 25.59375 
Q 22.65625 22.125 19.78125 18.171875 
Q 17.875 15.53125 17.875 12.84375 
Q 17.875 10.59375 19.484375 8.890625 
Q 20.703125 7.5625 22.90625 7.5625 
Q 25.34375 7.5625 28.5625 10.296875 
z
" id="TimesNewRomanPS-BoldMT-97"/>
       <path d="M 14.359375 67.78125 
Q 17.53125 67.78125 19.71875 65.546875 
Q 21.921875 63.328125 21.921875 60.203125 
Q 21.921875 57.078125 19.703125 54.875 
Q 17.484375 52.6875 14.359375 52.6875 
Q 11.234375 52.6875 9.03125 54.875 
Q 6.84375 57.078125 6.84375 60.203125 
Q 6.84375 63.328125 9.03125 65.546875 
Q 11.234375 67.78125 14.359375 67.78125 
z
M 21.1875 45.65625 
L 21.1875 9.46875 
Q 21.1875 4.640625 22.3125 3.296875 
Q 23.4375 1.953125 26.703125 1.765625 
L 26.703125 0 
L 2.046875 0 
L 2.046875 1.765625 
Q 5.078125 1.859375 6.546875 3.515625 
Q 7.515625 4.640625 7.515625 9.46875 
L 7.515625 36.140625 
Q 7.515625 40.96875 6.390625 42.3125 
Q 5.28125 43.65625 2.046875 43.84375 
L 2.046875 45.65625 
z
" id="TimesNewRomanPS-BoldMT-105"/>
       <path d="M 22.015625 45.65625 
L 22.015625 39.75 
Q 25.53125 43.5625 28.75 45.28125 
Q 31.984375 47.015625 35.6875 47.015625 
Q 40.140625 47.015625 43.0625 44.546875 
Q 46 42.09375 46.96875 38.421875 
Q 47.75 35.640625 47.75 27.734375 
L 47.75 9.96875 
Q 47.75 4.6875 48.703125 3.390625 
Q 49.65625 2.09375 52.6875 1.765625 
L 52.6875 0 
L 29.59375 0 
L 29.59375 1.765625 
Q 32.171875 2.09375 33.296875 3.90625 
Q 34.078125 5.125 34.078125 9.96875 
L 34.078125 30.28125 
Q 34.078125 35.890625 33.640625 37.34375 
Q 33.203125 38.8125 32.15625 39.625 
Q 31.109375 40.4375 29.828125 40.4375 
Q 25.640625 40.4375 22.015625 34.421875 
L 22.015625 9.96875 
Q 22.015625 4.828125 22.96875 3.453125 
Q 23.921875 2.09375 26.515625 1.765625 
L 26.515625 0 
L 3.421875 0 
L 3.421875 1.765625 
Q 6.296875 2.046875 7.515625 3.609375 
Q 8.34375 4.6875 8.34375 9.96875 
L 8.34375 35.75 
Q 8.34375 40.921875 7.390625 42.1875 
Q 6.453125 43.453125 3.421875 43.84375 
L 3.421875 45.65625 
z
" id="TimesNewRomanPS-BoldMT-110"/>
       <path d="M 21.234375 66.21875 
L 21.234375 9.46875 
Q 21.234375 4.640625 22.359375 3.296875 
Q 23.484375 1.953125 26.765625 1.765625 
L 26.765625 0 
L 2.09375 0 
L 2.09375 1.765625 
Q 5.125 1.859375 6.59375 3.515625 
Q 7.5625 4.640625 7.5625 9.46875 
L 7.5625 56.734375 
Q 7.5625 61.53125 6.4375 62.859375 
Q 5.328125 64.203125 2.09375 64.40625 
L 2.09375 66.21875 
z
" id="TimesNewRomanPS-BoldMT-108"/>
       <path d="M 24.90625 47.015625 
Q 30.859375 47.015625 35.984375 43.9375 
Q 41.109375 40.875 43.765625 35.203125 
Q 46.4375 29.546875 46.4375 22.796875 
Q 46.4375 13.09375 41.5 6.546875 
Q 35.546875 -1.375 25.046875 -1.375 
Q 14.75 -1.375 9.171875 5.859375 
Q 3.609375 13.09375 3.609375 22.609375 
Q 3.609375 32.421875 9.296875 39.71875 
Q 14.984375 47.015625 24.90625 47.015625 
z
M 25.09375 43.5625 
Q 22.609375 43.5625 20.828125 41.671875 
Q 19.046875 39.796875 18.484375 34.25 
Q 17.921875 28.71875 17.921875 18.84375 
Q 17.921875 13.625 18.609375 9.078125 
Q 19.140625 5.609375 20.890625 3.796875 
Q 22.65625 2 24.90625 2 
Q 27.09375 2 28.5625 3.21875 
Q 30.46875 4.890625 31.109375 7.859375 
Q 32.078125 12.5 32.078125 26.609375 
Q 32.078125 34.90625 31.140625 38 
Q 30.21875 41.109375 28.421875 42.53125 
Q 27.15625 43.5625 25.09375 43.5625 
z
" id="TimesNewRomanPS-BoldMT-111"/>
       <path d="M 32.234375 46.921875 
L 32.953125 31.34375 
L 31.296875 31.34375 
Q 28.328125 38.28125 25.125 40.8125 
Q 21.921875 43.359375 18.75 43.359375 
Q 16.75 43.359375 15.328125 42.015625 
Q 13.921875 40.671875 13.921875 38.921875 
Q 13.921875 37.59375 14.890625 36.375 
Q 16.453125 34.375 23.625 29.515625 
Q 30.8125 24.65625 33.078125 21.265625 
Q 35.359375 17.875 35.359375 13.671875 
Q 35.359375 9.859375 33.453125 6.203125 
Q 31.546875 2.546875 28.078125 0.578125 
Q 24.609375 -1.375 20.40625 -1.375 
Q 17.140625 -1.375 11.671875 0.6875 
Q 10.203125 1.21875 9.671875 1.21875 
Q 8.0625 1.21875 6.984375 -1.21875 
L 5.375 -1.21875 
L 4.59375 15.1875 
L 6.25 15.1875 
Q 8.453125 8.734375 12.28125 5.515625 
Q 16.109375 2.296875 19.53125 2.296875 
Q 21.875 2.296875 23.359375 3.734375 
Q 24.859375 5.171875 24.859375 7.234375 
Q 24.859375 9.578125 23.390625 11.28125 
Q 21.921875 12.984375 16.84375 16.453125 
Q 9.375 21.625 7.171875 24.359375 
Q 3.953125 28.375 3.953125 33.203125 
Q 3.953125 38.484375 7.59375 42.75 
Q 11.234375 47.015625 18.109375 47.015625 
Q 21.828125 47.015625 25.296875 45.21875 
Q 26.609375 44.484375 27.4375 44.484375 
Q 28.328125 44.484375 28.859375 44.84375 
Q 29.390625 45.21875 30.5625 46.921875 
z
" id="TimesNewRomanPS-BoldMT-115"/>
      </defs>
      <use xlink:href="#TimesNewRomanPS-BoldMT-116"/>
      <use x="33.300781" xlink:href="#TimesNewRomanPS-BoldMT-114"/>
      <use x="77.685547" xlink:href="#TimesNewRomanPS-BoldMT-97"/>
      <use x="127.685547" xlink:href="#TimesNewRomanPS-BoldMT-105"/>
      <use x="155.46875" xlink:href="#TimesNewRomanPS-BoldMT-110"/>
      <use x="211.083984" xlink:href="#TimesNewRomanPS-BoldMT-108"/>
      <use x="238.867188" xlink:href="#TimesNewRomanPS-BoldMT-111"/>
      <use x="288.867188" xlink:href="#TimesNewRomanPS-BoldMT-115"/>
      <use x="327.783203" xlink:href="#TimesNewRomanPS-BoldMT-115"/>
     </g>
    </g>
    <g id="line2d_19">
     <path d="M 300.395625 66.526875 
L 324.395625 66.526875 
" style="fill:none;stroke:#ff7f0e;stroke-linecap:square;stroke-width:1.5;"/>
    </g>
    <g id="line2d_20"/>
    <g id="text_18">
     <!-- testloss -->
     <g transform="translate(333.995625 70.726875)scale(0.12 -0.12)">
      <defs>
       <path d="M 42.046875 24.46875 
L 17 24.46875 
Q 17.4375 15.375 21.828125 10.109375 
Q 25.203125 6.0625 29.9375 6.0625 
Q 32.859375 6.0625 35.25 7.6875 
Q 37.640625 9.328125 40.375 13.578125 
L 42.046875 12.5 
Q 38.328125 4.9375 33.828125 1.78125 
Q 29.34375 -1.375 23.4375 -1.375 
Q 13.28125 -1.375 8.0625 6.453125 
Q 3.859375 12.75 3.859375 22.078125 
Q 3.859375 33.5 10.03125 40.25 
Q 16.21875 47.015625 24.515625 47.015625 
Q 31.453125 47.015625 36.546875 41.328125 
Q 41.65625 35.640625 42.046875 24.46875 
z
M 30.03125 27.734375 
Q 30.03125 35.59375 29.171875 38.515625 
Q 28.328125 41.453125 26.515625 42.96875 
Q 25.484375 43.84375 23.78125 43.84375 
Q 21.234375 43.84375 19.625 41.359375 
Q 16.75 37.015625 16.75 29.4375 
L 16.75 27.734375 
z
" id="TimesNewRomanPS-BoldMT-101"/>
      </defs>
      <use xlink:href="#TimesNewRomanPS-BoldMT-116"/>
      <use x="33.300781" xlink:href="#TimesNewRomanPS-BoldMT-101"/>
      <use x="77.685547" xlink:href="#TimesNewRomanPS-BoldMT-115"/>
      <use x="116.601562" xlink:href="#TimesNewRomanPS-BoldMT-116"/>
      <use x="149.902344" xlink:href="#TimesNewRomanPS-BoldMT-108"/>
      <use x="177.685547" xlink:href="#TimesNewRomanPS-BoldMT-111"/>
      <use x="227.685547" xlink:href="#TimesNewRomanPS-BoldMT-115"/>
      <use x="266.601562" xlink:href="#TimesNewRomanPS-BoldMT-115"/>
     </g>
    </g>
   </g>
  </g>
 </g>
 <defs>
  <clipPath id="p5c0f1c5f0f">
   <rect height="217.44" width="334.8" x="54" y="34.56"/>
  </clipPath>
 </defs>
</svg>
