<?xml version="1.0" encoding="utf-8" standalone="no"?>
<!DOCTYPE svg PUBLIC "-//W3C//DTD SVG 1.1//EN"
  "http://www.w3.org/Graphics/SVG/1.1/DTD/svg11.dtd">
<!-- Created with matplotlib (https://matplotlib.org/) -->
<svg height="288pt" version="1.1" viewBox="0 0 432 288" width="432pt" xmlns="http://www.w3.org/2000/svg" xmlns:xlink="http://www.w3.org/1999/xlink">
 <metadata>
  <rdf:RDF xmlns:cc="http://creativecommons.org/ns#" xmlns:dc="http://purl.org/dc/elements/1.1/" xmlns:rdf="http://www.w3.org/1999/02/22-rdf-syntax-ns#">
   <cc:Work>
    <dc:type rdf:resource="http://purl.org/dc/dcmitype/StillImage"/>
    <dc:date>2021-05-27T10:15:39.652565</dc:date>
    <dc:format>image/svg+xml</dc:format>
    <dc:creator>
     <cc:Agent>
      <dc:title>Matplotlib v3.3.4, https://matplotlib.org/</dc:title>
     </cc:Agent>
    </dc:creator>
   </cc:Work>
  </rdf:RDF>
 </metadata>
 <defs>
  <style type="text/css">*{stroke-linecap:butt;stroke-linejoin:round;}</style>
 </defs>
 <g id="figure_1">
  <g id="patch_1">
   <path d="M 0 288 
L 432 288 
L 432 0 
L 0 0 
z
" style="fill:none;"/>
  </g>
  <g id="axes_1">
   <g id="patch_2">
    <path d="M 54 252 
L 388.8 252 
L 388.8 34.56 
L 54 34.56 
z
" style="fill:#ffffff;"/>
   </g>
   <g id="matplotlib.axis_1">
    <g id="xtick_1">
     <g id="line2d_1">
      <defs>
       <path d="M 0 0 
L 0 3.5 
" id="m8e8ddc074d" style="stroke:#000000;stroke-width:0.8;"/>
      </defs>
      <g>
       <use style="stroke:#000000;stroke-width:0.8;" x="69.218182" xlink:href="#m8e8ddc074d" y="252"/>
      </g>
     </g>
     <g id="text_1">
      <!-- 1 -->
      <g transform="translate(66.218182 266.94625)scale(0.12 -0.12)">
       <defs>
        <path d="M 32.5625 67.578125 
L 32.5625 13.421875 
Q 32.5625 7.328125 33.09375 5.640625 
Q 33.640625 3.953125 35.34375 2.875 
Q 37.0625 1.8125 40.828125 1.8125 
L 42.328125 1.8125 
L 42.328125 0 
L 7.46875 0 
L 7.46875 1.8125 
L 9.234375 1.8125 
Q 13.484375 1.8125 15.28125 2.78125 
Q 17.09375 3.765625 17.71875 5.46875 
Q 18.359375 7.171875 18.359375 13.421875 
L 18.359375 47.75 
Q 18.359375 52.34375 17.921875 53.484375 
Q 17.484375 54.640625 16.28125 55.4375 
Q 15.09375 56.25 13.53125 56.25 
Q 11.03125 56.25 7.46875 54.6875 
L 6.59375 56.453125 
L 30.953125 67.578125 
z
" id="TimesNewRomanPS-BoldMT-49"/>
       </defs>
       <use xlink:href="#TimesNewRomanPS-BoldMT-49"/>
      </g>
     </g>
    </g>
    <g id="xtick_2">
     <g id="line2d_2">
      <g>
       <use style="stroke:#000000;stroke-width:0.8;" x="85.237321" xlink:href="#m8e8ddc074d" y="252"/>
      </g>
     </g>
     <g id="text_2">
      <!-- 2 -->
      <g transform="translate(82.237321 266.94625)scale(0.12 -0.12)">
       <defs>
        <path d="M 41.40625 0 
L 2.4375 0 
L 2.4375 1.078125 
Q 20.359375 22.40625 24.1875 29.78125 
Q 28.03125 37.15625 28.03125 44.1875 
Q 28.03125 49.3125 24.859375 52.703125 
Q 21.6875 56.109375 17.09375 56.109375 
Q 9.578125 56.109375 5.421875 48.578125 
L 3.609375 49.21875 
Q 6.25 58.59375 11.625 63.078125 
Q 17 67.578125 24.03125 67.578125 
Q 29.046875 67.578125 33.203125 65.234375 
Q 37.359375 62.890625 39.703125 58.8125 
Q 42.046875 54.734375 42.046875 51.171875 
Q 42.046875 44.671875 38.421875 37.984375 
Q 33.5 28.953125 16.890625 12.796875 
L 31.203125 12.796875 
Q 36.46875 12.796875 38.0625 13.234375 
Q 39.65625 13.671875 40.671875 14.71875 
Q 41.703125 15.765625 43.359375 19.140625 
L 45.125 19.140625 
z
" id="TimesNewRomanPS-BoldMT-50"/>
       </defs>
       <use xlink:href="#TimesNewRomanPS-BoldMT-50"/>
      </g>
     </g>
    </g>
    <g id="xtick_3">
     <g id="line2d_3">
      <g>
       <use style="stroke:#000000;stroke-width:0.8;" x="101.256459" xlink:href="#m8e8ddc074d" y="252"/>
      </g>
     </g>
     <g id="text_3">
      <!-- 3 -->
      <g transform="translate(98.256459 266.94625)scale(0.12 -0.12)">
       <defs>
        <path d="M 14.796875 33.203125 
L 14.796875 34.90625 
Q 20.359375 36.53125 22.5 37.921875 
Q 24.65625 39.3125 26.21875 42.15625 
Q 27.78125 45.015625 27.78125 47.953125 
Q 27.78125 52 24.828125 54.90625 
Q 21.875 57.8125 17.484375 57.8125 
Q 10.640625 57.8125 5.859375 50.59375 
L 4.046875 51.21875 
Q 7.5625 59.375 13.0625 63.46875 
Q 18.5625 67.578125 25.296875 67.578125 
Q 32.171875 67.578125 36.640625 63.375 
Q 41.109375 59.1875 41.109375 53.5625 
Q 41.109375 49.90625 39.03125 46.5 
Q 36.96875 43.109375 32.515625 40.53125 
Q 38.234375 37.75 41.234375 33.671875 
Q 44.234375 29.59375 44.234375 23.4375 
Q 44.234375 13.09375 36.734375 5.828125 
Q 29.25 -1.421875 16.65625 -1.421875 
Q 8.25 -1.421875 4.390625 1.375 
Q 1.609375 3.328125 1.609375 6.390625 
Q 1.609375 8.640625 3.21875 10.21875 
Q 4.828125 11.8125 6.9375 11.8125 
Q 8.546875 11.8125 9.96875 11.140625 
Q 10.75 10.75 15.5 6.859375 
Q 20.265625 2.984375 24.421875 2.984375 
Q 28.03125 2.984375 30.609375 5.828125 
Q 33.203125 8.6875 33.203125 13.09375 
Q 33.203125 19.78125 28.515625 25.421875 
Q 23.828125 31.0625 14.796875 33.203125 
z
" id="TimesNewRomanPS-BoldMT-51"/>
       </defs>
       <use xlink:href="#TimesNewRomanPS-BoldMT-51"/>
      </g>
     </g>
    </g>
    <g id="xtick_4">
     <g id="line2d_4">
      <g>
       <use style="stroke:#000000;stroke-width:0.8;" x="117.275598" xlink:href="#m8e8ddc074d" y="252"/>
      </g>
     </g>
     <g id="text_4">
      <!-- 4 -->
      <g transform="translate(114.275598 266.94625)scale(0.12 -0.12)">
       <defs>
        <path d="M 2.484375 24.953125 
L 33.9375 67.578125 
L 39.890625 67.578125 
L 39.890625 24.953125 
L 45.953125 24.953125 
L 45.953125 14.84375 
L 39.890625 14.84375 
L 39.890625 0 
L 26.46875 0 
L 26.46875 14.84375 
L 2.484375 14.84375 
z
M 7.234375 24.953125 
L 26.46875 24.953125 
L 26.46875 51.078125 
z
" id="TimesNewRomanPS-BoldMT-52"/>
       </defs>
       <use xlink:href="#TimesNewRomanPS-BoldMT-52"/>
      </g>
     </g>
    </g>
    <g id="xtick_5">
     <g id="line2d_5">
      <g>
       <use style="stroke:#000000;stroke-width:0.8;" x="133.294737" xlink:href="#m8e8ddc074d" y="252"/>
      </g>
     </g>
     <g id="text_5">
      <!-- 5 -->
      <g transform="translate(130.294737 266.94625)scale(0.12 -0.12)">
       <defs>
        <path d="M 15.234375 66.21875 
L 46.234375 66.21875 
L 41.3125 53.609375 
L 15.234375 53.609375 
L 12.75 47.015625 
Q 29.59375 46.390625 38.671875 38.625 
Q 46.140625 32.234375 46.140625 22.703125 
Q 46.140625 16.609375 42.671875 10.765625 
Q 39.203125 4.9375 32.90625 1.78125 
Q 26.609375 -1.375 19.09375 -1.375 
Q 10.984375 -1.375 6.640625 1.65625 
Q 3.609375 3.8125 3.609375 6.546875 
Q 3.609375 8.640625 5.1875 10.25 
Q 6.78125 11.859375 8.890625 11.859375 
Q 10.796875 11.859375 12.75 11.078125 
Q 14.703125 10.296875 19.4375 6.984375 
Q 22.40625 4.9375 24.5625 4.15625 
Q 26.078125 3.5625 27.984375 3.5625 
Q 31.984375 3.5625 34.78125 6.484375 
Q 37.59375 9.421875 37.59375 13.53125 
Q 37.59375 22.125 29 27.484375 
Q 20.40625 32.859375 7.328125 32.859375 
Q 6 32.859375 3.375 32.8125 
z
" id="TimesNewRomanPS-BoldMT-53"/>
       </defs>
       <use xlink:href="#TimesNewRomanPS-BoldMT-53"/>
      </g>
     </g>
    </g>
    <g id="xtick_6">
     <g id="line2d_6">
      <g>
       <use style="stroke:#000000;stroke-width:0.8;" x="149.313876" xlink:href="#m8e8ddc074d" y="252"/>
      </g>
     </g>
     <g id="text_6">
      <!-- 6 -->
      <g transform="translate(146.313876 266.94625)scale(0.12 -0.12)">
       <defs>
        <path d="M 46.96875 67.578125 
L 46.96875 66.21875 
Q 38.140625 63.96875 32.78125 60.421875 
Q 27.4375 56.890625 24.328125 51.828125 
Q 21.234375 46.78125 19.53125 39.3125 
Q 21.6875 40.765625 23.09375 41.21875 
Q 26.265625 42.1875 29.5 42.1875 
Q 36.921875 42.1875 41.875 36.78125 
Q 46.828125 31.390625 46.828125 22.078125 
Q 46.828125 15.53125 44.140625 10.0625 
Q 41.453125 4.59375 36.515625 1.609375 
Q 31.59375 -1.375 25.984375 -1.375 
Q 19.875 -1.375 14.6875 1.96875 
Q 9.515625 5.328125 6.609375 11.765625 
Q 3.71875 18.21875 3.71875 25.78125 
Q 3.71875 36.921875 9.0625 46.515625 
Q 14.40625 56.109375 24.234375 61.796875 
Q 34.078125 67.484375 46.96875 67.578125 
z
M 18.890625 35.359375 
Q 18.5 28.609375 18.5 25.484375 
Q 18.5 18.75 19.796875 12.453125 
Q 21.09375 6.15625 23.34375 3.609375 
Q 24.953125 1.8125 27.15625 1.8125 
Q 29.390625 1.8125 31.140625 4.421875 
Q 32.90625 7.03125 32.90625 15.046875 
Q 32.90625 28.515625 29.640625 33.640625 
Q 27.546875 36.96875 23.96875 36.96875 
Q 22.015625 36.96875 18.890625 35.359375 
z
" id="TimesNewRomanPS-BoldMT-54"/>
       </defs>
       <use xlink:href="#TimesNewRomanPS-BoldMT-54"/>
      </g>
     </g>
    </g>
    <g id="xtick_7">
     <g id="line2d_7">
      <g>
       <use style="stroke:#000000;stroke-width:0.8;" x="165.333014" xlink:href="#m8e8ddc074d" y="252"/>
      </g>
     </g>
     <g id="text_7">
      <!-- 7 -->
      <g transform="translate(162.333014 266.94625)scale(0.12 -0.12)">
       <defs>
        <path d="M 17.71875 -1.375 
L 35.75 53.265625 
L 22.015625 53.265625 
Q 13.96875 53.265625 9.90625 51.171875 
Q 7.078125 49.703125 5.21875 45.65625 
L 3.375 45.65625 
L 8.15625 66.21875 
L 47.609375 66.21875 
L 25.390625 -1.375 
z
" id="TimesNewRomanPS-BoldMT-55"/>
       </defs>
       <use xlink:href="#TimesNewRomanPS-BoldMT-55"/>
      </g>
     </g>
    </g>
    <g id="xtick_8">
     <g id="line2d_8">
      <g>
       <use style="stroke:#000000;stroke-width:0.8;" x="181.352153" xlink:href="#m8e8ddc074d" y="252"/>
      </g>
     </g>
     <g id="text_8">
      <!-- 8 -->
      <g transform="translate(178.352153 266.94625)scale(0.12 -0.12)">
       <defs>
        <path d="M 34.078125 37.40625 
Q 41.0625 32.28125 43.765625 27.859375 
Q 46.484375 23.4375 46.484375 17.71875 
Q 46.484375 9.71875 40.453125 4.171875 
Q 34.421875 -1.375 24.078125 -1.375 
Q 14.265625 -1.375 8.890625 3.453125 
Q 3.515625 8.296875 3.515625 15.28125 
Q 3.515625 20.609375 6.609375 24.609375 
Q 9.71875 28.609375 16.9375 31.9375 
Q 9.078125 37.9375 6.859375 41.75 
Q 4.640625 45.5625 4.640625 50.59375 
Q 4.640625 57.234375 10.28125 62.28125 
Q 15.921875 67.328125 25.734375 67.328125 
Q 35.203125 67.328125 40.296875 62.859375 
Q 45.40625 58.40625 45.40625 52.15625 
Q 45.40625 47.46875 42.640625 43.875 
Q 39.890625 40.28125 34.078125 37.40625 
z
M 30.375 39.890625 
Q 32.171875 42.328125 33.046875 45.359375 
Q 33.9375 48.390625 33.9375 52 
Q 33.9375 58.34375 31.203125 61.71875 
Q 29.15625 64.3125 25.53125 64.3125 
Q 22.265625 64.3125 19.96875 61.9375 
Q 17.671875 59.578125 17.671875 56.0625 
Q 17.671875 52.484375 20.234375 48.65625 
Q 22.796875 44.828125 30.375 39.890625 
z
M 20.609375 29.59375 
Q 19.09375 28.21875 18.453125 27.09375 
Q 17.484375 25.390625 16.703125 22.109375 
Q 15.921875 18.84375 15.921875 15.28125 
Q 15.921875 10.6875 17.09375 7.59375 
Q 18.265625 4.5 20.4375 3.125 
Q 22.609375 1.765625 24.90625 1.765625 
Q 28.46875 1.765625 30.90625 4.375 
Q 33.34375 6.984375 33.34375 11.53125 
Q 33.34375 21 20.609375 29.59375 
z
" id="TimesNewRomanPS-BoldMT-56"/>
       </defs>
       <use xlink:href="#TimesNewRomanPS-BoldMT-56"/>
      </g>
     </g>
    </g>
    <g id="xtick_9">
     <g id="line2d_9">
      <g>
       <use style="stroke:#000000;stroke-width:0.8;" x="197.371292" xlink:href="#m8e8ddc074d" y="252"/>
      </g>
     </g>
     <g id="text_9">
      <!-- 9 -->
      <g transform="translate(194.371292 266.94625)scale(0.12 -0.12)">
       <defs>
        <path d="M 3.078125 -1.375 
L 3.078125 0 
Q 11.1875 1.859375 16.828125 5.46875 
Q 22.46875 9.078125 25.75 14.40625 
Q 29.046875 19.734375 30.375 26.65625 
Q 27.34375 25.09375 25.21875 24.484375 
Q 23.09375 23.875 20.75 23.875 
Q 13.234375 23.875 8.21875 29.296875 
Q 3.21875 34.71875 3.21875 44.140625 
Q 3.21875 50.6875 5.921875 56.125 
Q 8.640625 61.578125 13.671875 64.578125 
Q 18.703125 67.578125 24.125 67.578125 
Q 29.9375 67.578125 35.109375 64.25 
Q 40.28125 60.9375 43.359375 54.640625 
Q 46.4375 48.34375 46.4375 40.28125 
Q 46.4375 29.828125 41.421875 20.25 
Q 36.421875 10.6875 26.515625 4.90625 
Q 16.609375 -0.875 3.078125 -1.375 
z
M 31.109375 30.765625 
Q 31.59375 36.234375 31.59375 40.375 
Q 31.59375 49.265625 29.546875 56.9375 
Q 28.375 61.1875 26.078125 63.1875 
Q 24.859375 64.265625 22.90625 64.265625 
Q 20.453125 64.265625 19.09375 62.15625 
Q 17.1875 59.28125 17.1875 51.171875 
Q 17.1875 37.640625 20.40625 32.515625 
Q 22.515625 29.203125 26.078125 29.203125 
Q 27.984375 29.203125 31.109375 30.765625 
z
" id="TimesNewRomanPS-BoldMT-57"/>
       </defs>
       <use xlink:href="#TimesNewRomanPS-BoldMT-57"/>
      </g>
     </g>
    </g>
    <g id="xtick_10">
     <g id="line2d_10">
      <g>
       <use style="stroke:#000000;stroke-width:0.8;" x="213.390431" xlink:href="#m8e8ddc074d" y="252"/>
      </g>
     </g>
     <g id="text_10">
      <!-- 10 -->
      <g transform="translate(207.390431 266.94625)scale(0.12 -0.12)">
       <defs>
        <path d="M 46.34375 33.109375 
Q 46.34375 23.1875 43.5625 14.59375 
Q 41.890625 9.328125 39.078125 5.953125 
Q 36.28125 2.59375 32.71875 0.609375 
Q 29.15625 -1.375 24.953125 -1.375 
Q 20.171875 -1.375 16.3125 1.0625 
Q 12.453125 3.515625 9.46875 8.0625 
Q 7.328125 11.375 5.71875 16.890625 
Q 3.609375 24.359375 3.609375 32.328125 
Q 3.609375 43.109375 6.640625 52.15625 
Q 9.125 59.625 14.203125 63.59375 
Q 19.28125 67.578125 24.953125 67.578125 
Q 30.71875 67.578125 35.71875 63.640625 
Q 40.71875 59.71875 43.0625 53.078125 
Q 46.34375 43.953125 46.34375 33.109375 
z
M 31.296875 33.203125 
Q 31.296875 50.59375 31.109375 53.46875 
Q 30.609375 60.25 28.765625 62.640625 
Q 27.546875 64.203125 24.8125 64.203125 
Q 22.703125 64.203125 21.484375 63.03125 
Q 19.671875 61.328125 19.03125 57 
Q 18.40625 52.6875 18.40625 26.859375 
Q 18.40625 12.796875 19.390625 8.015625 
Q 20.125 4.546875 21.484375 3.375 
Q 22.859375 2.203125 25.09375 2.203125 
Q 27.546875 2.203125 28.765625 3.765625 
Q 30.8125 6.5 31.109375 12.203125 
z
" id="TimesNewRomanPS-BoldMT-48"/>
       </defs>
       <use xlink:href="#TimesNewRomanPS-BoldMT-49"/>
       <use x="50" xlink:href="#TimesNewRomanPS-BoldMT-48"/>
      </g>
     </g>
    </g>
    <g id="xtick_11">
     <g id="line2d_11">
      <g>
       <use style="stroke:#000000;stroke-width:0.8;" x="229.409569" xlink:href="#m8e8ddc074d" y="252"/>
      </g>
     </g>
     <g id="text_11">
      <!-- 11 -->
      <g transform="translate(223.739569 266.94625)scale(0.12 -0.12)">
       <use xlink:href="#TimesNewRomanPS-BoldMT-49"/>
       <use x="44.5" xlink:href="#TimesNewRomanPS-BoldMT-49"/>
      </g>
     </g>
    </g>
    <g id="xtick_12">
     <g id="line2d_12">
      <g>
       <use style="stroke:#000000;stroke-width:0.8;" x="245.428708" xlink:href="#m8e8ddc074d" y="252"/>
      </g>
     </g>
     <g id="text_12">
      <!-- 12 -->
      <g transform="translate(239.428708 266.94625)scale(0.12 -0.12)">
       <use xlink:href="#TimesNewRomanPS-BoldMT-49"/>
       <use x="50" xlink:href="#TimesNewRomanPS-BoldMT-50"/>
      </g>
     </g>
    </g>
    <g id="xtick_13">
     <g id="line2d_13">
      <g>
       <use style="stroke:#000000;stroke-width:0.8;" x="261.447847" xlink:href="#m8e8ddc074d" y="252"/>
      </g>
     </g>
     <g id="text_13">
      <!-- 13 -->
      <g transform="translate(255.447847 266.94625)scale(0.12 -0.12)">
       <use xlink:href="#TimesNewRomanPS-BoldMT-49"/>
       <use x="50" xlink:href="#TimesNewRomanPS-BoldMT-51"/>
      </g>
     </g>
    </g>
    <g id="xtick_14">
     <g id="line2d_14">
      <g>
       <use style="stroke:#000000;stroke-width:0.8;" x="277.466986" xlink:href="#m8e8ddc074d" y="252"/>
      </g>
     </g>
     <g id="text_14">
      <!-- 14 -->
      <g transform="translate(271.466986 266.94625)scale(0.12 -0.12)">
       <use xlink:href="#TimesNewRomanPS-BoldMT-49"/>
       <use x="50" xlink:href="#TimesNewRomanPS-BoldMT-52"/>
      </g>
     </g>
    </g>
    <g id="xtick_15">
     <g id="line2d_15">
      <g>
       <use style="stroke:#000000;stroke-width:0.8;" x="293.486124" xlink:href="#m8e8ddc074d" y="252"/>
      </g>
     </g>
     <g id="text_15">
      <!-- 15 -->
      <g transform="translate(287.486124 266.94625)scale(0.12 -0.12)">
       <use xlink:href="#TimesNewRomanPS-BoldMT-49"/>
       <use x="50" xlink:href="#TimesNewRomanPS-BoldMT-53"/>
      </g>
     </g>
    </g>
    <g id="xtick_16">
     <g id="line2d_16">
      <g>
       <use style="stroke:#000000;stroke-width:0.8;" x="309.505263" xlink:href="#m8e8ddc074d" y="252"/>
      </g>
     </g>
     <g id="text_16">
      <!-- 16 -->
      <g transform="translate(303.505263 266.94625)scale(0.12 -0.12)">
       <use xlink:href="#TimesNewRomanPS-BoldMT-49"/>
       <use x="50" xlink:href="#TimesNewRomanPS-BoldMT-54"/>
      </g>
     </g>
    </g>
    <g id="xtick_17">
     <g id="line2d_17">
      <g>
       <use style="stroke:#000000;stroke-width:0.8;" x="325.524402" xlink:href="#m8e8ddc074d" y="252"/>
      </g>
     </g>
     <g id="text_17">
      <!-- 17 -->
      <g transform="translate(319.524402 266.94625)scale(0.12 -0.12)">
       <use xlink:href="#TimesNewRomanPS-BoldMT-49"/>
       <use x="50" xlink:href="#TimesNewRomanPS-BoldMT-55"/>
      </g>
     </g>
    </g>
    <g id="xtick_18">
     <g id="line2d_18">
      <g>
       <use style="stroke:#000000;stroke-width:0.8;" x="341.543541" xlink:href="#m8e8ddc074d" y="252"/>
      </g>
     </g>
     <g id="text_18">
      <!-- 18 -->
      <g transform="translate(335.543541 266.94625)scale(0.12 -0.12)">
       <use xlink:href="#TimesNewRomanPS-BoldMT-49"/>
       <use x="50" xlink:href="#TimesNewRomanPS-BoldMT-56"/>
      </g>
     </g>
    </g>
    <g id="xtick_19">
     <g id="line2d_19">
      <g>
       <use style="stroke:#000000;stroke-width:0.8;" x="357.562679" xlink:href="#m8e8ddc074d" y="252"/>
      </g>
     </g>
     <g id="text_19">
      <!-- 19 -->
      <g transform="translate(351.562679 266.94625)scale(0.12 -0.12)">
       <use xlink:href="#TimesNewRomanPS-BoldMT-49"/>
       <use x="50" xlink:href="#TimesNewRomanPS-BoldMT-57"/>
      </g>
     </g>
    </g>
    <g id="xtick_20">
     <g id="line2d_20">
      <g>
       <use style="stroke:#000000;stroke-width:0.8;" x="373.581818" xlink:href="#m8e8ddc074d" y="252"/>
      </g>
     </g>
     <g id="text_20">
      <!-- 20 -->
      <g transform="translate(367.581818 266.94625)scale(0.12 -0.12)">
       <use xlink:href="#TimesNewRomanPS-BoldMT-50"/>
       <use x="50" xlink:href="#TimesNewRomanPS-BoldMT-48"/>
      </g>
     </g>
    </g>
    <g id="text_21">
     <!-- Training times -->
     <g transform="translate(186.450938 281.845625)scale(0.12 -0.12)">
      <defs>
       <path d="M 57.859375 66.21875 
L 58.59375 50.6875 
L 56.734375 50.6875 
Q 56.203125 54.78125 55.28125 56.546875 
Q 53.765625 59.375 51.25 60.71875 
Q 48.734375 62.0625 44.625 62.0625 
L 35.296875 62.0625 
L 35.296875 11.46875 
Q 35.296875 5.375 36.625 3.859375 
Q 38.484375 1.8125 42.328125 1.8125 
L 44.625 1.8125 
L 44.625 0 
L 16.546875 0 
L 16.546875 1.8125 
L 18.890625 1.8125 
Q 23.09375 1.8125 24.859375 4.34375 
Q 25.921875 5.90625 25.921875 11.46875 
L 25.921875 62.0625 
L 17.96875 62.0625 
Q 13.328125 62.0625 11.375 61.375 
Q 8.84375 60.453125 7.03125 57.8125 
Q 5.21875 55.171875 4.890625 50.6875 
L 3.03125 50.6875 
L 3.8125 66.21875 
z
" id="TimesNewRomanPSMT-84"/>
       <path d="M 16.21875 46.046875 
L 16.21875 35.984375 
Q 21.828125 46.046875 27.734375 46.046875 
Q 30.421875 46.046875 32.171875 44.40625 
Q 33.9375 42.78125 33.9375 40.625 
Q 33.9375 38.71875 32.65625 37.390625 
Q 31.390625 36.078125 29.640625 36.078125 
Q 27.9375 36.078125 25.8125 37.765625 
Q 23.6875 39.453125 22.65625 39.453125 
Q 21.78125 39.453125 20.75 38.484375 
Q 18.5625 36.46875 16.21875 31.890625 
L 16.21875 10.453125 
Q 16.21875 6.734375 17.140625 4.828125 
Q 17.78125 3.515625 19.390625 2.640625 
Q 21 1.765625 24.03125 1.765625 
L 24.03125 0 
L 1.125 0 
L 1.125 1.765625 
Q 4.546875 1.765625 6.203125 2.828125 
Q 7.421875 3.609375 7.90625 5.328125 
Q 8.15625 6.15625 8.15625 10.0625 
L 8.15625 27.390625 
Q 8.15625 35.203125 7.828125 36.6875 
Q 7.515625 38.1875 6.65625 38.859375 
Q 5.8125 39.546875 4.546875 39.546875 
Q 3.03125 39.546875 1.125 38.8125 
L 0.640625 40.578125 
L 14.15625 46.046875 
z
" id="TimesNewRomanPSMT-114"/>
       <path d="M 28.46875 6.453125 
Q 21.578125 1.125 19.828125 0.296875 
Q 17.1875 -0.921875 14.203125 -0.921875 
Q 9.578125 -0.921875 6.5625 2.25 
Q 3.5625 5.421875 3.5625 10.59375 
Q 3.5625 13.875 5.03125 16.265625 
Q 7.03125 19.578125 11.984375 22.5 
Q 16.9375 25.4375 28.46875 29.640625 
L 28.46875 31.390625 
Q 28.46875 38.09375 26.34375 40.578125 
Q 24.21875 43.0625 20.171875 43.0625 
Q 17.09375 43.0625 15.28125 41.40625 
Q 13.421875 39.75 13.421875 37.59375 
L 13.53125 34.765625 
Q 13.53125 32.515625 12.375 31.296875 
Q 11.234375 30.078125 9.375 30.078125 
Q 7.5625 30.078125 6.421875 31.34375 
Q 5.28125 32.625 5.28125 34.8125 
Q 5.28125 39.015625 9.578125 42.53125 
Q 13.875 46.046875 21.625 46.046875 
Q 27.59375 46.046875 31.390625 44.046875 
Q 34.28125 42.53125 35.640625 39.3125 
Q 36.53125 37.203125 36.53125 30.71875 
L 36.53125 15.53125 
Q 36.53125 9.125 36.765625 7.6875 
Q 37.015625 6.25 37.578125 5.765625 
Q 38.140625 5.28125 38.875 5.28125 
Q 39.65625 5.28125 40.234375 5.609375 
Q 41.265625 6.25 44.1875 9.1875 
L 44.1875 6.453125 
Q 38.71875 -0.875 33.734375 -0.875 
Q 31.34375 -0.875 29.921875 0.78125 
Q 28.515625 2.4375 28.46875 6.453125 
z
M 28.46875 9.625 
L 28.46875 26.65625 
Q 21.09375 23.734375 18.953125 22.515625 
Q 15.09375 20.359375 13.421875 18.015625 
Q 11.765625 15.671875 11.765625 12.890625 
Q 11.765625 9.375 13.859375 7.046875 
Q 15.96875 4.734375 18.703125 4.734375 
Q 22.40625 4.734375 28.46875 9.625 
z
" id="TimesNewRomanPSMT-97"/>
       <path d="M 14.5 69.4375 
Q 16.546875 69.4375 17.984375 67.984375 
Q 19.4375 66.546875 19.4375 64.5 
Q 19.4375 62.453125 17.984375 60.984375 
Q 16.546875 59.515625 14.5 59.515625 
Q 12.453125 59.515625 10.984375 60.984375 
Q 9.515625 62.453125 9.515625 64.5 
Q 9.515625 66.546875 10.953125 67.984375 
Q 12.40625 69.4375 14.5 69.4375 
z
M 18.5625 46.046875 
L 18.5625 10.109375 
Q 18.5625 5.90625 19.171875 4.515625 
Q 19.78125 3.125 20.96875 2.4375 
Q 22.171875 1.765625 25.34375 1.765625 
L 25.34375 0 
L 3.609375 0 
L 3.609375 1.765625 
Q 6.890625 1.765625 8 2.390625 
Q 9.125 3.03125 9.78125 4.484375 
Q 10.453125 5.953125 10.453125 10.109375 
L 10.453125 27.34375 
Q 10.453125 34.625 10.015625 36.765625 
Q 9.671875 38.328125 8.9375 38.9375 
Q 8.203125 39.546875 6.9375 39.546875 
Q 5.5625 39.546875 3.609375 38.8125 
L 2.9375 40.578125 
L 16.40625 46.046875 
z
" id="TimesNewRomanPSMT-105"/>
       <path d="M 16.15625 36.578125 
Q 24.03125 46.046875 31.15625 46.046875 
Q 34.8125 46.046875 37.453125 44.21875 
Q 40.09375 42.390625 41.65625 38.1875 
Q 42.71875 35.25 42.71875 29.203125 
L 42.71875 10.109375 
Q 42.71875 5.859375 43.40625 4.34375 
Q 43.953125 3.125 45.140625 2.4375 
Q 46.34375 1.765625 49.5625 1.765625 
L 49.5625 0 
L 27.4375 0 
L 27.4375 1.765625 
L 28.375 1.765625 
Q 31.5 1.765625 32.734375 2.703125 
Q 33.984375 3.65625 34.46875 5.515625 
Q 34.671875 6.25 34.671875 10.109375 
L 34.671875 28.421875 
Q 34.671875 34.515625 33.078125 37.28125 
Q 31.5 40.046875 27.734375 40.046875 
Q 21.921875 40.046875 16.15625 33.6875 
L 16.15625 10.109375 
Q 16.15625 5.5625 16.703125 4.5 
Q 17.390625 3.078125 18.578125 2.421875 
Q 19.78125 1.765625 23.4375 1.765625 
L 23.4375 0 
L 1.3125 0 
L 1.3125 1.765625 
L 2.296875 1.765625 
Q 5.71875 1.765625 6.90625 3.484375 
Q 8.109375 5.21875 8.109375 10.109375 
L 8.109375 26.703125 
Q 8.109375 34.765625 7.734375 36.515625 
Q 7.375 38.28125 6.609375 38.90625 
Q 5.859375 39.546875 4.59375 39.546875 
Q 3.21875 39.546875 1.3125 38.8125 
L 0.59375 40.578125 
L 14.0625 46.046875 
L 16.15625 46.046875 
z
" id="TimesNewRomanPSMT-110"/>
       <path d="M 15.09375 16.3125 
Q 10.984375 18.3125 8.78125 21.890625 
Q 6.59375 25.484375 6.59375 29.828125 
Q 6.59375 36.46875 11.59375 41.25 
Q 16.609375 46.046875 24.421875 46.046875 
Q 30.8125 46.046875 35.5 42.921875 
L 44.96875 42.921875 
Q 47.078125 42.921875 47.40625 42.796875 
Q 47.75 42.671875 47.90625 42.390625 
Q 48.1875 41.9375 48.1875 40.828125 
Q 48.1875 39.546875 47.953125 39.0625 
Q 47.796875 38.8125 47.4375 38.671875 
Q 47.078125 38.53125 44.96875 38.53125 
L 39.15625 38.53125 
Q 41.890625 35.015625 41.890625 29.546875 
Q 41.890625 23.296875 37.109375 18.84375 
Q 32.328125 14.40625 24.265625 14.40625 
Q 20.953125 14.40625 17.484375 15.375 
Q 15.328125 13.53125 14.5625 12.140625 
Q 13.8125 10.75 13.8125 9.765625 
Q 13.8125 8.9375 14.625 8.15625 
Q 15.4375 7.375 17.78125 7.03125 
Q 19.140625 6.84375 24.609375 6.6875 
Q 34.671875 6.453125 37.640625 6 
Q 42.1875 5.375 44.890625 2.640625 
Q 47.609375 -0.09375 47.609375 -4.109375 
Q 47.609375 -9.625 42.4375 -14.453125 
Q 34.8125 -21.578125 22.5625 -21.578125 
Q 13.140625 -21.578125 6.640625 -17.328125 
Q 2.984375 -14.890625 2.984375 -12.25 
Q 2.984375 -11.078125 3.515625 -9.90625 
Q 4.34375 -8.109375 6.9375 -4.890625 
Q 7.28125 -4.4375 11.921875 0.390625 
Q 9.375 1.90625 8.328125 3.09375 
Q 7.28125 4.296875 7.28125 5.8125 
Q 7.28125 7.515625 8.671875 9.8125 
Q 10.0625 12.109375 15.09375 16.3125 
z
M 23.578125 43.703125 
Q 19.96875 43.703125 17.53125 40.8125 
Q 15.09375 37.9375 15.09375 31.984375 
Q 15.09375 24.265625 18.40625 20.015625 
Q 20.953125 16.796875 24.859375 16.796875 
Q 28.5625 16.796875 30.953125 19.578125 
Q 33.34375 22.359375 33.34375 28.328125 
Q 33.34375 36.078125 29.984375 40.484375 
Q 27.484375 43.703125 23.578125 43.703125 
z
M 14.59375 0 
Q 12.3125 -2.484375 11.140625 -4.625 
Q 9.96875 -6.78125 9.96875 -8.59375 
Q 9.96875 -10.9375 12.796875 -12.703125 
Q 17.671875 -15.71875 26.90625 -15.71875 
Q 35.6875 -15.71875 39.859375 -12.609375 
Q 44.046875 -9.515625 44.046875 -6 
Q 44.046875 -3.46875 41.546875 -2.390625 
Q 39.015625 -1.3125 31.5 -1.125 
Q 20.515625 -0.828125 14.59375 0 
z
" id="TimesNewRomanPSMT-103"/>
       <path id="TimesNewRomanPSMT-32"/>
       <path d="M 16.109375 59.421875 
L 16.109375 44.734375 
L 26.5625 44.734375 
L 26.5625 41.3125 
L 16.109375 41.3125 
L 16.109375 12.3125 
Q 16.109375 7.953125 17.359375 6.4375 
Q 18.609375 4.9375 20.5625 4.9375 
Q 22.171875 4.9375 23.6875 5.9375 
Q 25.203125 6.9375 26.03125 8.890625 
L 27.9375 8.890625 
Q 26.21875 4.109375 23.09375 1.6875 
Q 19.96875 -0.734375 16.65625 -0.734375 
Q 14.40625 -0.734375 12.25 0.515625 
Q 10.109375 1.765625 9.078125 4.078125 
Q 8.0625 6.390625 8.0625 11.234375 
L 8.0625 41.3125 
L 0.984375 41.3125 
L 0.984375 42.921875 
Q 3.65625 44 6.46875 46.5625 
Q 9.28125 49.125 11.46875 52.640625 
Q 12.59375 54.5 14.59375 59.421875 
z
" id="TimesNewRomanPSMT-116"/>
       <path d="M 16.40625 36.53125 
Q 21.296875 41.40625 22.171875 42.140625 
Q 24.359375 44 26.890625 45.015625 
Q 29.4375 46.046875 31.9375 46.046875 
Q 36.140625 46.046875 39.15625 43.59375 
Q 42.1875 41.15625 43.21875 36.53125 
Q 48.25 42.390625 51.703125 44.21875 
Q 55.171875 46.046875 58.84375 46.046875 
Q 62.40625 46.046875 65.15625 44.21875 
Q 67.921875 42.390625 69.53125 38.234375 
Q 70.609375 35.40625 70.609375 29.34375 
L 70.609375 10.109375 
Q 70.609375 5.90625 71.234375 4.34375 
Q 71.734375 3.265625 73.046875 2.515625 
Q 74.359375 1.765625 77.34375 1.765625 
L 77.34375 0 
L 55.28125 0 
L 55.28125 1.765625 
L 56.203125 1.765625 
Q 59.078125 1.765625 60.6875 2.875 
Q 61.8125 3.65625 62.3125 5.375 
Q 62.5 6.203125 62.5 10.109375 
L 62.5 29.34375 
Q 62.5 34.8125 61.1875 37.0625 
Q 59.28125 40.1875 55.078125 40.1875 
Q 52.484375 40.1875 49.875 38.890625 
Q 47.265625 37.59375 43.5625 34.078125 
L 43.453125 33.546875 
L 43.5625 31.453125 
L 43.5625 10.109375 
Q 43.5625 5.515625 44.0625 4.390625 
Q 44.578125 3.265625 45.984375 2.515625 
Q 47.40625 1.765625 50.828125 1.765625 
L 50.828125 0 
L 28.21875 0 
L 28.21875 1.765625 
Q 31.9375 1.765625 33.328125 2.640625 
Q 34.71875 3.515625 35.25 5.28125 
Q 35.5 6.109375 35.5 10.109375 
L 35.5 29.34375 
Q 35.5 34.8125 33.890625 37.203125 
Q 31.734375 40.328125 27.875 40.328125 
Q 25.25 40.328125 22.65625 38.921875 
Q 18.609375 36.765625 16.40625 34.078125 
L 16.40625 10.109375 
Q 16.40625 5.71875 17.015625 4.390625 
Q 17.625 3.078125 18.8125 2.421875 
Q 20.015625 1.765625 23.6875 1.765625 
L 23.6875 0 
L 1.5625 0 
L 1.5625 1.765625 
Q 4.640625 1.765625 5.859375 2.421875 
Q 7.078125 3.078125 7.703125 4.515625 
Q 8.34375 5.953125 8.34375 10.109375 
L 8.34375 27.203125 
Q 8.34375 34.578125 7.90625 36.71875 
Q 7.5625 38.328125 6.828125 38.9375 
Q 6.109375 39.546875 4.828125 39.546875 
Q 3.46875 39.546875 1.5625 38.8125 
L 0.828125 40.578125 
L 14.3125 46.046875 
L 16.40625 46.046875 
z
" id="TimesNewRomanPSMT-109"/>
       <path d="M 10.640625 27.875 
Q 10.59375 17.921875 15.484375 12.25 
Q 20.359375 6.59375 26.953125 6.59375 
Q 31.34375 6.59375 34.59375 9 
Q 37.84375 11.421875 40.046875 17.28125 
L 41.546875 16.3125 
Q 40.53125 9.625 35.59375 4.125 
Q 30.671875 -1.375 23.25 -1.375 
Q 15.1875 -1.375 9.453125 4.90625 
Q 3.71875 11.1875 3.71875 21.78125 
Q 3.71875 33.25 9.59375 39.671875 
Q 15.484375 46.09375 24.359375 46.09375 
Q 31.890625 46.09375 36.71875 41.140625 
Q 41.546875 36.1875 41.546875 27.875 
z
M 10.640625 30.71875 
L 31.34375 30.71875 
Q 31.109375 35.015625 30.328125 36.765625 
Q 29.109375 39.5 26.6875 41.0625 
Q 24.265625 42.625 21.625 42.625 
Q 17.578125 42.625 14.375 39.46875 
Q 11.1875 36.328125 10.640625 30.71875 
z
" id="TimesNewRomanPSMT-101"/>
       <path d="M 32.03125 46.046875 
L 32.03125 30.8125 
L 30.421875 30.8125 
Q 28.5625 37.984375 25.65625 40.578125 
Q 22.75 43.171875 18.265625 43.171875 
Q 14.84375 43.171875 12.734375 41.359375 
Q 10.640625 39.546875 10.640625 37.359375 
Q 10.640625 34.625 12.203125 32.671875 
Q 13.71875 30.671875 18.359375 28.421875 
L 25.484375 24.953125 
Q 35.40625 20.125 35.40625 12.203125 
Q 35.40625 6.109375 30.78125 2.359375 
Q 26.171875 -1.375 20.453125 -1.375 
Q 16.359375 -1.375 11.078125 0.09375 
Q 9.46875 0.59375 8.453125 0.59375 
Q 7.328125 0.59375 6.6875 -0.6875 
L 5.078125 -0.6875 
L 5.078125 15.28125 
L 6.6875 15.28125 
Q 8.0625 8.453125 11.90625 4.984375 
Q 15.765625 1.515625 20.5625 1.515625 
Q 23.921875 1.515625 26.046875 3.484375 
Q 28.171875 5.46875 28.171875 8.25 
Q 28.171875 11.625 25.796875 13.921875 
Q 23.4375 16.21875 16.359375 19.734375 
Q 9.28125 23.25 7.078125 26.078125 
Q 4.890625 28.859375 4.890625 33.109375 
Q 4.890625 38.625 8.671875 42.328125 
Q 12.453125 46.046875 18.453125 46.046875 
Q 21.09375 46.046875 24.859375 44.921875 
Q 27.34375 44.1875 28.171875 44.1875 
Q 28.953125 44.1875 29.390625 44.53125 
Q 29.828125 44.875 30.421875 46.046875 
z
" id="TimesNewRomanPSMT-115"/>
      </defs>
      <use xlink:href="#TimesNewRomanPSMT-84"/>
      <use x="57.583984" xlink:href="#TimesNewRomanPSMT-114"/>
      <use x="90.884766" xlink:href="#TimesNewRomanPSMT-97"/>
      <use x="135.269531" xlink:href="#TimesNewRomanPSMT-105"/>
      <use x="163.052734" xlink:href="#TimesNewRomanPSMT-110"/>
      <use x="213.052734" xlink:href="#TimesNewRomanPSMT-105"/>
      <use x="240.835938" xlink:href="#TimesNewRomanPSMT-110"/>
      <use x="290.835938" xlink:href="#TimesNewRomanPSMT-103"/>
      <use x="340.835938" xlink:href="#TimesNewRomanPSMT-32"/>
      <use x="365.835938" xlink:href="#TimesNewRomanPSMT-116"/>
      <use x="393.619141" xlink:href="#TimesNewRomanPSMT-105"/>
      <use x="421.402344" xlink:href="#TimesNewRomanPSMT-109"/>
      <use x="499.185547" xlink:href="#TimesNewRomanPSMT-101"/>
      <use x="543.570312" xlink:href="#TimesNewRomanPSMT-115"/>
     </g>
    </g>
   </g>
   <g id="matplotlib.axis_2">
    <g id="ytick_1">
     <g id="line2d_21">
      <defs>
       <path d="M 0 0 
L -3.5 0 
" id="mc55915c91a" style="stroke:#000000;stroke-width:0.8;"/>
      </defs>
      <g>
       <use style="stroke:#000000;stroke-width:0.8;" x="54" xlink:href="#mc55915c91a" y="246.34882"/>
      </g>
     </g>
     <g id="text_22">
      <!-- 93 -->
      <g transform="translate(35 250.321945)scale(0.12 -0.12)">
       <use xlink:href="#TimesNewRomanPS-BoldMT-57"/>
       <use x="50" xlink:href="#TimesNewRomanPS-BoldMT-51"/>
      </g>
     </g>
    </g>
    <g id="ytick_2">
     <g id="line2d_22">
      <g>
       <use style="stroke:#000000;stroke-width:0.8;" x="54" xlink:href="#mc55915c91a" y="216.093275"/>
      </g>
     </g>
     <g id="text_23">
      <!-- 94 -->
      <g transform="translate(35 220.0664)scale(0.12 -0.12)">
       <use xlink:href="#TimesNewRomanPS-BoldMT-57"/>
       <use x="50" xlink:href="#TimesNewRomanPS-BoldMT-52"/>
      </g>
     </g>
    </g>
    <g id="ytick_3">
     <g id="line2d_23">
      <g>
       <use style="stroke:#000000;stroke-width:0.8;" x="54" xlink:href="#mc55915c91a" y="185.837729"/>
      </g>
     </g>
     <g id="text_24">
      <!-- 95 -->
      <g transform="translate(35 189.810854)scale(0.12 -0.12)">
       <use xlink:href="#TimesNewRomanPS-BoldMT-57"/>
       <use x="50" xlink:href="#TimesNewRomanPS-BoldMT-53"/>
      </g>
     </g>
    </g>
    <g id="ytick_4">
     <g id="line2d_24">
      <g>
       <use style="stroke:#000000;stroke-width:0.8;" x="54" xlink:href="#mc55915c91a" y="155.582183"/>
      </g>
     </g>
     <g id="text_25">
      <!-- 96 -->
      <g transform="translate(35 159.555308)scale(0.12 -0.12)">
       <use xlink:href="#TimesNewRomanPS-BoldMT-57"/>
       <use x="50" xlink:href="#TimesNewRomanPS-BoldMT-54"/>
      </g>
     </g>
    </g>
    <g id="ytick_5">
     <g id="line2d_25">
      <g>
       <use style="stroke:#000000;stroke-width:0.8;" x="54" xlink:href="#mc55915c91a" y="125.326637"/>
      </g>
     </g>
     <g id="text_26">
      <!-- 97 -->
      <g transform="translate(35 129.299762)scale(0.12 -0.12)">
       <use xlink:href="#TimesNewRomanPS-BoldMT-57"/>
       <use x="50" xlink:href="#TimesNewRomanPS-BoldMT-55"/>
      </g>
     </g>
    </g>
    <g id="ytick_6">
     <g id="line2d_26">
      <g>
       <use style="stroke:#000000;stroke-width:0.8;" x="54" xlink:href="#mc55915c91a" y="95.071092"/>
      </g>
     </g>
     <g id="text_27">
      <!-- 98 -->
      <g transform="translate(35 99.044217)scale(0.12 -0.12)">
       <use xlink:href="#TimesNewRomanPS-BoldMT-57"/>
       <use x="50" xlink:href="#TimesNewRomanPS-BoldMT-56"/>
      </g>
     </g>
    </g>
    <g id="ytick_7">
     <g id="line2d_27">
      <g>
       <use style="stroke:#000000;stroke-width:0.8;" x="54" xlink:href="#mc55915c91a" y="64.815546"/>
      </g>
     </g>
     <g id="text_28">
      <!-- 99 -->
      <g transform="translate(35 68.788671)scale(0.12 -0.12)">
       <use xlink:href="#TimesNewRomanPS-BoldMT-57"/>
       <use x="50" xlink:href="#TimesNewRomanPS-BoldMT-57"/>
      </g>
     </g>
    </g>
    <g id="ytick_8">
     <g id="line2d_28">
      <g>
       <use style="stroke:#000000;stroke-width:0.8;" x="54" xlink:href="#mc55915c91a" y="34.56"/>
      </g>
     </g>
     <g id="text_29">
      <!-- 100 -->
      <g transform="translate(29 38.533125)scale(0.12 -0.12)">
       <use xlink:href="#TimesNewRomanPS-BoldMT-49"/>
       <use x="50" xlink:href="#TimesNewRomanPS-BoldMT-48"/>
       <use x="100" xlink:href="#TimesNewRomanPS-BoldMT-48"/>
      </g>
     </g>
    </g>
    <g id="text_30">
     <!-- Accuracy (%) -->
     <g transform="translate(22.410625 176.758125)rotate(-90)scale(0.12 -0.12)">
      <defs>
       <path d="M 45.75 22.171875 
L 20.125 22.171875 
L 15.625 11.71875 
Q 13.96875 7.859375 13.96875 5.953125 
Q 13.96875 4.4375 15.40625 3.296875 
Q 16.84375 2.15625 21.625 1.8125 
L 21.625 0 
L 0.78125 0 
L 0.78125 1.8125 
Q 4.9375 2.546875 6.15625 3.71875 
Q 8.640625 6.0625 11.671875 13.234375 
L 34.96875 67.71875 
L 36.671875 67.71875 
L 59.71875 12.640625 
Q 62.5 6 64.765625 4.015625 
Q 67.046875 2.046875 71.09375 1.8125 
L 71.09375 0 
L 44.96875 0 
L 44.96875 1.8125 
Q 48.921875 2 50.3125 3.125 
Q 51.703125 4.25 51.703125 5.859375 
Q 51.703125 8.015625 49.75 12.640625 
z
M 44.390625 25.78125 
L 33.15625 52.546875 
L 21.625 25.78125 
z
" id="TimesNewRomanPSMT-65"/>
       <path d="M 41.109375 17 
Q 39.3125 8.15625 34.03125 3.390625 
Q 28.765625 -1.375 22.359375 -1.375 
Q 14.75 -1.375 9.078125 5.015625 
Q 3.421875 11.421875 3.421875 22.3125 
Q 3.421875 32.859375 9.6875 39.453125 
Q 15.96875 46.046875 24.75 46.046875 
Q 31.34375 46.046875 35.59375 42.546875 
Q 39.84375 39.0625 39.84375 35.296875 
Q 39.84375 33.453125 38.640625 32.296875 
Q 37.453125 31.15625 35.296875 31.15625 
Q 32.421875 31.15625 30.953125 33.015625 
Q 30.125 34.03125 29.859375 36.90625 
Q 29.59375 39.796875 27.875 41.3125 
Q 26.171875 42.78125 23.140625 42.78125 
Q 18.265625 42.78125 15.28125 39.15625 
Q 11.328125 34.375 11.328125 26.515625 
Q 11.328125 18.5 15.25 12.375 
Q 19.1875 6.25 25.875 6.25 
Q 30.671875 6.25 34.46875 9.515625 
Q 37.15625 11.765625 39.703125 17.671875 
z
" id="TimesNewRomanPSMT-99"/>
       <path d="M 42.328125 44.734375 
L 42.328125 17.625 
Q 42.328125 9.859375 42.6875 8.125 
Q 43.0625 6.390625 43.859375 5.703125 
Q 44.671875 5.03125 45.75 5.03125 
Q 47.265625 5.03125 49.171875 5.859375 
L 49.859375 4.15625 
L 36.46875 -1.375 
L 34.28125 -1.375 
L 34.28125 8.109375 
Q 28.515625 1.859375 25.484375 0.234375 
Q 22.46875 -1.375 19.09375 -1.375 
Q 15.328125 -1.375 12.5625 0.796875 
Q 9.8125 2.984375 8.734375 6.390625 
Q 7.671875 9.8125 7.671875 16.0625 
L 7.671875 36.03125 
Q 7.671875 39.203125 6.984375 40.421875 
Q 6.296875 41.65625 4.953125 42.3125 
Q 3.609375 42.96875 0.09375 42.921875 
L 0.09375 44.734375 
L 15.765625 44.734375 
L 15.765625 14.796875 
Q 15.765625 8.546875 17.9375 6.59375 
Q 20.125 4.640625 23.1875 4.640625 
Q 25.296875 4.640625 27.953125 5.953125 
Q 30.609375 7.28125 34.28125 10.984375 
L 34.28125 36.328125 
Q 34.28125 40.140625 32.890625 41.484375 
Q 31.5 42.828125 27.09375 42.921875 
L 27.09375 44.734375 
z
" id="TimesNewRomanPSMT-117"/>
       <path d="M 0.59375 44.734375 
L 21.4375 44.734375 
L 21.4375 42.921875 
L 20.40625 42.921875 
Q 18.21875 42.921875 17.109375 41.96875 
Q 16.015625 41.015625 16.015625 39.59375 
Q 16.015625 37.703125 17.625 34.328125 
L 28.515625 11.765625 
L 38.53125 36.46875 
Q 39.359375 38.484375 39.359375 40.4375 
Q 39.359375 41.3125 39.015625 41.75 
Q 38.625 42.28125 37.796875 42.59375 
Q 36.96875 42.921875 34.859375 42.921875 
L 34.859375 44.734375 
L 49.421875 44.734375 
L 49.421875 42.921875 
Q 47.609375 42.71875 46.625 42.125 
Q 45.65625 41.546875 44.484375 39.9375 
Q 44.046875 39.265625 42.828125 36.1875 
L 24.609375 -8.453125 
Q 21.96875 -14.9375 17.6875 -18.25 
Q 13.421875 -21.578125 9.46875 -21.578125 
Q 6.59375 -21.578125 4.734375 -19.921875 
Q 2.875 -18.265625 2.875 -16.109375 
Q 2.875 -14.0625 4.21875 -12.8125 
Q 5.5625 -11.578125 7.90625 -11.578125 
Q 9.515625 -11.578125 12.3125 -12.640625 
Q 14.265625 -13.375 14.75 -13.375 
Q 16.21875 -13.375 17.9375 -11.859375 
Q 19.671875 -10.359375 21.4375 -6 
L 24.609375 1.765625 
L 8.546875 35.5 
Q 7.8125 37.015625 6.203125 39.265625 
Q 4.984375 40.96875 4.203125 41.546875 
Q 3.078125 42.328125 0.59375 42.921875 
z
" id="TimesNewRomanPSMT-121"/>
       <path d="M 31.0625 -19.578125 
L 31.0625 -21.390625 
Q 23.6875 -17.671875 18.75 -12.703125 
Q 11.71875 -5.609375 7.90625 4 
Q 4.109375 13.625 4.109375 23.96875 
Q 4.109375 39.109375 11.578125 51.578125 
Q 19.046875 64.0625 31.0625 69.4375 
L 31.0625 67.390625 
Q 25.046875 64.0625 21.1875 58.296875 
Q 17.328125 52.546875 15.421875 43.703125 
Q 13.53125 34.859375 13.53125 25.25 
Q 13.53125 14.796875 15.140625 6.25 
Q 16.40625 -0.484375 18.203125 -4.5625 
Q 20.015625 -8.640625 23.0625 -12.390625 
Q 26.125 -16.15625 31.0625 -19.578125 
z
" id="TimesNewRomanPSMT-40"/>
       <path d="M 67.96875 67.71875 
L 19.734375 -2.734375 
L 15.375 -2.734375 
L 63.625 67.71875 
z
M 17.78125 67.71875 
Q 24.359375 67.71875 28 62.25 
Q 31.640625 56.78125 31.640625 49.703125 
Q 31.640625 41.21875 27.53125 36.578125 
Q 23.4375 31.9375 17.671875 31.9375 
Q 13.8125 31.9375 10.59375 34.0625 
Q 7.375 36.1875 5.4375 40.375 
Q 3.515625 44.578125 3.515625 49.703125 
Q 3.515625 54.828125 5.46875 59.15625 
Q 7.421875 63.484375 10.8125 65.59375 
Q 14.203125 67.71875 17.78125 67.71875 
z
M 17.625 64.984375 
Q 15.140625 64.984375 13.203125 62.046875 
Q 11.28125 59.125 11.28125 49.75 
Q 11.28125 42.96875 12.359375 39.40625 
Q 13.1875 36.71875 14.9375 35.25 
Q 15.96875 34.375 17.484375 34.375 
Q 19.828125 34.375 21.484375 36.921875 
Q 23.921875 40.671875 23.921875 49.46875 
Q 23.921875 58.734375 21.53125 62.5 
Q 19.96875 64.984375 17.625 64.984375 
z
M 65.71875 32.859375 
Q 69.1875 32.859375 72.625 30.65625 
Q 76.078125 28.46875 77.953125 24.265625 
Q 79.828125 20.0625 79.828125 15.046875 
Q 79.828125 6.390625 75.671875 1.828125 
Q 71.53125 -2.734375 65.875 -2.734375 
Q 62.3125 -2.734375 58.953125 -0.53125 
Q 55.609375 1.65625 53.6875 5.734375 
Q 51.765625 9.8125 51.765625 15.046875 
Q 51.765625 20.171875 53.6875 24.40625 
Q 55.609375 28.65625 58.953125 30.75 
Q 62.3125 32.859375 65.71875 32.859375 
z
M 65.765625 30.28125 
Q 63.421875 30.28125 61.71875 27.640625 
Q 59.515625 24.21875 59.515625 14.703125 
Q 59.515625 5.953125 61.765625 2.484375 
Q 63.421875 0 65.765625 0 
Q 68.015625 0 69.78125 2.6875 
Q 72.125 6.25 72.125 14.9375 
Q 72.125 24.125 69.78125 27.78125 
Q 68.171875 30.28125 65.765625 30.28125 
z
" id="TimesNewRomanPSMT-37"/>
       <path d="M 2.25 67.390625 
L 2.25 69.4375 
Q 9.671875 65.765625 14.59375 60.796875 
Q 21.578125 53.65625 25.390625 44.0625 
Q 29.203125 34.46875 29.203125 24.078125 
Q 29.203125 8.9375 21.75 -3.53125 
Q 14.3125 -16.015625 2.25 -21.390625 
L 2.25 -19.578125 
Q 8.25 -16.21875 12.125 -10.46875 
Q 16.015625 -4.734375 17.890625 4.125 
Q 19.78125 12.984375 19.78125 22.609375 
Q 19.78125 33.015625 18.171875 41.609375 
Q 16.9375 48.34375 15.109375 52.390625 
Q 13.28125 56.453125 10.25 60.203125 
Q 7.234375 63.96875 2.25 67.390625 
z
" id="TimesNewRomanPSMT-41"/>
      </defs>
      <use xlink:href="#TimesNewRomanPSMT-65"/>
      <use x="72.216797" xlink:href="#TimesNewRomanPSMT-99"/>
      <use x="116.601562" xlink:href="#TimesNewRomanPSMT-99"/>
      <use x="160.986328" xlink:href="#TimesNewRomanPSMT-117"/>
      <use x="210.986328" xlink:href="#TimesNewRomanPSMT-114"/>
      <use x="244.287109" xlink:href="#TimesNewRomanPSMT-97"/>
      <use x="288.671875" xlink:href="#TimesNewRomanPSMT-99"/>
      <use x="333.056641" xlink:href="#TimesNewRomanPSMT-121"/>
      <use x="383.056641" xlink:href="#TimesNewRomanPSMT-32"/>
      <use x="408.056641" xlink:href="#TimesNewRomanPSMT-40"/>
      <use x="441.357422" xlink:href="#TimesNewRomanPSMT-37"/>
      <use x="524.658203" xlink:href="#TimesNewRomanPSMT-41"/>
     </g>
    </g>
   </g>
   <g id="line2d_29">
    <path clip-path="url(#pcd7977418c)" d="M 69.218182 204.38519 
L 85.237321 212.2099 
L 101.256459 192.213419 
L 117.275598 195.111459 
L 133.294737 190.474594 
L 149.313876 225.830692 
L 165.333014 186.127533 
L 181.352153 226.4103 
L 197.371292 214.528333 
L 213.390431 227.569516 
L 229.409569 199.168717 
L 245.428708 192.793027 
L 261.447847 216.556961 
L 277.466986 202.356561 
L 293.486124 180.91106 
L 309.505263 189.315378 
L 325.524402 195.980872 
L 341.543541 233.655402 
L 357.562679 238.871875 
L 373.581818 187.576553 
" style="fill:none;stroke:#1f77b4;stroke-linecap:square;"/>
    <defs>
     <path d="M -0 3 
L 3 -3 
L -3 -3 
z
" id="mc18f3e6e49" style="stroke:#1f77b4;stroke-linejoin:miter;"/>
    </defs>
    <g clip-path="url(#pcd7977418c)">
     <use style="fill:#1f77b4;stroke:#1f77b4;stroke-linejoin:miter;" x="69.218182" xlink:href="#mc18f3e6e49" y="204.38519"/>
     <use style="fill:#1f77b4;stroke:#1f77b4;stroke-linejoin:miter;" x="85.237321" xlink:href="#mc18f3e6e49" y="212.2099"/>
     <use style="fill:#1f77b4;stroke:#1f77b4;stroke-linejoin:miter;" x="101.256459" xlink:href="#mc18f3e6e49" y="192.213419"/>
     <use style="fill:#1f77b4;stroke:#1f77b4;stroke-linejoin:miter;" x="117.275598" xlink:href="#mc18f3e6e49" y="195.111459"/>
     <use style="fill:#1f77b4;stroke:#1f77b4;stroke-linejoin:miter;" x="133.294737" xlink:href="#mc18f3e6e49" y="190.474594"/>
     <use style="fill:#1f77b4;stroke:#1f77b4;stroke-linejoin:miter;" x="149.313876" xlink:href="#mc18f3e6e49" y="225.830692"/>
     <use style="fill:#1f77b4;stroke:#1f77b4;stroke-linejoin:miter;" x="165.333014" xlink:href="#mc18f3e6e49" y="186.127533"/>
     <use style="fill:#1f77b4;stroke:#1f77b4;stroke-linejoin:miter;" x="181.352153" xlink:href="#mc18f3e6e49" y="226.4103"/>
     <use style="fill:#1f77b4;stroke:#1f77b4;stroke-linejoin:miter;" x="197.371292" xlink:href="#mc18f3e6e49" y="214.528333"/>
     <use style="fill:#1f77b4;stroke:#1f77b4;stroke-linejoin:miter;" x="213.390431" xlink:href="#mc18f3e6e49" y="227.569516"/>
     <use style="fill:#1f77b4;stroke:#1f77b4;stroke-linejoin:miter;" x="229.409569" xlink:href="#mc18f3e6e49" y="199.168717"/>
     <use style="fill:#1f77b4;stroke:#1f77b4;stroke-linejoin:miter;" x="245.428708" xlink:href="#mc18f3e6e49" y="192.793027"/>
     <use style="fill:#1f77b4;stroke:#1f77b4;stroke-linejoin:miter;" x="261.447847" xlink:href="#mc18f3e6e49" y="216.556961"/>
     <use style="fill:#1f77b4;stroke:#1f77b4;stroke-linejoin:miter;" x="277.466986" xlink:href="#mc18f3e6e49" y="202.356561"/>
     <use style="fill:#1f77b4;stroke:#1f77b4;stroke-linejoin:miter;" x="293.486124" xlink:href="#mc18f3e6e49" y="180.91106"/>
     <use style="fill:#1f77b4;stroke:#1f77b4;stroke-linejoin:miter;" x="309.505263" xlink:href="#mc18f3e6e49" y="189.315378"/>
     <use style="fill:#1f77b4;stroke:#1f77b4;stroke-linejoin:miter;" x="325.524402" xlink:href="#mc18f3e6e49" y="195.980872"/>
     <use style="fill:#1f77b4;stroke:#1f77b4;stroke-linejoin:miter;" x="341.543541" xlink:href="#mc18f3e6e49" y="233.655402"/>
     <use style="fill:#1f77b4;stroke:#1f77b4;stroke-linejoin:miter;" x="357.562679" xlink:href="#mc18f3e6e49" y="238.871875"/>
     <use style="fill:#1f77b4;stroke:#1f77b4;stroke-linejoin:miter;" x="373.581818" xlink:href="#mc18f3e6e49" y="187.576553"/>
    </g>
   </g>
   <g id="line2d_30">
    <path clip-path="url(#pcd7977418c)" d="M 69.218182 150.191827 
L 85.237321 156.857321 
L 101.256459 156.857321 
L 117.275598 179.462039 
L 133.294737 193.662439 
L 149.313876 180.041647 
L 165.333014 176.853802 
L 181.352153 168.449484 
L 197.371292 166.420856 
L 213.390431 165.551443 
L 229.409569 184.678513 
L 245.428708 189.025574 
L 261.447847 160.33497 
L 277.466986 166.71066 
L 293.486124 150.481631 
L 309.505263 176.853802 
L 325.524402 165.841248 
L 341.543541 209.891467 
L 357.562679 175.404782 
L 373.581818 177.433411 
" style="fill:none;stroke:#ff7f0e;stroke-linecap:square;"/>
    <defs>
     <path d="M 0 1.5 
C 0.397805 1.5 0.77937 1.341951 1.06066 1.06066 
C 1.341951 0.77937 1.5 0.397805 1.5 0 
C 1.5 -0.397805 1.341951 -0.77937 1.06066 -1.06066 
C 0.77937 -1.341951 0.397805 -1.5 0 -1.5 
C -0.397805 -1.5 -0.77937 -1.341951 -1.06066 -1.06066 
C -1.341951 -0.77937 -1.5 -0.397805 -1.5 0 
C -1.5 0.397805 -1.341951 0.77937 -1.06066 1.06066 
C -0.77937 1.341951 -0.397805 1.5 0 1.5 
z
" id="m32cc7d6787" style="stroke:#ff7f0e;"/>
    </defs>
    <g clip-path="url(#pcd7977418c)">
     <use style="fill:#ff7f0e;stroke:#ff7f0e;" x="69.218182" xlink:href="#m32cc7d6787" y="150.191827"/>
     <use style="fill:#ff7f0e;stroke:#ff7f0e;" x="85.237321" xlink:href="#m32cc7d6787" y="156.857321"/>
     <use style="fill:#ff7f0e;stroke:#ff7f0e;" x="101.256459" xlink:href="#m32cc7d6787" y="156.857321"/>
     <use style="fill:#ff7f0e;stroke:#ff7f0e;" x="117.275598" xlink:href="#m32cc7d6787" y="179.462039"/>
     <use style="fill:#ff7f0e;stroke:#ff7f0e;" x="133.294737" xlink:href="#m32cc7d6787" y="193.662439"/>
     <use style="fill:#ff7f0e;stroke:#ff7f0e;" x="149.313876" xlink:href="#m32cc7d6787" y="180.041647"/>
     <use style="fill:#ff7f0e;stroke:#ff7f0e;" x="165.333014" xlink:href="#m32cc7d6787" y="176.853802"/>
     <use style="fill:#ff7f0e;stroke:#ff7f0e;" x="181.352153" xlink:href="#m32cc7d6787" y="168.449484"/>
     <use style="fill:#ff7f0e;stroke:#ff7f0e;" x="197.371292" xlink:href="#m32cc7d6787" y="166.420856"/>
     <use style="fill:#ff7f0e;stroke:#ff7f0e;" x="213.390431" xlink:href="#m32cc7d6787" y="165.551443"/>
     <use style="fill:#ff7f0e;stroke:#ff7f0e;" x="229.409569" xlink:href="#m32cc7d6787" y="184.678513"/>
     <use style="fill:#ff7f0e;stroke:#ff7f0e;" x="245.428708" xlink:href="#m32cc7d6787" y="189.025574"/>
     <use style="fill:#ff7f0e;stroke:#ff7f0e;" x="261.447847" xlink:href="#m32cc7d6787" y="160.33497"/>
     <use style="fill:#ff7f0e;stroke:#ff7f0e;" x="277.466986" xlink:href="#m32cc7d6787" y="166.71066"/>
     <use style="fill:#ff7f0e;stroke:#ff7f0e;" x="293.486124" xlink:href="#m32cc7d6787" y="150.481631"/>
     <use style="fill:#ff7f0e;stroke:#ff7f0e;" x="309.505263" xlink:href="#m32cc7d6787" y="176.853802"/>
     <use style="fill:#ff7f0e;stroke:#ff7f0e;" x="325.524402" xlink:href="#m32cc7d6787" y="165.841248"/>
     <use style="fill:#ff7f0e;stroke:#ff7f0e;" x="341.543541" xlink:href="#m32cc7d6787" y="209.891467"/>
     <use style="fill:#ff7f0e;stroke:#ff7f0e;" x="357.562679" xlink:href="#m32cc7d6787" y="175.404782"/>
     <use style="fill:#ff7f0e;stroke:#ff7f0e;" x="373.581818" xlink:href="#m32cc7d6787" y="177.433411"/>
    </g>
   </g>
   <g id="line2d_31">
    <path clip-path="url(#pcd7977418c)" d="M 69.218182 214.238529 
L 85.237321 215.107941 
L 101.256459 205.83421 
L 117.275598 222.353043 
L 133.294737 202.646365 
L 149.313876 201.776953 
L 165.333014 189.894986 
L 181.352153 212.499704 
L 197.371292 224.091867 
L 213.390431 244.378153 
L 229.409569 231.336969 
L 245.428708 222.063239 
L 261.447847 201.197345 
L 277.466986 244.667957 
L 293.486124 193.952243 
L 309.505263 188.156162 
L 325.524402 203.225974 
L 341.543541 204.38519 
L 357.562679 221.483631 
L 373.581818 206.124014 
" style="fill:none;stroke:#2ca02c;stroke-linecap:square;"/>
    <defs>
     <path d="M 0 -3 
L -0.673542 -0.927051 
L -2.85317 -0.927051 
L -1.089814 0.354102 
L -1.763356 2.427051 
L -0 1.145898 
L 1.763356 2.427051 
L 1.089814 0.354102 
L 2.85317 -0.927051 
L 0.673542 -0.927051 
z
" id="m1451094c69" style="stroke:#2ca02c;stroke-linejoin:bevel;"/>
    </defs>
    <g clip-path="url(#pcd7977418c)">
     <use style="fill:#2ca02c;stroke:#2ca02c;stroke-linejoin:bevel;" x="69.218182" xlink:href="#m1451094c69" y="214.238529"/>
     <use style="fill:#2ca02c;stroke:#2ca02c;stroke-linejoin:bevel;" x="85.237321" xlink:href="#m1451094c69" y="215.107941"/>
     <use style="fill:#2ca02c;stroke:#2ca02c;stroke-linejoin:bevel;" x="101.256459" xlink:href="#m1451094c69" y="205.83421"/>
     <use style="fill:#2ca02c;stroke:#2ca02c;stroke-linejoin:bevel;" x="117.275598" xlink:href="#m1451094c69" y="222.353043"/>
     <use style="fill:#2ca02c;stroke:#2ca02c;stroke-linejoin:bevel;" x="133.294737" xlink:href="#m1451094c69" y="202.646365"/>
     <use style="fill:#2ca02c;stroke:#2ca02c;stroke-linejoin:bevel;" x="149.313876" xlink:href="#m1451094c69" y="201.776953"/>
     <use style="fill:#2ca02c;stroke:#2ca02c;stroke-linejoin:bevel;" x="165.333014" xlink:href="#m1451094c69" y="189.894986"/>
     <use style="fill:#2ca02c;stroke:#2ca02c;stroke-linejoin:bevel;" x="181.352153" xlink:href="#m1451094c69" y="212.499704"/>
     <use style="fill:#2ca02c;stroke:#2ca02c;stroke-linejoin:bevel;" x="197.371292" xlink:href="#m1451094c69" y="224.091867"/>
     <use style="fill:#2ca02c;stroke:#2ca02c;stroke-linejoin:bevel;" x="213.390431" xlink:href="#m1451094c69" y="244.378153"/>
     <use style="fill:#2ca02c;stroke:#2ca02c;stroke-linejoin:bevel;" x="229.409569" xlink:href="#m1451094c69" y="231.336969"/>
     <use style="fill:#2ca02c;stroke:#2ca02c;stroke-linejoin:bevel;" x="245.428708" xlink:href="#m1451094c69" y="222.063239"/>
     <use style="fill:#2ca02c;stroke:#2ca02c;stroke-linejoin:bevel;" x="261.447847" xlink:href="#m1451094c69" y="201.197345"/>
     <use style="fill:#2ca02c;stroke:#2ca02c;stroke-linejoin:bevel;" x="277.466986" xlink:href="#m1451094c69" y="244.667957"/>
     <use style="fill:#2ca02c;stroke:#2ca02c;stroke-linejoin:bevel;" x="293.486124" xlink:href="#m1451094c69" y="193.952243"/>
     <use style="fill:#2ca02c;stroke:#2ca02c;stroke-linejoin:bevel;" x="309.505263" xlink:href="#m1451094c69" y="188.156162"/>
     <use style="fill:#2ca02c;stroke:#2ca02c;stroke-linejoin:bevel;" x="325.524402" xlink:href="#m1451094c69" y="203.225974"/>
     <use style="fill:#2ca02c;stroke:#2ca02c;stroke-linejoin:bevel;" x="341.543541" xlink:href="#m1451094c69" y="204.38519"/>
     <use style="fill:#2ca02c;stroke:#2ca02c;stroke-linejoin:bevel;" x="357.562679" xlink:href="#m1451094c69" y="221.483631"/>
     <use style="fill:#2ca02c;stroke:#2ca02c;stroke-linejoin:bevel;" x="373.581818" xlink:href="#m1451094c69" y="206.124014"/>
    </g>
   </g>
   <g id="line2d_32">
    <path clip-path="url(#pcd7977418c)" d="M 69.218182 122.370636 
L 85.237321 106.141607 
L 101.256459 115.994946 
L 117.275598 113.966317 
L 133.294737 130.48515 
L 149.313876 114.256122 
L 165.333014 138.889468 
L 181.352153 119.762399 
L 197.371292 108.46004 
L 213.390431 98.027093 
L 229.409569 101.214938 
L 245.428708 138.020056 
L 261.447847 147.583591 
L 277.466986 136.281232 
L 293.486124 125.848285 
L 309.505263 112.517297 
L 325.524402 103.823175 
L 341.543541 101.214938 
L 357.562679 106.431411 
L 373.581818 121.501224 
" style="fill:none;stroke:#ff0000;stroke-linecap:square;"/>
    <defs>
     <path d="M -3 3 
L 3 -3 
M -3 -3 
L 3 3 
" id="mf367261716" style="stroke:#ff0000;"/>
    </defs>
    <g clip-path="url(#pcd7977418c)">
     <use style="fill:#ff0000;stroke:#ff0000;" x="69.218182" xlink:href="#mf367261716" y="122.370636"/>
     <use style="fill:#ff0000;stroke:#ff0000;" x="85.237321" xlink:href="#mf367261716" y="106.141607"/>
     <use style="fill:#ff0000;stroke:#ff0000;" x="101.256459" xlink:href="#mf367261716" y="115.994946"/>
     <use style="fill:#ff0000;stroke:#ff0000;" x="117.275598" xlink:href="#mf367261716" y="113.966317"/>
     <use style="fill:#ff0000;stroke:#ff0000;" x="133.294737" xlink:href="#mf367261716" y="130.48515"/>
     <use style="fill:#ff0000;stroke:#ff0000;" x="149.313876" xlink:href="#mf367261716" y="114.256122"/>
     <use style="fill:#ff0000;stroke:#ff0000;" x="165.333014" xlink:href="#mf367261716" y="138.889468"/>
     <use style="fill:#ff0000;stroke:#ff0000;" x="181.352153" xlink:href="#mf367261716" y="119.762399"/>
     <use style="fill:#ff0000;stroke:#ff0000;" x="197.371292" xlink:href="#mf367261716" y="108.46004"/>
     <use style="fill:#ff0000;stroke:#ff0000;" x="213.390431" xlink:href="#mf367261716" y="98.027093"/>
     <use style="fill:#ff0000;stroke:#ff0000;" x="229.409569" xlink:href="#mf367261716" y="101.214938"/>
     <use style="fill:#ff0000;stroke:#ff0000;" x="245.428708" xlink:href="#mf367261716" y="138.020056"/>
     <use style="fill:#ff0000;stroke:#ff0000;" x="261.447847" xlink:href="#mf367261716" y="147.583591"/>
     <use style="fill:#ff0000;stroke:#ff0000;" x="277.466986" xlink:href="#mf367261716" y="136.281232"/>
     <use style="fill:#ff0000;stroke:#ff0000;" x="293.486124" xlink:href="#mf367261716" y="125.848285"/>
     <use style="fill:#ff0000;stroke:#ff0000;" x="309.505263" xlink:href="#mf367261716" y="112.517297"/>
     <use style="fill:#ff0000;stroke:#ff0000;" x="325.524402" xlink:href="#mf367261716" y="103.823175"/>
     <use style="fill:#ff0000;stroke:#ff0000;" x="341.543541" xlink:href="#mf367261716" y="101.214938"/>
     <use style="fill:#ff0000;stroke:#ff0000;" x="357.562679" xlink:href="#mf367261716" y="106.431411"/>
     <use style="fill:#ff0000;stroke:#ff0000;" x="373.581818" xlink:href="#mf367261716" y="121.501224"/>
    </g>
   </g>
   <g id="patch_3">
    <path d="M 54 252 
L 54 34.56 
" style="fill:none;stroke:#000000;stroke-linecap:square;stroke-linejoin:miter;stroke-width:0.8;"/>
   </g>
   <g id="patch_4">
    <path d="M 388.8 252 
L 388.8 34.56 
" style="fill:none;stroke:#000000;stroke-linecap:square;stroke-linejoin:miter;stroke-width:0.8;"/>
   </g>
   <g id="patch_5">
    <path d="M 54 252 
L 388.8 252 
" style="fill:none;stroke:#000000;stroke-linecap:square;stroke-linejoin:miter;stroke-width:0.8;"/>
   </g>
   <g id="patch_6">
    <path d="M 54 34.56 
L 388.8 34.56 
" style="fill:none;stroke:#000000;stroke-linecap:square;stroke-linejoin:miter;stroke-width:0.8;"/>
   </g>
   <g id="legend_1">
    <g id="patch_7">
     <path d="M 314.6 80.297344 
L 383.9 80.297344 
Q 385.3 80.297344 385.3 78.897344 
L 385.3 39.46 
Q 385.3 38.06 383.9 38.06 
L 314.6 38.06 
Q 313.2 38.06 313.2 39.46 
L 313.2 78.897344 
Q 313.2 80.297344 314.6 80.297344 
z
" style="fill:#ffffff;opacity:0.8;stroke:#cccccc;stroke-linejoin:miter;"/>
    </g>
    <g id="line2d_33">
     <path d="M 316 43.31 
L 330 43.31 
" style="fill:none;stroke:#1f77b4;stroke-linecap:square;"/>
    </g>
    <g id="line2d_34">
     <g>
      <use style="fill:#1f77b4;stroke:#1f77b4;stroke-linejoin:miter;" x="323" xlink:href="#mc18f3e6e49" y="43.31"/>
     </g>
    </g>
    <g id="text_31">
     <!-- M(3$\sigma$,None) -->
     <g transform="translate(335.6 45.76)scale(0.07 -0.07)">
      <defs>
       <path d="M 47.65625 22.5625 
L 65.625 66.21875 
L 92.578125 66.21875 
L 92.578125 64.40625 
L 90.4375 64.40625 
Q 87.5 64.40625 85.75 63.375 
Q 84.515625 62.703125 83.796875 61.078125 
Q 83.25 59.90625 83.25 54.984375 
L 83.25 11.328125 
Q 83.25 6.25 83.78125 4.984375 
Q 84.328125 3.71875 85.984375 2.765625 
Q 87.640625 1.8125 90.4375 1.8125 
L 92.578125 1.8125 
L 92.578125 0 
L 58.015625 0 
L 58.015625 1.8125 
L 60.15625 1.8125 
Q 63.09375 1.8125 64.84375 2.828125 
Q 66.0625 3.515625 66.796875 5.171875 
Q 67.328125 6.34375 67.328125 11.328125 
L 67.328125 60.40625 
L 41.9375 0 
L 40.765625 0 
L 14.984375 59.96875 
L 14.984375 13.328125 
Q 14.984375 8.453125 15.234375 7.328125 
Q 15.875 4.890625 18 3.34375 
Q 20.125 1.8125 24.65625 1.8125 
L 24.65625 0 
L 2 0 
L 2 1.8125 
L 2.6875 1.8125 
Q 4.890625 1.765625 6.78125 2.515625 
Q 8.6875 3.265625 9.65625 4.53125 
Q 10.640625 5.8125 11.1875 8.109375 
Q 11.28125 8.640625 11.28125 13.09375 
L 11.28125 54.984375 
Q 11.28125 60.015625 10.734375 61.25 
Q 10.203125 62.5 8.546875 63.453125 
Q 6.890625 64.40625 4.109375 64.40625 
L 2 64.40625 
L 2 66.21875 
L 29.046875 66.21875 
z
" id="TimesNewRomanPS-BoldMT-77"/>
       <path d="M 32.125 67.71875 
L 32.125 65.484375 
Q 27.046875 62.15625 24.65625 58.984375 
Q 21.34375 54.59375 19.484375 47.703125 
Q 17.140625 39.15625 17.140625 23.828125 
Q 17.140625 9.375 19.265625 1.359375 
Q 21.390625 -6.640625 25.046875 -11.578125 
Q 27.59375 -14.984375 32.125 -17.578125 
L 32.125 -20.015625 
Q 20.359375 -16.0625 12.171875 -3.875 
Q 4 8.296875 4 24.125 
Q 4 39.75 12.15625 51.78125 
Q 20.3125 63.8125 32.125 67.71875 
z
" id="TimesNewRomanPS-BoldMT-40"/>
       <path d="M 46.921875 33.109375 
Q 46.921875 43.5 37.640625 43.5 
Q 31.890625 43.5 28.03125 39.359375 
Q 24.171875 35.15625 22.65625 27.296875 
Q 22.015625 24.125 22.015625 21.53125 
Q 22.015625 11.078125 31.34375 11.078125 
Q 37.109375 11.078125 40.96875 15.234375 
Q 44.78125 19.4375 46.34375 27.296875 
Q 46.921875 30.515625 46.921875 33.109375 
z
M 75.6875 42.1875 
L 64.203125 42.1875 
Q 65.28125 38.71875 65.28125 34.90625 
Q 65.28125 31.15625 64.546875 27.296875 
Q 61.921875 13.8125 52.484375 6.1875 
Q 43.0625 -1.421875 28.953125 -1.421875 
Q 14.796875 -1.421875 8.296875 6.203125 
Q 3.65625 11.625 3.65625 20.015625 
Q 3.65625 23.4375 4.4375 27.296875 
Q 7.03125 40.765625 16.5 48.390625 
Q 24.3125 54.6875 39.890625 54.6875 
L 78.125 54.6875 
z
" id="DejaVuSans-BoldOblique-963"/>
       <path d="M 4.984375 -17.53125 
L 4.984375 -15.375 
Q 10.640625 -12.9375 13.203125 -9.046875 
Q 15.765625 -5.171875 15.765625 -1.125 
Q 15.765625 -0.296875 15.4375 0.140625 
Q 15.09375 0.53125 14.75 0.53125 
Q 14.453125 0.53125 13.875 0.203125 
Q 12.453125 -0.640625 10.359375 -0.640625 
Q 7.46875 -0.640625 5.34375 1.609375 
Q 3.21875 3.859375 3.21875 6.890625 
Q 3.21875 10.109375 5.65625 12.546875 
Q 8.109375 14.984375 11.578125 14.984375 
Q 15.765625 14.984375 18.75 11.734375 
Q 21.734375 8.5 21.734375 2.828125 
Q 21.734375 -4.15625 17.5 -9.5625 
Q 13.28125 -14.984375 4.984375 -17.53125 
z
" id="TimesNewRomanPS-BoldMT-44"/>
       <path d="M 24.90625 66.21875 
L 57.5625 25.140625 
L 57.5625 53.609375 
Q 57.5625 59.578125 55.859375 61.671875 
Q 53.515625 64.5 48 64.40625 
L 48 66.21875 
L 69.875 66.21875 
L 69.875 64.40625 
Q 65.671875 63.875 64.234375 63.015625 
Q 62.796875 62.15625 61.984375 60.21875 
Q 61.1875 58.296875 61.1875 53.609375 
L 61.1875 -1.515625 
L 59.515625 -1.515625 
L 14.75 53.609375 
L 14.75 11.53125 
Q 14.75 5.8125 17.359375 3.8125 
Q 19.96875 1.8125 23.34375 1.8125 
L 24.90625 1.8125 
L 24.90625 0 
L 1.421875 0 
L 1.421875 1.8125 
Q 6.890625 1.859375 9.03125 4.046875 
Q 11.1875 6.25 11.1875 11.53125 
L 11.1875 58.25 
L 9.765625 60.015625 
Q 7.671875 62.640625 6.046875 63.46875 
Q 4.4375 64.3125 1.421875 64.40625 
L 1.421875 66.21875 
z
" id="TimesNewRomanPS-BoldMT-78"/>
       <path d="M 24.90625 47.015625 
Q 30.859375 47.015625 35.984375 43.9375 
Q 41.109375 40.875 43.765625 35.203125 
Q 46.4375 29.546875 46.4375 22.796875 
Q 46.4375 13.09375 41.5 6.546875 
Q 35.546875 -1.375 25.046875 -1.375 
Q 14.75 -1.375 9.171875 5.859375 
Q 3.609375 13.09375 3.609375 22.609375 
Q 3.609375 32.421875 9.296875 39.71875 
Q 14.984375 47.015625 24.90625 47.015625 
z
M 25.09375 43.5625 
Q 22.609375 43.5625 20.828125 41.671875 
Q 19.046875 39.796875 18.484375 34.25 
Q 17.921875 28.71875 17.921875 18.84375 
Q 17.921875 13.625 18.609375 9.078125 
Q 19.140625 5.609375 20.890625 3.796875 
Q 22.65625 2 24.90625 2 
Q 27.09375 2 28.5625 3.21875 
Q 30.46875 4.890625 31.109375 7.859375 
Q 32.078125 12.5 32.078125 26.609375 
Q 32.078125 34.90625 31.140625 38 
Q 30.21875 41.109375 28.421875 42.53125 
Q 27.15625 43.5625 25.09375 43.5625 
z
" id="TimesNewRomanPS-BoldMT-111"/>
       <path d="M 22.015625 45.65625 
L 22.015625 39.75 
Q 25.53125 43.5625 28.75 45.28125 
Q 31.984375 47.015625 35.6875 47.015625 
Q 40.140625 47.015625 43.0625 44.546875 
Q 46 42.09375 46.96875 38.421875 
Q 47.75 35.640625 47.75 27.734375 
L 47.75 9.96875 
Q 47.75 4.6875 48.703125 3.390625 
Q 49.65625 2.09375 52.6875 1.765625 
L 52.6875 0 
L 29.59375 0 
L 29.59375 1.765625 
Q 32.171875 2.09375 33.296875 3.90625 
Q 34.078125 5.125 34.078125 9.96875 
L 34.078125 30.28125 
Q 34.078125 35.890625 33.640625 37.34375 
Q 33.203125 38.8125 32.15625 39.625 
Q 31.109375 40.4375 29.828125 40.4375 
Q 25.640625 40.4375 22.015625 34.421875 
L 22.015625 9.96875 
Q 22.015625 4.828125 22.96875 3.453125 
Q 23.921875 2.09375 26.515625 1.765625 
L 26.515625 0 
L 3.421875 0 
L 3.421875 1.765625 
Q 6.296875 2.046875 7.515625 3.609375 
Q 8.34375 4.6875 8.34375 9.96875 
L 8.34375 35.75 
Q 8.34375 40.921875 7.390625 42.1875 
Q 6.453125 43.453125 3.421875 43.84375 
L 3.421875 45.65625 
z
" id="TimesNewRomanPS-BoldMT-110"/>
       <path d="M 42.046875 24.46875 
L 17 24.46875 
Q 17.4375 15.375 21.828125 10.109375 
Q 25.203125 6.0625 29.9375 6.0625 
Q 32.859375 6.0625 35.25 7.6875 
Q 37.640625 9.328125 40.375 13.578125 
L 42.046875 12.5 
Q 38.328125 4.9375 33.828125 1.78125 
Q 29.34375 -1.375 23.4375 -1.375 
Q 13.28125 -1.375 8.0625 6.453125 
Q 3.859375 12.75 3.859375 22.078125 
Q 3.859375 33.5 10.03125 40.25 
Q 16.21875 47.015625 24.515625 47.015625 
Q 31.453125 47.015625 36.546875 41.328125 
Q 41.65625 35.640625 42.046875 24.46875 
z
M 30.03125 27.734375 
Q 30.03125 35.59375 29.171875 38.515625 
Q 28.328125 41.453125 26.515625 42.96875 
Q 25.484375 43.84375 23.78125 43.84375 
Q 21.234375 43.84375 19.625 41.359375 
Q 16.75 37.015625 16.75 29.4375 
L 16.75 27.734375 
z
" id="TimesNewRomanPS-BoldMT-101"/>
       <path d="M 1.21875 -20.015625 
L 1.21875 -17.78125 
Q 6.296875 -14.40625 8.6875 -11.234375 
Q 11.96875 -6.84375 13.875 0 
Q 16.21875 8.59375 16.21875 23.921875 
Q 16.21875 38.375 14.09375 46.359375 
Q 11.96875 54.34375 8.296875 59.28125 
Q 5.765625 62.703125 1.21875 65.28125 
L 1.21875 67.71875 
Q 12.984375 63.765625 21.15625 51.578125 
Q 29.34375 39.40625 29.34375 23.578125 
Q 29.34375 8.015625 21.15625 -4.015625 
Q 12.984375 -16.0625 1.21875 -20.015625 
z
" id="TimesNewRomanPS-BoldMT-41"/>
      </defs>
      <use transform="translate(0 0.28125)" xlink:href="#TimesNewRomanPS-BoldMT-77"/>
      <use transform="translate(94.384766 0.28125)" xlink:href="#TimesNewRomanPS-BoldMT-40"/>
      <use transform="translate(127.685547 0.28125)" xlink:href="#TimesNewRomanPS-BoldMT-51"/>
      <use transform="translate(177.685547 0.28125)" xlink:href="#DejaVuSans-BoldOblique-963"/>
      <use transform="translate(255.566406 0.28125)" xlink:href="#TimesNewRomanPS-BoldMT-44"/>
      <use transform="translate(280.566406 0.28125)" xlink:href="#TimesNewRomanPS-BoldMT-78"/>
      <use transform="translate(352.783203 0.28125)" xlink:href="#TimesNewRomanPS-BoldMT-111"/>
      <use transform="translate(402.783203 0.28125)" xlink:href="#TimesNewRomanPS-BoldMT-110"/>
      <use transform="translate(458.398438 0.28125)" xlink:href="#TimesNewRomanPS-BoldMT-101"/>
      <use transform="translate(502.783203 0.28125)" xlink:href="#TimesNewRomanPS-BoldMT-41"/>
     </g>
    </g>
    <g id="line2d_35">
     <path d="M 316 53.39 
L 330 53.39 
" style="fill:none;stroke:#ff7f0e;stroke-linecap:square;"/>
    </g>
    <g id="line2d_36">
     <g>
      <use style="fill:#ff7f0e;stroke:#ff7f0e;" x="323" xlink:href="#m32cc7d6787" y="53.39"/>
     </g>
    </g>
    <g id="text_32">
     <!-- M(3$\sigma$,$L_1$) -->
     <g transform="translate(335.6 55.84)scale(0.07 -0.07)">
      <defs>
       <path d="M 16.3125 72.90625 
L 35.109375 72.90625 
L 23.6875 14.203125 
L 56.59375 14.203125 
L 53.90625 0 
L 2.09375 0 
z
" id="DejaVuSans-BoldOblique-76"/>
       <path d="M 11.71875 12.984375 
L 28.328125 12.984375 
L 28.328125 60.109375 
L 11.28125 56.59375 
L 11.28125 69.390625 
L 28.21875 72.90625 
L 46.09375 72.90625 
L 46.09375 12.984375 
L 62.703125 12.984375 
L 62.703125 0 
L 11.71875 0 
z
" id="DejaVuSans-Bold-49"/>
      </defs>
      <use transform="translate(0 0.09375)" xlink:href="#TimesNewRomanPS-BoldMT-77"/>
      <use transform="translate(94.384766 0.09375)" xlink:href="#TimesNewRomanPS-BoldMT-40"/>
      <use transform="translate(127.685547 0.09375)" xlink:href="#TimesNewRomanPS-BoldMT-51"/>
      <use transform="translate(177.685547 0.09375)" xlink:href="#DejaVuSans-BoldOblique-963"/>
      <use transform="translate(255.566406 0.09375)" xlink:href="#TimesNewRomanPS-BoldMT-44"/>
      <use transform="translate(280.566406 0.09375)" xlink:href="#DejaVuSans-BoldOblique-76"/>
      <use transform="translate(344.287109 -16.3125)scale(0.7)" xlink:href="#DejaVuSans-Bold-49"/>
      <use transform="translate(395.727539 0.09375)" xlink:href="#TimesNewRomanPS-BoldMT-41"/>
     </g>
    </g>
    <g id="line2d_37">
     <path d="M 316 63.47 
L 330 63.47 
" style="fill:none;stroke:#2ca02c;stroke-linecap:square;"/>
    </g>
    <g id="line2d_38">
     <g>
      <use style="fill:#2ca02c;stroke:#2ca02c;stroke-linejoin:bevel;" x="323" xlink:href="#m1451094c69" y="63.47"/>
     </g>
    </g>
    <g id="text_33">
     <!-- M(3$\sigma$,$L_2$) -->
     <g transform="translate(335.6 65.92)scale(0.07 -0.07)">
      <defs>
       <path d="M 28.8125 13.8125 
L 60.890625 13.8125 
L 60.890625 0 
L 7.90625 0 
L 7.90625 13.8125 
L 34.515625 37.3125 
Q 38.09375 40.53125 39.796875 43.609375 
Q 41.5 46.6875 41.5 50 
Q 41.5 55.125 38.0625 58.25 
Q 34.625 61.375 28.90625 61.375 
Q 24.515625 61.375 19.28125 59.5 
Q 14.0625 57.625 8.109375 53.90625 
L 8.109375 69.921875 
Q 14.453125 72.015625 20.65625 73.109375 
Q 26.859375 74.21875 32.8125 74.21875 
Q 45.90625 74.21875 53.15625 68.453125 
Q 60.40625 62.703125 60.40625 52.390625 
Q 60.40625 46.4375 57.328125 41.28125 
Q 54.25 36.140625 44.390625 27.484375 
z
" id="DejaVuSans-Bold-50"/>
      </defs>
      <use transform="translate(0 0.09375)" xlink:href="#TimesNewRomanPS-BoldMT-77"/>
      <use transform="translate(94.384766 0.09375)" xlink:href="#TimesNewRomanPS-BoldMT-40"/>
      <use transform="translate(127.685547 0.09375)" xlink:href="#TimesNewRomanPS-BoldMT-51"/>
      <use transform="translate(177.685547 0.09375)" xlink:href="#DejaVuSans-BoldOblique-963"/>
      <use transform="translate(255.566406 0.09375)" xlink:href="#TimesNewRomanPS-BoldMT-44"/>
      <use transform="translate(280.566406 0.09375)" xlink:href="#DejaVuSans-BoldOblique-76"/>
      <use transform="translate(344.287109 -16.3125)scale(0.7)" xlink:href="#DejaVuSans-Bold-50"/>
      <use transform="translate(395.727539 0.09375)" xlink:href="#TimesNewRomanPS-BoldMT-41"/>
     </g>
    </g>
    <g id="line2d_39">
     <path d="M 316 73.55 
L 330 73.55 
" style="fill:none;stroke:#ff0000;stroke-linecap:square;"/>
    </g>
    <g id="line2d_40">
     <g>
      <use style="fill:#ff0000;stroke:#ff0000;" x="323" xlink:href="#mf367261716" y="73.55"/>
     </g>
    </g>
    <g id="text_34">
     <!-- M(3$\sigma$,[$L_1,L_2$]) -->
     <g transform="translate(335.6 76)scale(0.07 -0.07)">
      <defs>
       <path d="M 10.453125 -18.265625 
L 10.453125 66.21875 
L 30.078125 66.21875 
L 30.078125 64.15625 
L 27.875 64.15625 
Q 24.65625 64.15625 23.5625 63.5 
Q 22.46875 62.84375 21.90625 61.546875 
Q 21.34375 60.25 21.34375 55.328125 
L 21.34375 -7.71875 
Q 21.34375 -12.40625 21.53125 -13.09375 
Q 21.96875 -14.84375 23.15625 -15.671875 
Q 24.359375 -16.5 27.875 -16.5 
L 30.078125 -16.5 
L 30.078125 -18.265625 
z
" id="TimesNewRomanPS-BoldMT-91"/>
       <path d="M 10.203125 18.890625 
L 27.78125 18.890625 
L 27.78125 4 
L 15.71875 -14.203125 
L 5.328125 -14.203125 
L 10.203125 4 
z
" id="DejaVuSans-Bold-44"/>
       <path d="M 22.90625 66.21875 
L 22.90625 -18.265625 
L 3.265625 -18.265625 
L 3.265625 -16.40625 
L 5.46875 -16.40625 
Q 8.6875 -16.40625 9.78125 -15.765625 
Q 10.890625 -15.140625 11.453125 -13.8125 
Q 12.015625 -12.5 12.015625 -7.625 
L 12.015625 55.46875 
Q 12.015625 60.15625 11.8125 60.84375 
Q 11.375 62.546875 10.171875 63.40625 
Q 8.984375 64.265625 5.46875 64.265625 
L 3.265625 64.265625 
L 3.265625 66.21875 
z
" id="TimesNewRomanPS-BoldMT-93"/>
      </defs>
      <use transform="translate(0 0.09375)" xlink:href="#TimesNewRomanPS-BoldMT-77"/>
      <use transform="translate(94.384766 0.09375)" xlink:href="#TimesNewRomanPS-BoldMT-40"/>
      <use transform="translate(127.685547 0.09375)" xlink:href="#TimesNewRomanPS-BoldMT-51"/>
      <use transform="translate(177.685547 0.09375)" xlink:href="#DejaVuSans-BoldOblique-963"/>
      <use transform="translate(255.566406 0.09375)" xlink:href="#TimesNewRomanPS-BoldMT-44"/>
      <use transform="translate(280.566406 0.09375)" xlink:href="#TimesNewRomanPS-BoldMT-91"/>
      <use transform="translate(313.867188 0.09375)" xlink:href="#DejaVuSans-BoldOblique-76"/>
      <use transform="translate(377.587891 -16.3125)scale(0.7)" xlink:href="#DejaVuSans-Bold-49"/>
      <use transform="translate(429.02832 0.09375)" xlink:href="#DejaVuSans-Bold-44"/>
      <use transform="translate(487.856445 0.09375)" xlink:href="#DejaVuSans-BoldOblique-76"/>
      <use transform="translate(551.577148 -16.3125)scale(0.7)" xlink:href="#DejaVuSans-Bold-50"/>
      <use transform="translate(603.017578 0.09375)" xlink:href="#TimesNewRomanPS-BoldMT-93"/>
      <use transform="translate(636.318359 0.09375)" xlink:href="#TimesNewRomanPS-BoldMT-41"/>
     </g>
    </g>
   </g>
  </g>
 </g>
 <defs>
  <clipPath id="pcd7977418c">
   <rect height="217.44" width="334.8" x="54" y="34.56"/>
  </clipPath>
 </defs>
</svg>
