<?xml version="1.0" encoding="utf-8" standalone="no"?>
<!DOCTYPE svg PUBLIC "-//W3C//DTD SVG 1.1//EN"
  "http://www.w3.org/Graphics/SVG/1.1/DTD/svg11.dtd">
<!-- Created with matplotlib (https://matplotlib.org/) -->
<svg height="432pt" version="1.1" viewBox="0 0 720 432" width="720pt" xmlns="http://www.w3.org/2000/svg" xmlns:xlink="http://www.w3.org/1999/xlink">
 <metadata>
  <rdf:RDF xmlns:cc="http://creativecommons.org/ns#" xmlns:dc="http://purl.org/dc/elements/1.1/" xmlns:rdf="http://www.w3.org/1999/02/22-rdf-syntax-ns#">
   <cc:Work>
    <dc:type rdf:resource="http://purl.org/dc/dcmitype/StillImage"/>
    <dc:date>2021-05-27T10:10:16.388647</dc:date>
    <dc:format>image/svg+xml</dc:format>
    <dc:creator>
     <cc:Agent>
      <dc:title>Matplotlib v3.3.4, https://matplotlib.org/</dc:title>
     </cc:Agent>
    </dc:creator>
   </cc:Work>
  </rdf:RDF>
 </metadata>
 <defs>
  <style type="text/css">*{stroke-linecap:butt;stroke-linejoin:round;}</style>
 </defs>
 <g id="figure_1">
  <g id="patch_1">
   <path d="M 0 432 
L 720 432 
L 720 0 
L 0 0 
z
" style="fill:none;"/>
  </g>
  <g id="axes_1">
   <g id="patch_2">
    <path d="M 90 378 
L 648 378 
L 648 51.84 
L 90 51.84 
z
" style="fill:#ffffff;"/>
   </g>
   <g id="patch_3">
    <path clip-path="url(#p970eab521f)" d="M 115.363636 3639.6 
L 199.909091 3639.6 
L 199.909091 123.261264 
L 115.363636 123.261264 
z
" style="fill:#1f77b4;"/>
   </g>
   <g id="patch_4">
    <path clip-path="url(#p970eab521f)" d="M 221.045455 3639.6 
L 305.590909 3639.6 
L 305.590909 97.955747 
L 221.045455 97.955747 
z
" style="fill:#1f77b4;"/>
   </g>
   <g id="patch_5">
    <path clip-path="url(#p970eab521f)" d="M 326.727273 3639.6 
L 411.272727 3639.6 
L 411.272727 115.711264 
L 326.727273 115.711264 
z
" style="fill:#1f77b4;"/>
   </g>
   <g id="patch_6">
    <path clip-path="url(#p970eab521f)" d="M 432.409091 3639.6 
L 516.954545 3639.6 
L 516.954545 174.184713 
L 432.409091 174.184713 
z
" style="fill:#1f77b4;"/>
   </g>
   <g id="patch_7">
    <path clip-path="url(#p970eab521f)" d="M 538.090909 3639.6 
L 622.636364 3639.6 
L 622.636364 169.411724 
L 538.090909 169.411724 
z
" style="fill:#1f77b4;"/>
   </g>
   <g id="matplotlib.axis_1">
    <g id="xtick_1">
     <g id="line2d_1">
      <defs>
       <path d="M 0 0 
L 0 3.5 
" id="mcbe5b6cc4e" style="stroke:#000000;stroke-width:0.8;"/>
      </defs>
      <g>
       <use style="stroke:#000000;stroke-width:0.8;" x="157.636364" xlink:href="#mcbe5b6cc4e" y="378"/>
      </g>
     </g>
     <g id="text_1">
      <!-- M(1$\sigma$,$[L_1,L_2]$) -->
      <g transform="translate(115.936364 394.073125)scale(0.12 -0.12)">
       <defs>
        <path d="M 47.65625 22.5625 
L 65.625 66.21875 
L 92.578125 66.21875 
L 92.578125 64.40625 
L 90.4375 64.40625 
Q 87.5 64.40625 85.75 63.375 
Q 84.515625 62.703125 83.796875 61.078125 
Q 83.25 59.90625 83.25 54.984375 
L 83.25 11.328125 
Q 83.25 6.25 83.78125 4.984375 
Q 84.328125 3.71875 85.984375 2.765625 
Q 87.640625 1.8125 90.4375 1.8125 
L 92.578125 1.8125 
L 92.578125 0 
L 58.015625 0 
L 58.015625 1.8125 
L 60.15625 1.8125 
Q 63.09375 1.8125 64.84375 2.828125 
Q 66.0625 3.515625 66.796875 5.171875 
Q 67.328125 6.34375 67.328125 11.328125 
L 67.328125 60.40625 
L 41.9375 0 
L 40.765625 0 
L 14.984375 59.96875 
L 14.984375 13.328125 
Q 14.984375 8.453125 15.234375 7.328125 
Q 15.875 4.890625 18 3.34375 
Q 20.125 1.8125 24.65625 1.8125 
L 24.65625 0 
L 2 0 
L 2 1.8125 
L 2.6875 1.8125 
Q 4.890625 1.765625 6.78125 2.515625 
Q 8.6875 3.265625 9.65625 4.53125 
Q 10.640625 5.8125 11.1875 8.109375 
Q 11.28125 8.640625 11.28125 13.09375 
L 11.28125 54.984375 
Q 11.28125 60.015625 10.734375 61.25 
Q 10.203125 62.5 8.546875 63.453125 
Q 6.890625 64.40625 4.109375 64.40625 
L 2 64.40625 
L 2 66.21875 
L 29.046875 66.21875 
z
" id="TimesNewRomanPS-BoldMT-77"/>
        <path d="M 32.125 67.71875 
L 32.125 65.484375 
Q 27.046875 62.15625 24.65625 58.984375 
Q 21.34375 54.59375 19.484375 47.703125 
Q 17.140625 39.15625 17.140625 23.828125 
Q 17.140625 9.375 19.265625 1.359375 
Q 21.390625 -6.640625 25.046875 -11.578125 
Q 27.59375 -14.984375 32.125 -17.578125 
L 32.125 -20.015625 
Q 20.359375 -16.0625 12.171875 -3.875 
Q 4 8.296875 4 24.125 
Q 4 39.75 12.15625 51.78125 
Q 20.3125 63.8125 32.125 67.71875 
z
" id="TimesNewRomanPS-BoldMT-40"/>
        <path d="M 32.5625 67.578125 
L 32.5625 13.421875 
Q 32.5625 7.328125 33.09375 5.640625 
Q 33.640625 3.953125 35.34375 2.875 
Q 37.0625 1.8125 40.828125 1.8125 
L 42.328125 1.8125 
L 42.328125 0 
L 7.46875 0 
L 7.46875 1.8125 
L 9.234375 1.8125 
Q 13.484375 1.8125 15.28125 2.78125 
Q 17.09375 3.765625 17.71875 5.46875 
Q 18.359375 7.171875 18.359375 13.421875 
L 18.359375 47.75 
Q 18.359375 52.34375 17.921875 53.484375 
Q 17.484375 54.640625 16.28125 55.4375 
Q 15.09375 56.25 13.53125 56.25 
Q 11.03125 56.25 7.46875 54.6875 
L 6.59375 56.453125 
L 30.953125 67.578125 
z
" id="TimesNewRomanPS-BoldMT-49"/>
        <path d="M 46.921875 33.109375 
Q 46.921875 43.5 37.640625 43.5 
Q 31.890625 43.5 28.03125 39.359375 
Q 24.171875 35.15625 22.65625 27.296875 
Q 22.015625 24.125 22.015625 21.53125 
Q 22.015625 11.078125 31.34375 11.078125 
Q 37.109375 11.078125 40.96875 15.234375 
Q 44.78125 19.4375 46.34375 27.296875 
Q 46.921875 30.515625 46.921875 33.109375 
z
M 75.6875 42.1875 
L 64.203125 42.1875 
Q 65.28125 38.71875 65.28125 34.90625 
Q 65.28125 31.15625 64.546875 27.296875 
Q 61.921875 13.8125 52.484375 6.1875 
Q 43.0625 -1.421875 28.953125 -1.421875 
Q 14.796875 -1.421875 8.296875 6.203125 
Q 3.65625 11.625 3.65625 20.015625 
Q 3.65625 23.4375 4.4375 27.296875 
Q 7.03125 40.765625 16.5 48.390625 
Q 24.3125 54.6875 39.890625 54.6875 
L 78.125 54.6875 
z
" id="DejaVuSans-BoldOblique-963"/>
        <path d="M 4.984375 -17.53125 
L 4.984375 -15.375 
Q 10.640625 -12.9375 13.203125 -9.046875 
Q 15.765625 -5.171875 15.765625 -1.125 
Q 15.765625 -0.296875 15.4375 0.140625 
Q 15.09375 0.53125 14.75 0.53125 
Q 14.453125 0.53125 13.875 0.203125 
Q 12.453125 -0.640625 10.359375 -0.640625 
Q 7.46875 -0.640625 5.34375 1.609375 
Q 3.21875 3.859375 3.21875 6.890625 
Q 3.21875 10.109375 5.65625 12.546875 
Q 8.109375 14.984375 11.578125 14.984375 
Q 15.765625 14.984375 18.75 11.734375 
Q 21.734375 8.5 21.734375 2.828125 
Q 21.734375 -4.15625 17.5 -9.5625 
Q 13.28125 -14.984375 4.984375 -17.53125 
z
" id="TimesNewRomanPS-BoldMT-44"/>
        <path d="M 8.59375 75.984375 
L 38.921875 75.984375 
L 38.921875 64.984375 
L 25.203125 64.984375 
L 25.203125 -2.203125 
L 38.921875 -2.203125 
L 38.921875 -13.1875 
L 8.59375 -13.1875 
z
" id="DejaVuSans-Bold-91"/>
        <path d="M 16.3125 72.90625 
L 35.109375 72.90625 
L 23.6875 14.203125 
L 56.59375 14.203125 
L 53.90625 0 
L 2.09375 0 
z
" id="DejaVuSans-BoldOblique-76"/>
        <path d="M 11.71875 12.984375 
L 28.328125 12.984375 
L 28.328125 60.109375 
L 11.28125 56.59375 
L 11.28125 69.390625 
L 28.21875 72.90625 
L 46.09375 72.90625 
L 46.09375 12.984375 
L 62.703125 12.984375 
L 62.703125 0 
L 11.71875 0 
z
" id="DejaVuSans-Bold-49"/>
        <path d="M 10.203125 18.890625 
L 27.78125 18.890625 
L 27.78125 4 
L 15.71875 -14.203125 
L 5.328125 -14.203125 
L 10.203125 4 
z
" id="DejaVuSans-Bold-44"/>
        <path d="M 28.8125 13.8125 
L 60.890625 13.8125 
L 60.890625 0 
L 7.90625 0 
L 7.90625 13.8125 
L 34.515625 37.3125 
Q 38.09375 40.53125 39.796875 43.609375 
Q 41.5 46.6875 41.5 50 
Q 41.5 55.125 38.0625 58.25 
Q 34.625 61.375 28.90625 61.375 
Q 24.515625 61.375 19.28125 59.5 
Q 14.0625 57.625 8.109375 53.90625 
L 8.109375 69.921875 
Q 14.453125 72.015625 20.65625 73.109375 
Q 26.859375 74.21875 32.8125 74.21875 
Q 45.90625 74.21875 53.15625 68.453125 
Q 60.40625 62.703125 60.40625 52.390625 
Q 60.40625 46.4375 57.328125 41.28125 
Q 54.25 36.140625 44.390625 27.484375 
z
" id="DejaVuSans-Bold-50"/>
        <path d="M 37.109375 -13.1875 
L 6.78125 -13.1875 
L 6.78125 -2.203125 
L 20.515625 -2.203125 
L 20.515625 64.984375 
L 6.78125 64.984375 
L 6.78125 75.984375 
L 37.109375 75.984375 
z
" id="DejaVuSans-Bold-93"/>
        <path d="M 1.21875 -20.015625 
L 1.21875 -17.78125 
Q 6.296875 -14.40625 8.6875 -11.234375 
Q 11.96875 -6.84375 13.875 0 
Q 16.21875 8.59375 16.21875 23.921875 
Q 16.21875 38.375 14.09375 46.359375 
Q 11.96875 54.34375 8.296875 59.28125 
Q 5.765625 62.703125 1.21875 65.28125 
L 1.21875 67.71875 
Q 12.984375 63.765625 21.15625 51.578125 
Q 29.34375 39.40625 29.34375 23.578125 
Q 29.34375 8.015625 21.15625 -4.015625 
Q 12.984375 -16.0625 1.21875 -20.015625 
z
" id="TimesNewRomanPS-BoldMT-41"/>
       </defs>
       <use transform="translate(0 0.015625)" xlink:href="#TimesNewRomanPS-BoldMT-77"/>
       <use transform="translate(94.384766 0.015625)" xlink:href="#TimesNewRomanPS-BoldMT-40"/>
       <use transform="translate(127.685547 0.015625)" xlink:href="#TimesNewRomanPS-BoldMT-49"/>
       <use transform="translate(177.685547 0.015625)" xlink:href="#DejaVuSans-BoldOblique-963"/>
       <use transform="translate(255.566406 0.015625)" xlink:href="#TimesNewRomanPS-BoldMT-44"/>
       <use transform="translate(280.566406 0.015625)" xlink:href="#DejaVuSans-Bold-91"/>
       <use transform="translate(326.269531 0.015625)" xlink:href="#DejaVuSans-BoldOblique-76"/>
       <use transform="translate(389.990234 -16.390625)scale(0.7)" xlink:href="#DejaVuSans-Bold-49"/>
       <use transform="translate(441.430664 0.015625)" xlink:href="#DejaVuSans-Bold-44"/>
       <use transform="translate(500.258789 0.015625)" xlink:href="#DejaVuSans-BoldOblique-76"/>
       <use transform="translate(563.979492 -16.390625)scale(0.7)" xlink:href="#DejaVuSans-Bold-50"/>
       <use transform="translate(615.419922 0.015625)" xlink:href="#DejaVuSans-Bold-93"/>
       <use transform="translate(661.123047 0.015625)" xlink:href="#TimesNewRomanPS-BoldMT-41"/>
      </g>
     </g>
    </g>
    <g id="xtick_2">
     <g id="line2d_2">
      <g>
       <use style="stroke:#000000;stroke-width:0.8;" x="263.318182" xlink:href="#mcbe5b6cc4e" y="378"/>
      </g>
     </g>
     <g id="text_2">
      <!-- M(2$\sigma$,$[L_1,L_2]$) -->
      <g transform="translate(221.618182 394.073125)scale(0.12 -0.12)">
       <defs>
        <path d="M 41.40625 0 
L 2.4375 0 
L 2.4375 1.078125 
Q 20.359375 22.40625 24.1875 29.78125 
Q 28.03125 37.15625 28.03125 44.1875 
Q 28.03125 49.3125 24.859375 52.703125 
Q 21.6875 56.109375 17.09375 56.109375 
Q 9.578125 56.109375 5.421875 48.578125 
L 3.609375 49.21875 
Q 6.25 58.59375 11.625 63.078125 
Q 17 67.578125 24.03125 67.578125 
Q 29.046875 67.578125 33.203125 65.234375 
Q 37.359375 62.890625 39.703125 58.8125 
Q 42.046875 54.734375 42.046875 51.171875 
Q 42.046875 44.671875 38.421875 37.984375 
Q 33.5 28.953125 16.890625 12.796875 
L 31.203125 12.796875 
Q 36.46875 12.796875 38.0625 13.234375 
Q 39.65625 13.671875 40.671875 14.71875 
Q 41.703125 15.765625 43.359375 19.140625 
L 45.125 19.140625 
z
" id="TimesNewRomanPS-BoldMT-50"/>
       </defs>
       <use transform="translate(0 0.015625)" xlink:href="#TimesNewRomanPS-BoldMT-77"/>
       <use transform="translate(94.384766 0.015625)" xlink:href="#TimesNewRomanPS-BoldMT-40"/>
       <use transform="translate(127.685547 0.015625)" xlink:href="#TimesNewRomanPS-BoldMT-50"/>
       <use transform="translate(177.685547 0.015625)" xlink:href="#DejaVuSans-BoldOblique-963"/>
       <use transform="translate(255.566406 0.015625)" xlink:href="#TimesNewRomanPS-BoldMT-44"/>
       <use transform="translate(280.566406 0.015625)" xlink:href="#DejaVuSans-Bold-91"/>
       <use transform="translate(326.269531 0.015625)" xlink:href="#DejaVuSans-BoldOblique-76"/>
       <use transform="translate(389.990234 -16.390625)scale(0.7)" xlink:href="#DejaVuSans-Bold-49"/>
       <use transform="translate(441.430664 0.015625)" xlink:href="#DejaVuSans-Bold-44"/>
       <use transform="translate(500.258789 0.015625)" xlink:href="#DejaVuSans-BoldOblique-76"/>
       <use transform="translate(563.979492 -16.390625)scale(0.7)" xlink:href="#DejaVuSans-Bold-50"/>
       <use transform="translate(615.419922 0.015625)" xlink:href="#DejaVuSans-Bold-93"/>
       <use transform="translate(661.123047 0.015625)" xlink:href="#TimesNewRomanPS-BoldMT-41"/>
      </g>
     </g>
    </g>
    <g id="xtick_3">
     <g id="line2d_3">
      <g>
       <use style="stroke:#000000;stroke-width:0.8;" x="369" xlink:href="#mcbe5b6cc4e" y="378"/>
      </g>
     </g>
     <g id="text_3">
      <!-- M(3$\sigma$,$[L_1,L_2]$) -->
      <g transform="translate(327.3 394.073125)scale(0.12 -0.12)">
       <defs>
        <path d="M 14.796875 33.203125 
L 14.796875 34.90625 
Q 20.359375 36.53125 22.5 37.921875 
Q 24.65625 39.3125 26.21875 42.15625 
Q 27.78125 45.015625 27.78125 47.953125 
Q 27.78125 52 24.828125 54.90625 
Q 21.875 57.8125 17.484375 57.8125 
Q 10.640625 57.8125 5.859375 50.59375 
L 4.046875 51.21875 
Q 7.5625 59.375 13.0625 63.46875 
Q 18.5625 67.578125 25.296875 67.578125 
Q 32.171875 67.578125 36.640625 63.375 
Q 41.109375 59.1875 41.109375 53.5625 
Q 41.109375 49.90625 39.03125 46.5 
Q 36.96875 43.109375 32.515625 40.53125 
Q 38.234375 37.75 41.234375 33.671875 
Q 44.234375 29.59375 44.234375 23.4375 
Q 44.234375 13.09375 36.734375 5.828125 
Q 29.25 -1.421875 16.65625 -1.421875 
Q 8.25 -1.421875 4.390625 1.375 
Q 1.609375 3.328125 1.609375 6.390625 
Q 1.609375 8.640625 3.21875 10.21875 
Q 4.828125 11.8125 6.9375 11.8125 
Q 8.546875 11.8125 9.96875 11.140625 
Q 10.75 10.75 15.5 6.859375 
Q 20.265625 2.984375 24.421875 2.984375 
Q 28.03125 2.984375 30.609375 5.828125 
Q 33.203125 8.6875 33.203125 13.09375 
Q 33.203125 19.78125 28.515625 25.421875 
Q 23.828125 31.0625 14.796875 33.203125 
z
" id="TimesNewRomanPS-BoldMT-51"/>
       </defs>
       <use transform="translate(0 0.015625)" xlink:href="#TimesNewRomanPS-BoldMT-77"/>
       <use transform="translate(94.384766 0.015625)" xlink:href="#TimesNewRomanPS-BoldMT-40"/>
       <use transform="translate(127.685547 0.015625)" xlink:href="#TimesNewRomanPS-BoldMT-51"/>
       <use transform="translate(177.685547 0.015625)" xlink:href="#DejaVuSans-BoldOblique-963"/>
       <use transform="translate(255.566406 0.015625)" xlink:href="#TimesNewRomanPS-BoldMT-44"/>
       <use transform="translate(280.566406 0.015625)" xlink:href="#DejaVuSans-Bold-91"/>
       <use transform="translate(326.269531 0.015625)" xlink:href="#DejaVuSans-BoldOblique-76"/>
       <use transform="translate(389.990234 -16.390625)scale(0.7)" xlink:href="#DejaVuSans-Bold-49"/>
       <use transform="translate(441.430664 0.015625)" xlink:href="#DejaVuSans-Bold-44"/>
       <use transform="translate(500.258789 0.015625)" xlink:href="#DejaVuSans-BoldOblique-76"/>
       <use transform="translate(563.979492 -16.390625)scale(0.7)" xlink:href="#DejaVuSans-Bold-50"/>
       <use transform="translate(615.419922 0.015625)" xlink:href="#DejaVuSans-Bold-93"/>
       <use transform="translate(661.123047 0.015625)" xlink:href="#TimesNewRomanPS-BoldMT-41"/>
      </g>
     </g>
    </g>
    <g id="xtick_4">
     <g id="line2d_4">
      <g>
       <use style="stroke:#000000;stroke-width:0.8;" x="474.681818" xlink:href="#mcbe5b6cc4e" y="378"/>
      </g>
     </g>
     <g id="text_4">
      <!-- M(4$\sigma$,$[L_1,L_2]$) -->
      <g transform="translate(432.981818 394.073125)scale(0.12 -0.12)">
       <defs>
        <path d="M 2.484375 24.953125 
L 33.9375 67.578125 
L 39.890625 67.578125 
L 39.890625 24.953125 
L 45.953125 24.953125 
L 45.953125 14.84375 
L 39.890625 14.84375 
L 39.890625 0 
L 26.46875 0 
L 26.46875 14.84375 
L 2.484375 14.84375 
z
M 7.234375 24.953125 
L 26.46875 24.953125 
L 26.46875 51.078125 
z
" id="TimesNewRomanPS-BoldMT-52"/>
       </defs>
       <use transform="translate(0 0.015625)" xlink:href="#TimesNewRomanPS-BoldMT-77"/>
       <use transform="translate(94.384766 0.015625)" xlink:href="#TimesNewRomanPS-BoldMT-40"/>
       <use transform="translate(127.685547 0.015625)" xlink:href="#TimesNewRomanPS-BoldMT-52"/>
       <use transform="translate(177.685547 0.015625)" xlink:href="#DejaVuSans-BoldOblique-963"/>
       <use transform="translate(255.566406 0.015625)" xlink:href="#TimesNewRomanPS-BoldMT-44"/>
       <use transform="translate(280.566406 0.015625)" xlink:href="#DejaVuSans-Bold-91"/>
       <use transform="translate(326.269531 0.015625)" xlink:href="#DejaVuSans-BoldOblique-76"/>
       <use transform="translate(389.990234 -16.390625)scale(0.7)" xlink:href="#DejaVuSans-Bold-49"/>
       <use transform="translate(441.430664 0.015625)" xlink:href="#DejaVuSans-Bold-44"/>
       <use transform="translate(500.258789 0.015625)" xlink:href="#DejaVuSans-BoldOblique-76"/>
       <use transform="translate(563.979492 -16.390625)scale(0.7)" xlink:href="#DejaVuSans-Bold-50"/>
       <use transform="translate(615.419922 0.015625)" xlink:href="#DejaVuSans-Bold-93"/>
       <use transform="translate(661.123047 0.015625)" xlink:href="#TimesNewRomanPS-BoldMT-41"/>
      </g>
     </g>
    </g>
    <g id="xtick_5">
     <g id="line2d_5">
      <g>
       <use style="stroke:#000000;stroke-width:0.8;" x="580.363636" xlink:href="#mcbe5b6cc4e" y="378"/>
      </g>
     </g>
     <g id="text_5">
      <!-- M(5$\sigma$,$[L_1,L_2]$) -->
      <g transform="translate(538.663636 394.073125)scale(0.12 -0.12)">
       <defs>
        <path d="M 15.234375 66.21875 
L 46.234375 66.21875 
L 41.3125 53.609375 
L 15.234375 53.609375 
L 12.75 47.015625 
Q 29.59375 46.390625 38.671875 38.625 
Q 46.140625 32.234375 46.140625 22.703125 
Q 46.140625 16.609375 42.671875 10.765625 
Q 39.203125 4.9375 32.90625 1.78125 
Q 26.609375 -1.375 19.09375 -1.375 
Q 10.984375 -1.375 6.640625 1.65625 
Q 3.609375 3.8125 3.609375 6.546875 
Q 3.609375 8.640625 5.1875 10.25 
Q 6.78125 11.859375 8.890625 11.859375 
Q 10.796875 11.859375 12.75 11.078125 
Q 14.703125 10.296875 19.4375 6.984375 
Q 22.40625 4.9375 24.5625 4.15625 
Q 26.078125 3.5625 27.984375 3.5625 
Q 31.984375 3.5625 34.78125 6.484375 
Q 37.59375 9.421875 37.59375 13.53125 
Q 37.59375 22.125 29 27.484375 
Q 20.40625 32.859375 7.328125 32.859375 
Q 6 32.859375 3.375 32.8125 
z
" id="TimesNewRomanPS-BoldMT-53"/>
       </defs>
       <use transform="translate(0 0.015625)" xlink:href="#TimesNewRomanPS-BoldMT-77"/>
       <use transform="translate(94.384766 0.015625)" xlink:href="#TimesNewRomanPS-BoldMT-40"/>
       <use transform="translate(127.685547 0.015625)" xlink:href="#TimesNewRomanPS-BoldMT-53"/>
       <use transform="translate(177.685547 0.015625)" xlink:href="#DejaVuSans-BoldOblique-963"/>
       <use transform="translate(255.566406 0.015625)" xlink:href="#TimesNewRomanPS-BoldMT-44"/>
       <use transform="translate(280.566406 0.015625)" xlink:href="#DejaVuSans-Bold-91"/>
       <use transform="translate(326.269531 0.015625)" xlink:href="#DejaVuSans-BoldOblique-76"/>
       <use transform="translate(389.990234 -16.390625)scale(0.7)" xlink:href="#DejaVuSans-Bold-49"/>
       <use transform="translate(441.430664 0.015625)" xlink:href="#DejaVuSans-Bold-44"/>
       <use transform="translate(500.258789 0.015625)" xlink:href="#DejaVuSans-BoldOblique-76"/>
       <use transform="translate(563.979492 -16.390625)scale(0.7)" xlink:href="#DejaVuSans-Bold-50"/>
       <use transform="translate(615.419922 0.015625)" xlink:href="#DejaVuSans-Bold-93"/>
       <use transform="translate(661.123047 0.015625)" xlink:href="#TimesNewRomanPS-BoldMT-41"/>
      </g>
     </g>
    </g>
    <g id="text_6">
     <!-- Models -->
     <g transform="translate(350.999062 408.9725)scale(0.12 -0.12)">
      <defs>
       <path d="M 40.921875 0 
L 15.328125 55.71875 
L 15.328125 11.46875 
Q 15.328125 5.375 16.65625 3.859375 
Q 18.453125 1.8125 22.359375 1.8125 
L 24.703125 1.8125 
L 24.703125 0 
L 1.65625 0 
L 1.65625 1.8125 
L 4 1.8125 
Q 8.203125 1.8125 9.96875 4.34375 
Q 11.03125 5.90625 11.03125 11.46875 
L 11.03125 54.734375 
Q 11.03125 59.125 10.0625 61.078125 
Q 9.375 62.5 7.546875 63.453125 
Q 5.71875 64.40625 1.65625 64.40625 
L 1.65625 66.21875 
L 20.40625 66.21875 
L 44.4375 14.40625 
L 68.0625 66.21875 
L 86.8125 66.21875 
L 86.8125 64.40625 
L 84.515625 64.40625 
Q 80.28125 64.40625 78.515625 61.859375 
Q 77.4375 60.296875 77.4375 54.734375 
L 77.4375 11.46875 
Q 77.4375 5.375 78.8125 3.859375 
Q 80.609375 1.8125 84.515625 1.8125 
L 86.8125 1.8125 
L 86.8125 0 
L 58.6875 0 
L 58.6875 1.8125 
L 61.03125 1.8125 
Q 65.28125 1.8125 67 4.34375 
Q 68.0625 5.90625 68.0625 11.46875 
L 68.0625 55.71875 
L 42.53125 0 
z
" id="TimesNewRomanPSMT-77"/>
       <path d="M 25 46.046875 
Q 35.15625 46.046875 41.3125 38.328125 
Q 46.53125 31.734375 46.53125 23.1875 
Q 46.53125 17.1875 43.640625 11.03125 
Q 40.765625 4.890625 35.71875 1.75 
Q 30.671875 -1.375 24.46875 -1.375 
Q 14.359375 -1.375 8.40625 6.6875 
Q 3.375 13.484375 3.375 21.921875 
Q 3.375 28.078125 6.421875 34.15625 
Q 9.46875 40.234375 14.453125 43.140625 
Q 19.4375 46.046875 25 46.046875 
z
M 23.484375 42.875 
Q 20.90625 42.875 18.28125 41.328125 
Q 15.671875 39.796875 14.0625 35.9375 
Q 12.453125 32.078125 12.453125 26.03125 
Q 12.453125 16.265625 16.328125 9.171875 
Q 20.21875 2.09375 26.5625 2.09375 
Q 31.296875 2.09375 34.375 6 
Q 37.453125 9.90625 37.453125 19.4375 
Q 37.453125 31.34375 32.328125 38.1875 
Q 28.859375 42.875 23.484375 42.875 
z
" id="TimesNewRomanPSMT-111"/>
       <path d="M 34.71875 5.03125 
Q 31.453125 1.609375 28.328125 0.109375 
Q 25.203125 -1.375 21.578125 -1.375 
Q 14.265625 -1.375 8.796875 4.75 
Q 3.328125 10.890625 3.328125 20.515625 
Q 3.328125 30.125 9.375 38.109375 
Q 15.4375 46.09375 24.953125 46.09375 
Q 30.859375 46.09375 34.71875 42.328125 
L 34.71875 50.59375 
Q 34.71875 58.25 34.34375 60 
Q 33.984375 61.765625 33.203125 62.390625 
Q 32.421875 63.03125 31.25 63.03125 
Q 29.984375 63.03125 27.875 62.25 
L 27.25 63.96875 
L 40.578125 69.4375 
L 42.78125 69.4375 
L 42.78125 17.71875 
Q 42.78125 9.859375 43.140625 8.125 
Q 43.5 6.390625 44.3125 5.703125 
Q 45.125 5.03125 46.1875 5.03125 
Q 47.515625 5.03125 49.703125 5.859375 
L 50.25 4.15625 
L 36.96875 -1.375 
L 34.71875 -1.375 
z
M 34.71875 8.453125 
L 34.71875 31.5 
Q 34.421875 34.8125 32.953125 37.546875 
Q 31.5 40.28125 29.078125 41.671875 
Q 26.65625 43.0625 24.359375 43.0625 
Q 20.0625 43.0625 16.703125 39.203125 
Q 12.25 34.125 12.25 24.359375 
Q 12.25 14.5 16.546875 9.25 
Q 20.84375 4 26.125 4 
Q 30.5625 4 34.71875 8.453125 
z
" id="TimesNewRomanPSMT-100"/>
       <path d="M 10.640625 27.875 
Q 10.59375 17.921875 15.484375 12.25 
Q 20.359375 6.59375 26.953125 6.59375 
Q 31.34375 6.59375 34.59375 9 
Q 37.84375 11.421875 40.046875 17.28125 
L 41.546875 16.3125 
Q 40.53125 9.625 35.59375 4.125 
Q 30.671875 -1.375 23.25 -1.375 
Q 15.1875 -1.375 9.453125 4.90625 
Q 3.71875 11.1875 3.71875 21.78125 
Q 3.71875 33.25 9.59375 39.671875 
Q 15.484375 46.09375 24.359375 46.09375 
Q 31.890625 46.09375 36.71875 41.140625 
Q 41.546875 36.1875 41.546875 27.875 
z
M 10.640625 30.71875 
L 31.34375 30.71875 
Q 31.109375 35.015625 30.328125 36.765625 
Q 29.109375 39.5 26.6875 41.0625 
Q 24.265625 42.625 21.625 42.625 
Q 17.578125 42.625 14.375 39.46875 
Q 11.1875 36.328125 10.640625 30.71875 
z
" id="TimesNewRomanPSMT-101"/>
       <path d="M 18.5 69.4375 
L 18.5 10.109375 
Q 18.5 5.90625 19.109375 4.53125 
Q 19.734375 3.171875 21 2.46875 
Q 22.265625 1.765625 25.734375 1.765625 
L 25.734375 0 
L 3.8125 0 
L 3.8125 1.765625 
Q 6.890625 1.765625 8 2.390625 
Q 9.125 3.03125 9.765625 4.484375 
Q 10.40625 5.953125 10.40625 10.109375 
L 10.40625 50.734375 
Q 10.40625 58.296875 10.0625 60.03125 
Q 9.71875 61.765625 8.953125 62.390625 
Q 8.203125 63.03125 7.03125 63.03125 
Q 5.765625 63.03125 3.8125 62.25 
L 2.984375 63.96875 
L 16.3125 69.4375 
z
" id="TimesNewRomanPSMT-108"/>
       <path d="M 32.03125 46.046875 
L 32.03125 30.8125 
L 30.421875 30.8125 
Q 28.5625 37.984375 25.65625 40.578125 
Q 22.75 43.171875 18.265625 43.171875 
Q 14.84375 43.171875 12.734375 41.359375 
Q 10.640625 39.546875 10.640625 37.359375 
Q 10.640625 34.625 12.203125 32.671875 
Q 13.71875 30.671875 18.359375 28.421875 
L 25.484375 24.953125 
Q 35.40625 20.125 35.40625 12.203125 
Q 35.40625 6.109375 30.78125 2.359375 
Q 26.171875 -1.375 20.453125 -1.375 
Q 16.359375 -1.375 11.078125 0.09375 
Q 9.46875 0.59375 8.453125 0.59375 
Q 7.328125 0.59375 6.6875 -0.6875 
L 5.078125 -0.6875 
L 5.078125 15.28125 
L 6.6875 15.28125 
Q 8.0625 8.453125 11.90625 4.984375 
Q 15.765625 1.515625 20.5625 1.515625 
Q 23.921875 1.515625 26.046875 3.484375 
Q 28.171875 5.46875 28.171875 8.25 
Q 28.171875 11.625 25.796875 13.921875 
Q 23.4375 16.21875 16.359375 19.734375 
Q 9.28125 23.25 7.078125 26.078125 
Q 4.890625 28.859375 4.890625 33.109375 
Q 4.890625 38.625 8.671875 42.328125 
Q 12.453125 46.046875 18.453125 46.046875 
Q 21.09375 46.046875 24.859375 44.921875 
Q 27.34375 44.1875 28.171875 44.1875 
Q 28.953125 44.1875 29.390625 44.53125 
Q 29.828125 44.875 30.421875 46.046875 
z
" id="TimesNewRomanPSMT-115"/>
      </defs>
      <use xlink:href="#TimesNewRomanPSMT-77"/>
      <use x="88.916016" xlink:href="#TimesNewRomanPSMT-111"/>
      <use x="138.916016" xlink:href="#TimesNewRomanPSMT-100"/>
      <use x="188.916016" xlink:href="#TimesNewRomanPSMT-101"/>
      <use x="233.300781" xlink:href="#TimesNewRomanPSMT-108"/>
      <use x="261.083984" xlink:href="#TimesNewRomanPSMT-115"/>
     </g>
    </g>
   </g>
   <g id="matplotlib.axis_2">
    <g id="ytick_1">
     <g id="line2d_6">
      <path clip-path="url(#p970eab521f)" d="M 90 378 
L 648 378 
" style="fill:none;stroke:#95a5a6;stroke-dasharray:7.4,3.2;stroke-dashoffset:0;stroke-opacity:0.7;stroke-width:2;"/>
     </g>
     <g id="line2d_7">
      <defs>
       <path d="M 0 0 
L -3.5 0 
" id="m34f2d9445d" style="stroke:#000000;stroke-width:0.8;"/>
      </defs>
      <g>
       <use style="stroke:#000000;stroke-width:0.8;" x="90" xlink:href="#m34f2d9445d" y="378"/>
      </g>
     </g>
     <g id="text_7">
      <!-- 90 -->
      <g transform="translate(71 381.973125)scale(0.12 -0.12)">
       <defs>
        <path d="M 3.078125 -1.375 
L 3.078125 0 
Q 11.1875 1.859375 16.828125 5.46875 
Q 22.46875 9.078125 25.75 14.40625 
Q 29.046875 19.734375 30.375 26.65625 
Q 27.34375 25.09375 25.21875 24.484375 
Q 23.09375 23.875 20.75 23.875 
Q 13.234375 23.875 8.21875 29.296875 
Q 3.21875 34.71875 3.21875 44.140625 
Q 3.21875 50.6875 5.921875 56.125 
Q 8.640625 61.578125 13.671875 64.578125 
Q 18.703125 67.578125 24.125 67.578125 
Q 29.9375 67.578125 35.109375 64.25 
Q 40.28125 60.9375 43.359375 54.640625 
Q 46.4375 48.34375 46.4375 40.28125 
Q 46.4375 29.828125 41.421875 20.25 
Q 36.421875 10.6875 26.515625 4.90625 
Q 16.609375 -0.875 3.078125 -1.375 
z
M 31.109375 30.765625 
Q 31.59375 36.234375 31.59375 40.375 
Q 31.59375 49.265625 29.546875 56.9375 
Q 28.375 61.1875 26.078125 63.1875 
Q 24.859375 64.265625 22.90625 64.265625 
Q 20.453125 64.265625 19.09375 62.15625 
Q 17.1875 59.28125 17.1875 51.171875 
Q 17.1875 37.640625 20.40625 32.515625 
Q 22.515625 29.203125 26.078125 29.203125 
Q 27.984375 29.203125 31.109375 30.765625 
z
" id="TimesNewRomanPS-BoldMT-57"/>
        <path d="M 46.34375 33.109375 
Q 46.34375 23.1875 43.5625 14.59375 
Q 41.890625 9.328125 39.078125 5.953125 
Q 36.28125 2.59375 32.71875 0.609375 
Q 29.15625 -1.375 24.953125 -1.375 
Q 20.171875 -1.375 16.3125 1.0625 
Q 12.453125 3.515625 9.46875 8.0625 
Q 7.328125 11.375 5.71875 16.890625 
Q 3.609375 24.359375 3.609375 32.328125 
Q 3.609375 43.109375 6.640625 52.15625 
Q 9.125 59.625 14.203125 63.59375 
Q 19.28125 67.578125 24.953125 67.578125 
Q 30.71875 67.578125 35.71875 63.640625 
Q 40.71875 59.71875 43.0625 53.078125 
Q 46.34375 43.953125 46.34375 33.109375 
z
M 31.296875 33.203125 
Q 31.296875 50.59375 31.109375 53.46875 
Q 30.609375 60.25 28.765625 62.640625 
Q 27.546875 64.203125 24.8125 64.203125 
Q 22.703125 64.203125 21.484375 63.03125 
Q 19.671875 61.328125 19.03125 57 
Q 18.40625 52.6875 18.40625 26.859375 
Q 18.40625 12.796875 19.390625 8.015625 
Q 20.125 4.546875 21.484375 3.375 
Q 22.859375 2.203125 25.09375 2.203125 
Q 27.546875 2.203125 28.765625 3.765625 
Q 30.8125 6.5 31.109375 12.203125 
z
" id="TimesNewRomanPS-BoldMT-48"/>
       </defs>
       <use xlink:href="#TimesNewRomanPS-BoldMT-57"/>
       <use x="50" xlink:href="#TimesNewRomanPS-BoldMT-48"/>
      </g>
     </g>
    </g>
    <g id="ytick_2">
     <g id="line2d_8">
      <path clip-path="url(#p970eab521f)" d="M 90 341.76 
L 648 341.76 
" style="fill:none;stroke:#95a5a6;stroke-dasharray:7.4,3.2;stroke-dashoffset:0;stroke-opacity:0.7;stroke-width:2;"/>
     </g>
     <g id="line2d_9">
      <g>
       <use style="stroke:#000000;stroke-width:0.8;" x="90" xlink:href="#m34f2d9445d" y="341.76"/>
      </g>
     </g>
     <g id="text_8">
      <!-- 91 -->
      <g transform="translate(71 345.733125)scale(0.12 -0.12)">
       <use xlink:href="#TimesNewRomanPS-BoldMT-57"/>
       <use x="50" xlink:href="#TimesNewRomanPS-BoldMT-49"/>
      </g>
     </g>
    </g>
    <g id="ytick_3">
     <g id="line2d_10">
      <path clip-path="url(#p970eab521f)" d="M 90 305.52 
L 648 305.52 
" style="fill:none;stroke:#95a5a6;stroke-dasharray:7.4,3.2;stroke-dashoffset:0;stroke-opacity:0.7;stroke-width:2;"/>
     </g>
     <g id="line2d_11">
      <g>
       <use style="stroke:#000000;stroke-width:0.8;" x="90" xlink:href="#m34f2d9445d" y="305.52"/>
      </g>
     </g>
     <g id="text_9">
      <!-- 92 -->
      <g transform="translate(71 309.493125)scale(0.12 -0.12)">
       <use xlink:href="#TimesNewRomanPS-BoldMT-57"/>
       <use x="50" xlink:href="#TimesNewRomanPS-BoldMT-50"/>
      </g>
     </g>
    </g>
    <g id="ytick_4">
     <g id="line2d_12">
      <path clip-path="url(#p970eab521f)" d="M 90 269.28 
L 648 269.28 
" style="fill:none;stroke:#95a5a6;stroke-dasharray:7.4,3.2;stroke-dashoffset:0;stroke-opacity:0.7;stroke-width:2;"/>
     </g>
     <g id="line2d_13">
      <g>
       <use style="stroke:#000000;stroke-width:0.8;" x="90" xlink:href="#m34f2d9445d" y="269.28"/>
      </g>
     </g>
     <g id="text_10">
      <!-- 93 -->
      <g transform="translate(71 273.253125)scale(0.12 -0.12)">
       <use xlink:href="#TimesNewRomanPS-BoldMT-57"/>
       <use x="50" xlink:href="#TimesNewRomanPS-BoldMT-51"/>
      </g>
     </g>
    </g>
    <g id="ytick_5">
     <g id="line2d_14">
      <path clip-path="url(#p970eab521f)" d="M 90 233.04 
L 648 233.04 
" style="fill:none;stroke:#95a5a6;stroke-dasharray:7.4,3.2;stroke-dashoffset:0;stroke-opacity:0.7;stroke-width:2;"/>
     </g>
     <g id="line2d_15">
      <g>
       <use style="stroke:#000000;stroke-width:0.8;" x="90" xlink:href="#m34f2d9445d" y="233.04"/>
      </g>
     </g>
     <g id="text_11">
      <!-- 94 -->
      <g transform="translate(71 237.013125)scale(0.12 -0.12)">
       <use xlink:href="#TimesNewRomanPS-BoldMT-57"/>
       <use x="50" xlink:href="#TimesNewRomanPS-BoldMT-52"/>
      </g>
     </g>
    </g>
    <g id="ytick_6">
     <g id="line2d_16">
      <path clip-path="url(#p970eab521f)" d="M 90 196.8 
L 648 196.8 
" style="fill:none;stroke:#95a5a6;stroke-dasharray:7.4,3.2;stroke-dashoffset:0;stroke-opacity:0.7;stroke-width:2;"/>
     </g>
     <g id="line2d_17">
      <g>
       <use style="stroke:#000000;stroke-width:0.8;" x="90" xlink:href="#m34f2d9445d" y="196.8"/>
      </g>
     </g>
     <g id="text_12">
      <!-- 95 -->
      <g transform="translate(71 200.773125)scale(0.12 -0.12)">
       <use xlink:href="#TimesNewRomanPS-BoldMT-57"/>
       <use x="50" xlink:href="#TimesNewRomanPS-BoldMT-53"/>
      </g>
     </g>
    </g>
    <g id="ytick_7">
     <g id="line2d_18">
      <path clip-path="url(#p970eab521f)" d="M 90 160.56 
L 648 160.56 
" style="fill:none;stroke:#95a5a6;stroke-dasharray:7.4,3.2;stroke-dashoffset:0;stroke-opacity:0.7;stroke-width:2;"/>
     </g>
     <g id="line2d_19">
      <g>
       <use style="stroke:#000000;stroke-width:0.8;" x="90" xlink:href="#m34f2d9445d" y="160.56"/>
      </g>
     </g>
     <g id="text_13">
      <!-- 96 -->
      <g transform="translate(71 164.533125)scale(0.12 -0.12)">
       <defs>
        <path d="M 46.96875 67.578125 
L 46.96875 66.21875 
Q 38.140625 63.96875 32.78125 60.421875 
Q 27.4375 56.890625 24.328125 51.828125 
Q 21.234375 46.78125 19.53125 39.3125 
Q 21.6875 40.765625 23.09375 41.21875 
Q 26.265625 42.1875 29.5 42.1875 
Q 36.921875 42.1875 41.875 36.78125 
Q 46.828125 31.390625 46.828125 22.078125 
Q 46.828125 15.53125 44.140625 10.0625 
Q 41.453125 4.59375 36.515625 1.609375 
Q 31.59375 -1.375 25.984375 -1.375 
Q 19.875 -1.375 14.6875 1.96875 
Q 9.515625 5.328125 6.609375 11.765625 
Q 3.71875 18.21875 3.71875 25.78125 
Q 3.71875 36.921875 9.0625 46.515625 
Q 14.40625 56.109375 24.234375 61.796875 
Q 34.078125 67.484375 46.96875 67.578125 
z
M 18.890625 35.359375 
Q 18.5 28.609375 18.5 25.484375 
Q 18.5 18.75 19.796875 12.453125 
Q 21.09375 6.15625 23.34375 3.609375 
Q 24.953125 1.8125 27.15625 1.8125 
Q 29.390625 1.8125 31.140625 4.421875 
Q 32.90625 7.03125 32.90625 15.046875 
Q 32.90625 28.515625 29.640625 33.640625 
Q 27.546875 36.96875 23.96875 36.96875 
Q 22.015625 36.96875 18.890625 35.359375 
z
" id="TimesNewRomanPS-BoldMT-54"/>
       </defs>
       <use xlink:href="#TimesNewRomanPS-BoldMT-57"/>
       <use x="50" xlink:href="#TimesNewRomanPS-BoldMT-54"/>
      </g>
     </g>
    </g>
    <g id="ytick_8">
     <g id="line2d_20">
      <path clip-path="url(#p970eab521f)" d="M 90 124.32 
L 648 124.32 
" style="fill:none;stroke:#95a5a6;stroke-dasharray:7.4,3.2;stroke-dashoffset:0;stroke-opacity:0.7;stroke-width:2;"/>
     </g>
     <g id="line2d_21">
      <g>
       <use style="stroke:#000000;stroke-width:0.8;" x="90" xlink:href="#m34f2d9445d" y="124.32"/>
      </g>
     </g>
     <g id="text_14">
      <!-- 97 -->
      <g transform="translate(71 128.293125)scale(0.12 -0.12)">
       <defs>
        <path d="M 17.71875 -1.375 
L 35.75 53.265625 
L 22.015625 53.265625 
Q 13.96875 53.265625 9.90625 51.171875 
Q 7.078125 49.703125 5.21875 45.65625 
L 3.375 45.65625 
L 8.15625 66.21875 
L 47.609375 66.21875 
L 25.390625 -1.375 
z
" id="TimesNewRomanPS-BoldMT-55"/>
       </defs>
       <use xlink:href="#TimesNewRomanPS-BoldMT-57"/>
       <use x="50" xlink:href="#TimesNewRomanPS-BoldMT-55"/>
      </g>
     </g>
    </g>
    <g id="ytick_9">
     <g id="line2d_22">
      <path clip-path="url(#p970eab521f)" d="M 90 88.08 
L 648 88.08 
" style="fill:none;stroke:#95a5a6;stroke-dasharray:7.4,3.2;stroke-dashoffset:0;stroke-opacity:0.7;stroke-width:2;"/>
     </g>
     <g id="line2d_23">
      <g>
       <use style="stroke:#000000;stroke-width:0.8;" x="90" xlink:href="#m34f2d9445d" y="88.08"/>
      </g>
     </g>
     <g id="text_15">
      <!-- 98 -->
      <g transform="translate(71 92.053125)scale(0.12 -0.12)">
       <defs>
        <path d="M 34.078125 37.40625 
Q 41.0625 32.28125 43.765625 27.859375 
Q 46.484375 23.4375 46.484375 17.71875 
Q 46.484375 9.71875 40.453125 4.171875 
Q 34.421875 -1.375 24.078125 -1.375 
Q 14.265625 -1.375 8.890625 3.453125 
Q 3.515625 8.296875 3.515625 15.28125 
Q 3.515625 20.609375 6.609375 24.609375 
Q 9.71875 28.609375 16.9375 31.9375 
Q 9.078125 37.9375 6.859375 41.75 
Q 4.640625 45.5625 4.640625 50.59375 
Q 4.640625 57.234375 10.28125 62.28125 
Q 15.921875 67.328125 25.734375 67.328125 
Q 35.203125 67.328125 40.296875 62.859375 
Q 45.40625 58.40625 45.40625 52.15625 
Q 45.40625 47.46875 42.640625 43.875 
Q 39.890625 40.28125 34.078125 37.40625 
z
M 30.375 39.890625 
Q 32.171875 42.328125 33.046875 45.359375 
Q 33.9375 48.390625 33.9375 52 
Q 33.9375 58.34375 31.203125 61.71875 
Q 29.15625 64.3125 25.53125 64.3125 
Q 22.265625 64.3125 19.96875 61.9375 
Q 17.671875 59.578125 17.671875 56.0625 
Q 17.671875 52.484375 20.234375 48.65625 
Q 22.796875 44.828125 30.375 39.890625 
z
M 20.609375 29.59375 
Q 19.09375 28.21875 18.453125 27.09375 
Q 17.484375 25.390625 16.703125 22.109375 
Q 15.921875 18.84375 15.921875 15.28125 
Q 15.921875 10.6875 17.09375 7.59375 
Q 18.265625 4.5 20.4375 3.125 
Q 22.609375 1.765625 24.90625 1.765625 
Q 28.46875 1.765625 30.90625 4.375 
Q 33.34375 6.984375 33.34375 11.53125 
Q 33.34375 21 20.609375 29.59375 
z
" id="TimesNewRomanPS-BoldMT-56"/>
       </defs>
       <use xlink:href="#TimesNewRomanPS-BoldMT-57"/>
       <use x="50" xlink:href="#TimesNewRomanPS-BoldMT-56"/>
      </g>
     </g>
    </g>
    <g id="ytick_10">
     <g id="line2d_24">
      <path clip-path="url(#p970eab521f)" d="M 90 51.84 
L 648 51.84 
" style="fill:none;stroke:#95a5a6;stroke-dasharray:7.4,3.2;stroke-dashoffset:0;stroke-opacity:0.7;stroke-width:2;"/>
     </g>
     <g id="line2d_25">
      <g>
       <use style="stroke:#000000;stroke-width:0.8;" x="90" xlink:href="#m34f2d9445d" y="51.84"/>
      </g>
     </g>
     <g id="text_16">
      <!-- 99 -->
      <g transform="translate(71 55.813125)scale(0.12 -0.12)">
       <use xlink:href="#TimesNewRomanPS-BoldMT-57"/>
       <use x="50" xlink:href="#TimesNewRomanPS-BoldMT-57"/>
      </g>
     </g>
    </g>
    <g id="text_17">
     <!-- Accuracy (%) -->
     <g transform="translate(64.410625 248.398125)rotate(-90)scale(0.12 -0.12)">
      <defs>
       <path d="M 45.75 22.171875 
L 20.125 22.171875 
L 15.625 11.71875 
Q 13.96875 7.859375 13.96875 5.953125 
Q 13.96875 4.4375 15.40625 3.296875 
Q 16.84375 2.15625 21.625 1.8125 
L 21.625 0 
L 0.78125 0 
L 0.78125 1.8125 
Q 4.9375 2.546875 6.15625 3.71875 
Q 8.640625 6.0625 11.671875 13.234375 
L 34.96875 67.71875 
L 36.671875 67.71875 
L 59.71875 12.640625 
Q 62.5 6 64.765625 4.015625 
Q 67.046875 2.046875 71.09375 1.8125 
L 71.09375 0 
L 44.96875 0 
L 44.96875 1.8125 
Q 48.921875 2 50.3125 3.125 
Q 51.703125 4.25 51.703125 5.859375 
Q 51.703125 8.015625 49.75 12.640625 
z
M 44.390625 25.78125 
L 33.15625 52.546875 
L 21.625 25.78125 
z
" id="TimesNewRomanPSMT-65"/>
       <path d="M 41.109375 17 
Q 39.3125 8.15625 34.03125 3.390625 
Q 28.765625 -1.375 22.359375 -1.375 
Q 14.75 -1.375 9.078125 5.015625 
Q 3.421875 11.421875 3.421875 22.3125 
Q 3.421875 32.859375 9.6875 39.453125 
Q 15.96875 46.046875 24.75 46.046875 
Q 31.34375 46.046875 35.59375 42.546875 
Q 39.84375 39.0625 39.84375 35.296875 
Q 39.84375 33.453125 38.640625 32.296875 
Q 37.453125 31.15625 35.296875 31.15625 
Q 32.421875 31.15625 30.953125 33.015625 
Q 30.125 34.03125 29.859375 36.90625 
Q 29.59375 39.796875 27.875 41.3125 
Q 26.171875 42.78125 23.140625 42.78125 
Q 18.265625 42.78125 15.28125 39.15625 
Q 11.328125 34.375 11.328125 26.515625 
Q 11.328125 18.5 15.25 12.375 
Q 19.1875 6.25 25.875 6.25 
Q 30.671875 6.25 34.46875 9.515625 
Q 37.15625 11.765625 39.703125 17.671875 
z
" id="TimesNewRomanPSMT-99"/>
       <path d="M 42.328125 44.734375 
L 42.328125 17.625 
Q 42.328125 9.859375 42.6875 8.125 
Q 43.0625 6.390625 43.859375 5.703125 
Q 44.671875 5.03125 45.75 5.03125 
Q 47.265625 5.03125 49.171875 5.859375 
L 49.859375 4.15625 
L 36.46875 -1.375 
L 34.28125 -1.375 
L 34.28125 8.109375 
Q 28.515625 1.859375 25.484375 0.234375 
Q 22.46875 -1.375 19.09375 -1.375 
Q 15.328125 -1.375 12.5625 0.796875 
Q 9.8125 2.984375 8.734375 6.390625 
Q 7.671875 9.8125 7.671875 16.0625 
L 7.671875 36.03125 
Q 7.671875 39.203125 6.984375 40.421875 
Q 6.296875 41.65625 4.953125 42.3125 
Q 3.609375 42.96875 0.09375 42.921875 
L 0.09375 44.734375 
L 15.765625 44.734375 
L 15.765625 14.796875 
Q 15.765625 8.546875 17.9375 6.59375 
Q 20.125 4.640625 23.1875 4.640625 
Q 25.296875 4.640625 27.953125 5.953125 
Q 30.609375 7.28125 34.28125 10.984375 
L 34.28125 36.328125 
Q 34.28125 40.140625 32.890625 41.484375 
Q 31.5 42.828125 27.09375 42.921875 
L 27.09375 44.734375 
z
" id="TimesNewRomanPSMT-117"/>
       <path d="M 16.21875 46.046875 
L 16.21875 35.984375 
Q 21.828125 46.046875 27.734375 46.046875 
Q 30.421875 46.046875 32.171875 44.40625 
Q 33.9375 42.78125 33.9375 40.625 
Q 33.9375 38.71875 32.65625 37.390625 
Q 31.390625 36.078125 29.640625 36.078125 
Q 27.9375 36.078125 25.8125 37.765625 
Q 23.6875 39.453125 22.65625 39.453125 
Q 21.78125 39.453125 20.75 38.484375 
Q 18.5625 36.46875 16.21875 31.890625 
L 16.21875 10.453125 
Q 16.21875 6.734375 17.140625 4.828125 
Q 17.78125 3.515625 19.390625 2.640625 
Q 21 1.765625 24.03125 1.765625 
L 24.03125 0 
L 1.125 0 
L 1.125 1.765625 
Q 4.546875 1.765625 6.203125 2.828125 
Q 7.421875 3.609375 7.90625 5.328125 
Q 8.15625 6.15625 8.15625 10.0625 
L 8.15625 27.390625 
Q 8.15625 35.203125 7.828125 36.6875 
Q 7.515625 38.1875 6.65625 38.859375 
Q 5.8125 39.546875 4.546875 39.546875 
Q 3.03125 39.546875 1.125 38.8125 
L 0.640625 40.578125 
L 14.15625 46.046875 
z
" id="TimesNewRomanPSMT-114"/>
       <path d="M 28.46875 6.453125 
Q 21.578125 1.125 19.828125 0.296875 
Q 17.1875 -0.921875 14.203125 -0.921875 
Q 9.578125 -0.921875 6.5625 2.25 
Q 3.5625 5.421875 3.5625 10.59375 
Q 3.5625 13.875 5.03125 16.265625 
Q 7.03125 19.578125 11.984375 22.5 
Q 16.9375 25.4375 28.46875 29.640625 
L 28.46875 31.390625 
Q 28.46875 38.09375 26.34375 40.578125 
Q 24.21875 43.0625 20.171875 43.0625 
Q 17.09375 43.0625 15.28125 41.40625 
Q 13.421875 39.75 13.421875 37.59375 
L 13.53125 34.765625 
Q 13.53125 32.515625 12.375 31.296875 
Q 11.234375 30.078125 9.375 30.078125 
Q 7.5625 30.078125 6.421875 31.34375 
Q 5.28125 32.625 5.28125 34.8125 
Q 5.28125 39.015625 9.578125 42.53125 
Q 13.875 46.046875 21.625 46.046875 
Q 27.59375 46.046875 31.390625 44.046875 
Q 34.28125 42.53125 35.640625 39.3125 
Q 36.53125 37.203125 36.53125 30.71875 
L 36.53125 15.53125 
Q 36.53125 9.125 36.765625 7.6875 
Q 37.015625 6.25 37.578125 5.765625 
Q 38.140625 5.28125 38.875 5.28125 
Q 39.65625 5.28125 40.234375 5.609375 
Q 41.265625 6.25 44.1875 9.1875 
L 44.1875 6.453125 
Q 38.71875 -0.875 33.734375 -0.875 
Q 31.34375 -0.875 29.921875 0.78125 
Q 28.515625 2.4375 28.46875 6.453125 
z
M 28.46875 9.625 
L 28.46875 26.65625 
Q 21.09375 23.734375 18.953125 22.515625 
Q 15.09375 20.359375 13.421875 18.015625 
Q 11.765625 15.671875 11.765625 12.890625 
Q 11.765625 9.375 13.859375 7.046875 
Q 15.96875 4.734375 18.703125 4.734375 
Q 22.40625 4.734375 28.46875 9.625 
z
" id="TimesNewRomanPSMT-97"/>
       <path d="M 0.59375 44.734375 
L 21.4375 44.734375 
L 21.4375 42.921875 
L 20.40625 42.921875 
Q 18.21875 42.921875 17.109375 41.96875 
Q 16.015625 41.015625 16.015625 39.59375 
Q 16.015625 37.703125 17.625 34.328125 
L 28.515625 11.765625 
L 38.53125 36.46875 
Q 39.359375 38.484375 39.359375 40.4375 
Q 39.359375 41.3125 39.015625 41.75 
Q 38.625 42.28125 37.796875 42.59375 
Q 36.96875 42.921875 34.859375 42.921875 
L 34.859375 44.734375 
L 49.421875 44.734375 
L 49.421875 42.921875 
Q 47.609375 42.71875 46.625 42.125 
Q 45.65625 41.546875 44.484375 39.9375 
Q 44.046875 39.265625 42.828125 36.1875 
L 24.609375 -8.453125 
Q 21.96875 -14.9375 17.6875 -18.25 
Q 13.421875 -21.578125 9.46875 -21.578125 
Q 6.59375 -21.578125 4.734375 -19.921875 
Q 2.875 -18.265625 2.875 -16.109375 
Q 2.875 -14.0625 4.21875 -12.8125 
Q 5.5625 -11.578125 7.90625 -11.578125 
Q 9.515625 -11.578125 12.3125 -12.640625 
Q 14.265625 -13.375 14.75 -13.375 
Q 16.21875 -13.375 17.9375 -11.859375 
Q 19.671875 -10.359375 21.4375 -6 
L 24.609375 1.765625 
L 8.546875 35.5 
Q 7.8125 37.015625 6.203125 39.265625 
Q 4.984375 40.96875 4.203125 41.546875 
Q 3.078125 42.328125 0.59375 42.921875 
z
" id="TimesNewRomanPSMT-121"/>
       <path id="TimesNewRomanPSMT-32"/>
       <path d="M 31.0625 -19.578125 
L 31.0625 -21.390625 
Q 23.6875 -17.671875 18.75 -12.703125 
Q 11.71875 -5.609375 7.90625 4 
Q 4.109375 13.625 4.109375 23.96875 
Q 4.109375 39.109375 11.578125 51.578125 
Q 19.046875 64.0625 31.0625 69.4375 
L 31.0625 67.390625 
Q 25.046875 64.0625 21.1875 58.296875 
Q 17.328125 52.546875 15.421875 43.703125 
Q 13.53125 34.859375 13.53125 25.25 
Q 13.53125 14.796875 15.140625 6.25 
Q 16.40625 -0.484375 18.203125 -4.5625 
Q 20.015625 -8.640625 23.0625 -12.390625 
Q 26.125 -16.15625 31.0625 -19.578125 
z
" id="TimesNewRomanPSMT-40"/>
       <path d="M 67.96875 67.71875 
L 19.734375 -2.734375 
L 15.375 -2.734375 
L 63.625 67.71875 
z
M 17.78125 67.71875 
Q 24.359375 67.71875 28 62.25 
Q 31.640625 56.78125 31.640625 49.703125 
Q 31.640625 41.21875 27.53125 36.578125 
Q 23.4375 31.9375 17.671875 31.9375 
Q 13.8125 31.9375 10.59375 34.0625 
Q 7.375 36.1875 5.4375 40.375 
Q 3.515625 44.578125 3.515625 49.703125 
Q 3.515625 54.828125 5.46875 59.15625 
Q 7.421875 63.484375 10.8125 65.59375 
Q 14.203125 67.71875 17.78125 67.71875 
z
M 17.625 64.984375 
Q 15.140625 64.984375 13.203125 62.046875 
Q 11.28125 59.125 11.28125 49.75 
Q 11.28125 42.96875 12.359375 39.40625 
Q 13.1875 36.71875 14.9375 35.25 
Q 15.96875 34.375 17.484375 34.375 
Q 19.828125 34.375 21.484375 36.921875 
Q 23.921875 40.671875 23.921875 49.46875 
Q 23.921875 58.734375 21.53125 62.5 
Q 19.96875 64.984375 17.625 64.984375 
z
M 65.71875 32.859375 
Q 69.1875 32.859375 72.625 30.65625 
Q 76.078125 28.46875 77.953125 24.265625 
Q 79.828125 20.0625 79.828125 15.046875 
Q 79.828125 6.390625 75.671875 1.828125 
Q 71.53125 -2.734375 65.875 -2.734375 
Q 62.3125 -2.734375 58.953125 -0.53125 
Q 55.609375 1.65625 53.6875 5.734375 
Q 51.765625 9.8125 51.765625 15.046875 
Q 51.765625 20.171875 53.6875 24.40625 
Q 55.609375 28.65625 58.953125 30.75 
Q 62.3125 32.859375 65.71875 32.859375 
z
M 65.765625 30.28125 
Q 63.421875 30.28125 61.71875 27.640625 
Q 59.515625 24.21875 59.515625 14.703125 
Q 59.515625 5.953125 61.765625 2.484375 
Q 63.421875 0 65.765625 0 
Q 68.015625 0 69.78125 2.6875 
Q 72.125 6.25 72.125 14.9375 
Q 72.125 24.125 69.78125 27.78125 
Q 68.171875 30.28125 65.765625 30.28125 
z
" id="TimesNewRomanPSMT-37"/>
       <path d="M 2.25 67.390625 
L 2.25 69.4375 
Q 9.671875 65.765625 14.59375 60.796875 
Q 21.578125 53.65625 25.390625 44.0625 
Q 29.203125 34.46875 29.203125 24.078125 
Q 29.203125 8.9375 21.75 -3.53125 
Q 14.3125 -16.015625 2.25 -21.390625 
L 2.25 -19.578125 
Q 8.25 -16.21875 12.125 -10.46875 
Q 16.015625 -4.734375 17.890625 4.125 
Q 19.78125 12.984375 19.78125 22.609375 
Q 19.78125 33.015625 18.171875 41.609375 
Q 16.9375 48.34375 15.109375 52.390625 
Q 13.28125 56.453125 10.25 60.203125 
Q 7.234375 63.96875 2.25 67.390625 
z
" id="TimesNewRomanPSMT-41"/>
      </defs>
      <use xlink:href="#TimesNewRomanPSMT-65"/>
      <use x="72.216797" xlink:href="#TimesNewRomanPSMT-99"/>
      <use x="116.601562" xlink:href="#TimesNewRomanPSMT-99"/>
      <use x="160.986328" xlink:href="#TimesNewRomanPSMT-117"/>
      <use x="210.986328" xlink:href="#TimesNewRomanPSMT-114"/>
      <use x="244.287109" xlink:href="#TimesNewRomanPSMT-97"/>
      <use x="288.671875" xlink:href="#TimesNewRomanPSMT-99"/>
      <use x="333.056641" xlink:href="#TimesNewRomanPSMT-121"/>
      <use x="383.056641" xlink:href="#TimesNewRomanPSMT-32"/>
      <use x="408.056641" xlink:href="#TimesNewRomanPSMT-40"/>
      <use x="441.357422" xlink:href="#TimesNewRomanPSMT-37"/>
      <use x="524.658203" xlink:href="#TimesNewRomanPSMT-41"/>
     </g>
    </g>
   </g>
   <g id="LineCollection_1">
    <path clip-path="url(#p970eab521f)" d="M 157.636364 143.374321 
L 157.636364 103.148208 
" style="fill:none;stroke:#333333;stroke-width:1.5;"/>
    <path clip-path="url(#p970eab521f)" d="M 263.318182 120.927251 
L 263.318182 74.984244 
" style="fill:none;stroke:#333333;stroke-width:1.5;"/>
    <path clip-path="url(#p970eab521f)" d="M 369 132.418976 
L 369 99.003553 
" style="fill:none;stroke:#333333;stroke-width:1.5;"/>
    <path clip-path="url(#p970eab521f)" d="M 474.681818 195.744946 
L 474.681818 152.624479 
" style="fill:none;stroke:#333333;stroke-width:1.5;"/>
    <path clip-path="url(#p970eab521f)" d="M 580.363636 186.2106 
L 580.363636 152.612849 
" style="fill:none;stroke:#333333;stroke-width:1.5;"/>
   </g>
   <g id="line2d_26">
    <defs>
     <path d="M 6 0 
L -6 -0 
" id="mac71fbead3" style="stroke:#333333;"/>
    </defs>
    <g clip-path="url(#p970eab521f)">
     <use style="fill:#333333;stroke:#333333;" x="157.636364" xlink:href="#mac71fbead3" y="143.374321"/>
     <use style="fill:#333333;stroke:#333333;" x="263.318182" xlink:href="#mac71fbead3" y="120.927251"/>
     <use style="fill:#333333;stroke:#333333;" x="369" xlink:href="#mac71fbead3" y="132.418976"/>
     <use style="fill:#333333;stroke:#333333;" x="474.681818" xlink:href="#mac71fbead3" y="195.744946"/>
     <use style="fill:#333333;stroke:#333333;" x="580.363636" xlink:href="#mac71fbead3" y="186.2106"/>
    </g>
   </g>
   <g id="line2d_27">
    <g clip-path="url(#p970eab521f)">
     <use style="fill:#333333;stroke:#333333;" x="157.636364" xlink:href="#mac71fbead3" y="103.148208"/>
     <use style="fill:#333333;stroke:#333333;" x="263.318182" xlink:href="#mac71fbead3" y="74.984244"/>
     <use style="fill:#333333;stroke:#333333;" x="369" xlink:href="#mac71fbead3" y="99.003553"/>
     <use style="fill:#333333;stroke:#333333;" x="474.681818" xlink:href="#mac71fbead3" y="152.624479"/>
     <use style="fill:#333333;stroke:#333333;" x="580.363636" xlink:href="#mac71fbead3" y="152.612849"/>
    </g>
   </g>
   <g id="patch_8">
    <path d="M 90 378 
L 90 51.84 
" style="fill:none;stroke:#000000;stroke-linecap:square;stroke-linejoin:miter;stroke-width:0.8;"/>
   </g>
   <g id="patch_9">
    <path d="M 648 378 
L 648 51.84 
" style="fill:none;stroke:#000000;stroke-linecap:square;stroke-linejoin:miter;stroke-width:0.8;"/>
   </g>
   <g id="patch_10">
    <path d="M 90 378 
L 648 378 
" style="fill:none;stroke:#000000;stroke-linecap:square;stroke-linejoin:miter;stroke-width:0.8;"/>
   </g>
   <g id="patch_11">
    <path d="M 90 51.84 
L 648 51.84 
" style="fill:none;stroke:#000000;stroke-linecap:square;stroke-linejoin:miter;stroke-width:0.8;"/>
   </g>
  </g>
 </g>
 <defs>
  <clipPath id="p970eab521f">
   <rect height="326.16" width="558" x="90" y="51.84"/>
  </clipPath>
 </defs>
</svg>
